<svg width="284" height="159" viewBox="0 0 284 159" fill="none" xmlns="http://www.w3.org/2000/svg">
<path d="M4.25391 94.5273C3.79557 95.4727 3.40885 95.9453 3.09375 95.9453C2.77865 95.974 2.50651 95.6589 2.27734 95C2.07682 94.3698 1.90495 93.4674 1.76172 92.293C1.64714 91.1185 1.5612 89.8151 1.50391 88.3828C1.47526 86.9505 1.47526 85.4466 1.50391 83.8711C1.53255 82.2956 1.57552 80.7773 1.63281 79.3164C1.71875 77.8555 1.81901 76.5234 1.93359 75.3203C2.04818 74.0885 2.16276 73.1289 2.27734 72.4414C2.42057 71.7253 2.5638 71.3385 2.70703 71.2812C2.85026 71.224 2.99349 71.6107 3.13672 72.4414C4.05339 71.7539 5.04167 71.1094 6.10156 70.5078C7.16146 69.8776 8.25 69.362 9.36719 68.9609C10.513 68.5312 11.6589 68.2591 12.8047 68.1445C13.9792 68.0299 15.1107 68.1302 16.1992 68.4453C16.3138 68.8177 16.3281 69.2474 16.2422 69.7344C16.1562 70.2214 15.8841 70.5365 15.4258 70.6797C14.9674 70.5938 14.3659 70.5508 13.6211 70.5508C12.8763 70.5508 12.0885 70.6081 11.2578 70.7227C10.4271 70.8372 9.59635 71.0234 8.76562 71.2812C7.9349 71.5391 7.17578 71.8828 6.48828 72.3125C5.82943 72.7135 5.28516 73.2148 4.85547 73.8164C4.45443 74.3893 4.25391 75.0768 4.25391 75.8789V94.5273ZM20.4205 94.2695C19.8476 93.0664 19.5324 91.849 19.4752 90.6172C19.4465 89.3854 19.5181 88.125 19.69 86.8359C19.7186 86.4349 19.7903 85.8333 19.9048 85.0312C20.0194 84.2292 20.1483 83.3411 20.2916 82.3672C20.4348 81.3932 20.5923 80.362 20.7642 79.2734C20.9361 78.1849 21.0936 77.1536 21.2369 76.1797C21.3801 75.2057 21.509 74.3464 21.6236 73.6016C21.7668 72.8281 21.8671 72.2552 21.9244 71.8828C22.1535 70.6797 22.397 69.6628 22.6548 68.832C22.9413 67.9727 23.3137 67.3138 23.772 66.8555C24.259 66.3971 24.8749 66.1536 25.6197 66.125C26.3931 66.0964 27.3814 66.2826 28.5845 66.6836C28.7278 66.7122 28.8853 66.8268 29.0572 67.0273C29.2291 67.1992 29.3293 67.3281 29.358 67.4141C29.4153 67.7865 29.5155 68.3594 29.6588 69.1328C29.8306 69.9062 30.0168 70.7943 30.2173 71.7969C30.4179 72.7708 30.6184 73.8021 30.8189 74.8906C31.0481 75.9505 31.2629 76.9818 31.4634 77.9844C31.664 78.9583 31.8358 79.832 31.9791 80.6055C32.1509 81.3789 32.2798 81.9518 32.3658 82.3242C32.7955 84.3581 33.3254 85.776 33.9556 86.5781C34.5858 87.3516 35.259 87.7526 35.9752 87.7812C36.6913 87.8099 37.4218 87.5807 38.1666 87.0938C38.94 86.5781 39.6991 86.0482 40.4439 85.5039C41.1887 84.931 41.8905 84.444 42.5494 84.043C43.2082 83.6419 43.7811 83.5703 44.2681 83.8281C44.2681 84.3724 44.1392 84.9023 43.8814 85.418C43.6236 85.9336 43.3085 86.4206 42.9361 86.8789C42.5923 87.3086 42.2056 87.7096 41.7759 88.082C41.3463 88.4544 40.9452 88.7695 40.5728 89.0273C38.9686 90.0872 37.6223 90.6458 36.5338 90.7031C35.4739 90.7604 34.5715 90.5169 33.8267 89.9727C33.0819 89.4284 32.4804 88.6836 32.022 87.7383C31.5637 86.793 31.1483 85.8333 30.7759 84.8594C30.4322 83.8854 30.0884 83.026 29.7447 82.2812C29.4296 81.5078 29.0429 81.0208 28.5845 80.8203C28.4986 81.1927 28.3124 81.8372 28.0259 82.7539C27.7681 83.6706 27.4817 84.6445 27.1666 85.6758C26.8515 86.707 26.5507 87.681 26.2642 88.5977C25.9778 89.5143 25.7772 90.1589 25.6627 90.5312C25.6054 90.6745 25.4765 90.9466 25.2759 91.3477C25.1041 91.7487 24.8749 92.1927 24.5884 92.6797C24.302 93.138 23.9726 93.5964 23.6002 94.0547C23.2564 94.4844 22.8983 94.8138 22.5259 95.043C22.1535 95.3008 21.7811 95.3867 21.4088 95.3008C21.0364 95.2148 20.7069 94.8711 20.4205 94.2695ZM22.6548 81.5938C22.5976 81.9375 22.5546 82.5677 22.5259 83.4844C22.5259 84.401 22.5259 85.375 22.5259 86.4062C22.5259 87.4375 22.5259 88.4115 22.5259 89.3281C22.5546 90.2448 22.5976 90.8893 22.6548 91.2617C23.6574 89.7435 24.5598 87.9818 25.3619 85.9766C26.164 83.9427 26.7655 81.8516 27.1666 79.7031C27.5963 77.526 27.7681 75.3776 27.6822 73.2578C27.5963 71.1094 27.1666 69.1615 26.3931 67.4141C25.9061 68.3021 25.4478 69.4193 25.0181 70.7656C24.5884 72.112 24.216 73.487 23.9009 74.8906C23.5858 76.2656 23.3137 77.569 23.0845 78.8008C22.884 80.0039 22.7408 80.9349 22.6548 81.5938ZM42.3019 92.7656C41.9581 92.1068 41.7433 91.2044 41.6573 90.0586C41.5714 88.8841 41.5857 87.5807 41.7003 86.1484C41.8435 84.7161 42.0727 83.2266 42.3878 81.6797C42.7316 80.1328 43.1469 78.6576 43.6339 77.2539C44.1495 75.8503 44.7224 74.5755 45.3527 73.4297C46.0115 72.2552 46.7277 71.3529 47.5011 70.7227C48.2745 70.0638 49.1053 69.7487 49.9933 69.7773C50.8813 69.7773 51.798 70.2357 52.7433 71.1523L54.2042 59.1641C54.2329 59.0495 54.3474 58.9062 54.548 58.7344C54.7485 58.5339 54.8917 58.4336 54.9777 58.4336C55.0922 58.4336 55.2355 58.4622 55.4073 58.5195C55.5792 58.5768 55.7368 58.6484 55.88 58.7344C56.0519 58.7917 56.1951 58.8633 56.3097 58.9492C56.4243 59.0352 56.4816 59.1068 56.4816 59.1641V80.0898C56.4816 81.6654 56.7537 83.026 57.298 84.1719C57.8422 85.3177 58.5584 86.1628 59.4464 86.707C60.3344 87.2513 61.3514 87.4375 62.4972 87.2656C63.6717 87.0651 64.8891 86.4206 66.1495 85.332C66.5506 85.332 66.7368 85.5182 66.7081 85.8906C66.6795 86.2344 66.5076 86.6497 66.1925 87.1367C65.906 87.6237 65.4764 88.125 64.9034 88.6406C64.3592 89.1562 63.7433 89.5859 63.0558 89.9297C62.3969 90.2448 61.6808 90.4167 60.9073 90.4453C60.1626 90.474 59.4321 90.2448 58.7159 89.7578C58.143 89.3854 57.6274 88.9414 57.1691 88.4258C56.7107 87.9102 56.2954 87.3516 55.923 86.75C55.5792 86.1484 55.2498 85.5326 54.9347 84.9023C54.6482 84.2721 54.4047 83.6562 54.2042 83.0547C54.0896 83.3125 53.8891 83.6992 53.6027 84.2148C53.3448 84.7018 53.0441 85.2747 52.7003 85.9336C52.3566 86.5638 51.9985 87.237 51.6261 87.9531C51.2537 88.6406 50.8956 89.3138 50.5519 89.9727C50.2081 90.6029 49.893 91.1758 49.6066 91.6914C49.3201 92.1784 49.1053 92.5365 48.962 92.7656C48.561 93.5104 48.0597 94.069 47.4581 94.4414C46.8566 94.8138 46.2264 95 45.5675 95C44.9373 95 44.3214 94.8138 43.7198 94.4414C43.1469 94.069 42.6743 93.5104 42.3019 92.7656ZM44.5363 91.2617C44.5649 91.3477 44.6365 91.4622 44.7511 91.6055C44.8657 91.7201 44.9946 91.8346 45.1378 91.9492C45.281 92.0352 45.4243 92.0924 45.5675 92.1211C45.7394 92.1497 45.8969 92.1068 46.0402 91.9922C47.4438 90.9323 48.5753 89.6719 49.4347 88.2109C50.3227 86.75 51.0389 85.2031 51.5831 83.5703C52.1274 81.9375 52.5571 80.276 52.8722 78.5859C53.1873 76.8672 53.4881 75.2344 53.7745 73.6875C52.2277 73.487 50.8956 73.6159 49.7784 74.0742C48.6899 74.5039 47.7732 75.1628 47.0284 76.0508C46.2836 76.9388 45.6964 77.9987 45.2667 79.2305C44.837 80.4622 44.5363 81.7656 44.3644 83.1406C44.1925 84.487 44.1209 85.8763 44.1495 87.3086C44.2068 88.7122 44.3357 90.0299 44.5363 91.2617ZM65.5153 92.7656C65.458 92.651 65.3864 92.4362 65.3005 92.1211C65.2145 91.7773 65.1286 91.4049 65.0427 91.0039C64.9567 90.6029 64.8851 90.2161 64.8278 89.8438C64.7705 89.4714 64.7419 89.1992 64.7419 89.0273V68.1445C64.7419 67.8581 64.8708 67.6576 65.1286 67.543C65.3864 67.4284 65.6729 67.3711 65.988 67.3711C66.3317 67.3424 66.6325 67.3424 66.8903 67.3711C67.1768 67.3997 67.3343 67.4141 67.363 67.4141V90.5312C67.363 91.0182 67.5205 91.4193 67.8356 91.7344C68.1507 92.0495 68.5231 92.3073 68.9528 92.5078C69.3825 92.6797 69.8265 92.7943 70.2848 92.8516C70.7432 92.8802 71.1299 92.8516 71.445 92.7656C71.846 93.3672 71.8317 93.8542 71.402 94.2266C71.001 94.5703 70.4137 94.7708 69.6403 94.8281C68.8955 94.8568 68.1078 94.7135 67.277 94.3984C66.4749 94.0547 65.8877 93.5104 65.5153 92.7656ZM64.0114 60.668C64.0114 59.8372 64.3408 59.3073 64.9997 59.0781C65.6585 58.8203 66.3317 58.849 67.0192 59.1641V61.4414C66.9333 61.4701 66.7757 61.4987 66.5466 61.5273C66.346 61.5273 66.1169 61.5273 65.8591 61.5273C65.6299 61.5273 65.4007 61.5273 65.1716 61.5273C64.971 61.4987 64.8278 61.4701 64.7419 61.4414C64.6273 61.4128 64.4697 61.2982 64.2692 61.0977C64.0973 60.8971 64.0114 60.7539 64.0114 60.668ZM77.385 92.7656C76.6689 91.7057 76.2392 90.5312 76.0959 89.2422C75.9527 87.9245 75.9527 86.5495 76.0959 85.1172C76.2392 83.6849 76.4683 82.2383 76.7834 80.7773C77.0985 79.3164 77.3707 77.9128 77.5998 76.5664C77.829 75.1914 77.9579 73.9167 77.9866 72.7422C78.0152 71.5391 77.8147 70.5078 77.385 69.6484C77.1558 69.1901 76.8407 68.9753 76.4397 69.0039C76.0673 69.0039 75.6519 69.0612 75.1936 69.1758C74.7639 69.2617 74.3199 69.2904 73.8616 69.2617C73.4319 69.2331 73.0452 68.9609 72.7014 68.4453C72.7301 68.3307 72.8446 68.1875 73.0452 68.0156C73.217 67.8151 73.3459 67.7005 73.4319 67.6719C76.01 67.2995 78.1584 67.5716 79.8772 68.4883C81.6246 69.3763 83.0139 70.651 84.0452 72.3125C85.0764 73.9453 85.7782 75.8216 86.1506 77.9414C86.5517 80.0612 86.6949 82.1667 86.5803 84.2578C86.4657 86.349 86.1363 88.2969 85.592 90.1016C85.0478 91.8776 84.3603 93.2526 83.5295 94.2266C82.6988 95.2005 81.7535 95.6302 80.6936 95.5156C79.6337 95.401 78.5308 94.4844 77.385 92.7656ZM79.6194 91.2617C79.648 91.3477 79.734 91.4622 79.8772 91.6055C80.0204 91.7487 80.1636 91.9062 80.3069 92.0781C80.4788 92.25 80.6363 92.4076 80.7795 92.5508C80.9228 92.6654 81.023 92.737 81.0803 92.7656C82.1402 92.1641 82.928 91.3477 83.4436 90.3164C83.9592 89.2852 84.26 88.1393 84.3459 86.8789C84.4605 85.6185 84.4032 84.3008 84.1741 82.9258C83.9735 81.5221 83.6728 80.1758 83.2717 78.8867C82.8707 77.5977 82.398 76.4089 81.8538 75.3203C81.3381 74.2318 80.8368 73.3438 80.3498 72.6562C80.3212 73.0286 80.2639 73.6016 80.178 74.375C80.092 75.1484 80.0061 76.0221 79.9202 76.9961C79.8342 77.9701 79.734 79.0013 79.6194 80.0898C79.5048 81.1784 79.3902 82.224 79.2756 83.2266C79.1897 84.2005 79.1038 85.0742 79.0178 85.8477C78.9319 86.6211 78.8746 87.194 78.8459 87.5664C78.8173 87.8529 78.8173 88.1823 78.8459 88.5547C78.9032 88.8984 78.9748 89.2422 79.0608 89.5859C79.1467 89.9297 79.2327 90.2591 79.3186 90.5742C79.4332 90.8607 79.5334 91.0898 79.6194 91.2617ZM98.2781 94.2695C98.2208 94.1549 98.1492 93.9974 98.0633 93.7969C98.006 93.5677 97.9344 93.3385 97.8484 93.1094C97.7911 92.8516 97.7195 92.6224 97.6336 92.4219C97.5763 92.2214 97.5477 92.0781 97.5477 91.9922C97.519 91.6771 97.476 91.1901 97.4187 90.5312C97.3901 89.8724 97.3471 89.1276 97.2898 88.2969C97.2325 87.4661 97.1753 86.5924 97.118 85.6758C97.0893 84.7305 97.0464 83.8424 96.9891 83.0117C96.9318 82.181 96.8888 81.4362 96.8602 80.7773C96.8315 80.1185 96.8172 79.6315 96.8172 79.3164C96.7599 79.2878 96.631 79.2734 96.4305 79.2734C96.2299 79.2734 96.101 79.2878 96.0437 79.3164C95.8146 79.3737 95.4135 79.474 94.8406 79.6172C94.2964 79.7604 93.7091 79.918 93.0789 80.0898L91.2742 80.5195C90.7013 80.6628 90.3146 80.763 90.1141 80.8203L88.2234 78.9297L96.8172 76.3516L98.2781 59.9375C98.3927 58.8776 98.7221 57.9753 99.2664 57.2305C99.8107 56.4857 100.455 55.8984 101.2 55.4688C101.945 55.0391 102.704 54.7812 103.477 54.6953C104.279 54.6094 104.967 54.6953 105.54 54.9531C106.113 55.1823 106.514 55.5977 106.743 56.1992C106.972 56.7721 106.901 57.5169 106.528 58.4336C106.098 58.7487 105.755 58.8776 105.497 58.8203C105.268 58.763 105.082 58.6341 104.938 58.4336C104.824 58.2044 104.723 57.9466 104.637 57.6602C104.552 57.3737 104.437 57.1445 104.294 56.9727C103.749 56.4284 103.262 56.2565 102.833 56.457C102.432 56.6289 102.074 57.0729 101.759 57.7891C101.443 58.4766 101.171 59.3503 100.942 60.4102C100.713 61.4701 100.527 62.6159 100.384 63.8477C100.24 65.0508 100.126 66.2826 100.04 67.543C99.9539 68.7747 99.8823 69.9062 99.825 70.9375C99.7964 71.9688 99.782 72.8424 99.782 73.5586V74.8477C100.355 75.0195 100.985 75.0052 101.673 74.8047C102.389 74.6042 103.105 74.3177 103.821 73.9453C104.566 73.5729 105.296 73.1862 106.012 72.7852C106.729 72.3555 107.402 72.026 108.032 71.7969C108.662 71.5677 109.221 71.4961 109.708 71.582C110.223 71.668 110.639 72.026 110.954 72.6562L109.536 74.1172L100.555 77.8555L99.782 78.5859C99.7534 78.6432 99.7247 79.0443 99.6961 79.7891C99.6961 80.5339 99.6961 81.4219 99.6961 82.4531C99.6961 83.4844 99.6961 84.5443 99.6961 85.6328C99.7247 86.6927 99.7534 87.5664 99.782 88.2539C99.8107 88.569 99.9109 89.0417 100.083 89.6719C100.283 90.3021 100.441 90.9753 100.555 91.6914C100.699 92.4076 100.727 93.0807 100.641 93.7109C100.584 94.3125 100.298 94.7422 99.782 95C99.4669 95.1432 99.1661 95.1146 98.8797 94.9141C98.6219 94.7135 98.4214 94.4987 98.2781 94.2695ZM116.163 92.7656C115.447 91.7057 115.018 90.5312 114.874 89.2422C114.731 87.9245 114.731 86.5495 114.874 85.1172C115.018 83.6849 115.247 82.2383 115.562 80.7773C115.877 79.3164 116.149 77.9128 116.378 76.5664C116.607 75.1914 116.736 73.9167 116.765 72.7422C116.794 71.5391 116.593 70.5078 116.163 69.6484C115.934 69.1901 115.619 68.9753 115.218 69.0039C114.846 69.0039 114.43 69.0612 113.972 69.1758C113.542 69.2617 113.098 69.2904 112.64 69.2617C112.21 69.2331 111.824 68.9609 111.48 68.4453C111.508 68.3307 111.623 68.1875 111.824 68.0156C111.995 67.8151 112.124 67.7005 112.21 67.6719C114.788 67.2995 116.937 67.5716 118.656 68.4883C120.403 69.3763 121.792 70.651 122.824 72.3125C123.855 73.9453 124.557 75.8216 124.929 77.9414C125.33 80.0612 125.473 82.1667 125.359 84.2578C125.244 86.349 124.915 88.2969 124.37 90.1016C123.826 91.8776 123.139 93.2526 122.308 94.2266C121.477 95.2005 120.532 95.6302 119.472 95.5156C118.412 95.401 117.309 94.4844 116.163 92.7656ZM118.398 91.2617C118.426 91.3477 118.512 91.4622 118.656 91.6055C118.799 91.7487 118.942 91.9062 119.085 92.0781C119.257 92.25 119.415 92.4076 119.558 92.5508C119.701 92.6654 119.801 92.737 119.859 92.7656C120.919 92.1641 121.706 91.3477 122.222 90.3164C122.738 89.2852 123.038 88.1393 123.124 86.8789C123.239 85.6185 123.182 84.3008 122.952 82.9258C122.752 81.5221 122.451 80.1758 122.05 78.8867C121.649 77.5977 121.176 76.4089 120.632 75.3203C120.117 74.2318 119.615 73.3438 119.128 72.6562C119.1 73.0286 119.042 73.6016 118.956 74.375C118.87 75.1484 118.785 76.0221 118.699 76.9961C118.613 77.9701 118.512 79.0013 118.398 80.0898C118.283 81.1784 118.169 82.224 118.054 83.2266C117.968 84.2005 117.882 85.0742 117.796 85.8477C117.71 86.6211 117.653 87.194 117.624 87.5664C117.596 87.8529 117.596 88.1823 117.624 88.5547C117.682 88.8984 117.753 89.2422 117.839 89.5859C117.925 89.9297 118.011 90.2591 118.097 90.5742C118.212 90.8607 118.312 91.0898 118.398 91.2617ZM130.053 94.2695C130.081 93.8971 130.096 93.2526 130.096 92.3359V86.4922C130.096 85.5755 130.081 84.931 130.053 84.5586C130.024 84.3867 129.967 84.0143 129.881 83.4414C129.823 82.8685 129.738 82.1953 129.623 81.4219C129.537 80.6484 129.437 79.832 129.322 78.9727C129.208 78.1133 129.093 77.2969 128.978 76.5234C128.864 75.75 128.764 75.0768 128.678 74.5039C128.62 73.931 128.577 73.5443 128.549 73.3438C128.491 72.9427 128.463 72.5273 128.463 72.0977C128.491 71.668 128.577 71.2956 128.721 70.9805C128.864 70.6654 129.093 70.4505 129.408 70.3359C129.723 70.1927 130.182 70.2214 130.783 70.4219C130.812 71.0234 130.855 71.7396 130.912 72.5703C130.998 73.3724 131.098 74.2174 131.213 75.1055C131.327 75.9935 131.471 76.8672 131.643 77.7266C131.814 78.5859 132.029 79.3737 132.287 80.0898C132.659 79.0299 133.018 78.099 133.361 77.2969C133.734 76.4661 134.149 75.707 134.607 75.0195C135.066 74.332 135.581 73.6875 136.154 73.0859C136.727 72.4557 137.415 71.8112 138.217 71.1523C139.219 70.3216 140.05 69.9922 140.709 70.1641C141.396 70.3073 141.955 70.7943 142.385 71.625C142.843 72.4271 143.215 73.4727 143.502 74.7617C143.788 76.0508 144.046 77.4258 144.275 78.8867C144.504 80.319 144.734 81.737 144.963 83.1406C145.221 84.5156 145.536 85.7188 145.908 86.75C146.281 87.7526 146.739 88.4974 147.283 88.9844C147.856 89.4427 148.572 89.457 149.432 89.0273C149.689 89.8008 149.718 90.3737 149.518 90.7461C149.346 91.0898 149.031 91.2904 148.572 91.3477C148.143 91.3763 147.627 91.2617 147.025 91.0039C146.424 90.7174 145.822 90.3451 145.221 89.8867C144.648 89.3997 144.132 88.8268 143.674 88.168C143.215 87.5091 142.9 86.8073 142.728 86.0625C142.614 85.5469 142.514 84.7018 142.428 83.5273C142.342 82.3529 142.213 81.0924 142.041 79.7461C141.869 78.3997 141.597 77.082 141.225 75.793C140.881 74.4753 140.379 73.4297 139.721 72.6562L136.713 75.5781C136.627 75.6927 136.412 76.2083 136.068 77.125C135.753 78.0417 135.395 79.1016 134.994 80.3047C134.593 81.4792 134.206 82.6823 133.834 83.9141C133.462 85.1172 133.189 86.0911 133.018 86.8359C132.96 87.0938 132.889 87.5807 132.803 88.2969C132.717 88.9844 132.631 89.7292 132.545 90.5312C132.459 91.3333 132.387 92.0924 132.33 92.8086C132.301 93.4961 132.287 93.9831 132.287 94.2695C132.029 94.7852 131.657 95.043 131.17 95.043C130.683 95.043 130.31 94.7852 130.053 94.2695ZM150.774 92.7656C150.717 92.651 150.645 92.4362 150.559 92.1211C150.473 91.7773 150.387 91.4049 150.301 91.0039C150.215 90.6029 150.144 90.2161 150.086 89.8438C150.029 89.4714 150 89.1992 150 89.0273V68.1445C150 67.8581 150.129 67.6576 150.387 67.543C150.645 67.4284 150.931 67.3711 151.247 67.3711C151.59 67.3424 151.891 67.3424 152.149 67.3711C152.435 67.3997 152.593 67.4141 152.622 67.4141V90.5312C152.622 91.0182 152.779 91.4193 153.094 91.7344C153.409 92.0495 153.782 92.3073 154.211 92.5078C154.641 92.6797 155.085 92.7943 155.543 92.8516C156.002 92.8802 156.388 92.8516 156.704 92.7656C157.105 93.3672 157.09 93.8542 156.661 94.2266C156.26 94.5703 155.672 94.7708 154.899 94.8281C154.154 94.8568 153.366 94.7135 152.536 94.3984C151.734 94.0547 151.146 93.5104 150.774 92.7656ZM149.27 60.668C149.27 59.8372 149.599 59.3073 150.258 59.0781C150.917 58.8203 151.59 58.849 152.278 59.1641V61.4414C152.192 61.4701 152.034 61.4987 151.805 61.5273C151.605 61.5273 151.375 61.5273 151.118 61.5273C150.888 61.5273 150.659 61.5273 150.43 61.5273C150.23 61.4987 150.086 61.4701 150 61.4414C149.886 61.4128 149.728 61.2982 149.528 61.0977C149.356 60.8971 149.27 60.7539 149.27 60.668ZM162.042 93.4961C160.982 92.694 160.209 91.7344 159.722 90.6172C159.263 89.4714 159.006 88.2396 158.948 86.9219C158.92 85.5755 159.063 84.2005 159.378 82.7969C159.722 81.3932 160.166 80.0326 160.71 78.7148C161.254 77.3971 161.856 76.1797 162.515 75.0625C163.202 73.9167 163.89 72.957 164.577 72.1836C165.265 71.3815 165.909 70.8229 166.511 70.5078C167.112 70.1641 167.599 70.1354 167.972 70.4219C168.029 70.737 168.129 71.3242 168.273 72.1836C168.444 73.0143 168.602 73.9167 168.745 74.8906C168.917 75.8359 169.06 76.7383 169.175 77.5977C169.318 78.4284 169.418 79.0013 169.476 79.3164C169.533 79.6888 169.547 80.0898 169.519 80.5195C169.49 80.9206 169.404 81.293 169.261 81.6367C169.118 81.9518 168.874 82.1953 168.53 82.3672C168.215 82.5104 167.786 82.4961 167.241 82.3242C167.213 82.1237 167.127 81.7799 166.983 81.293C166.869 80.806 166.726 80.2904 166.554 79.7461C166.411 79.1732 166.253 78.6432 166.081 78.1562C165.938 77.6406 165.838 77.2826 165.78 77.082L165.05 76.3516C164.162 76.9531 163.417 77.8125 162.815 78.9297C162.243 80.0469 161.827 81.2643 161.569 82.582C161.312 83.8711 161.24 85.1745 161.355 86.4922C161.498 87.7812 161.827 88.9271 162.343 89.9297C162.887 90.9036 163.632 91.6484 164.577 92.1641C165.551 92.651 166.754 92.7227 168.187 92.3789C169.648 92.0352 171.352 91.2044 173.3 89.8867C175.248 88.5404 177.468 86.5208 179.96 83.8281V85.332C179.96 85.418 179.788 85.6758 179.444 86.1055C179.101 86.5352 178.685 87.0365 178.198 87.6094C177.711 88.1536 177.21 88.6979 176.694 89.2422C176.207 89.7865 175.792 90.2161 175.448 90.5312C174.503 91.4193 173.486 92.2357 172.398 92.9805C171.338 93.7253 170.235 94.2839 169.089 94.6562C167.943 95.0286 166.769 95.1432 165.565 95C164.391 94.8854 163.217 94.3841 162.042 93.4961ZM185.427 92.7656C184.711 91.7057 184.282 90.5312 184.138 89.2422C183.995 87.9245 183.995 86.5495 184.138 85.1172C184.282 83.6849 184.511 82.2383 184.826 80.7773C185.141 79.3164 185.413 77.9128 185.642 76.5664C185.871 75.1914 186 73.9167 186.029 72.7422C186.058 71.5391 185.857 70.5078 185.427 69.6484C185.198 69.1901 184.883 68.9753 184.482 69.0039C184.11 69.0039 183.694 69.0612 183.236 69.1758C182.806 69.2617 182.362 69.2904 181.904 69.2617C181.474 69.2331 181.087 68.9609 180.744 68.4453C180.772 68.3307 180.887 68.1875 181.087 68.0156C181.259 67.8151 181.388 67.7005 181.474 67.6719C184.052 67.2995 186.201 67.5716 187.92 68.4883C189.667 69.3763 191.056 70.651 192.087 72.3125C193.119 73.9453 193.821 75.8216 194.193 77.9414C194.594 80.0612 194.737 82.1667 194.623 84.2578C194.508 86.349 194.179 88.2969 193.634 90.1016C193.09 91.8776 192.403 93.2526 191.572 94.2266C190.741 95.2005 189.796 95.6302 188.736 95.5156C187.676 95.401 186.573 94.4844 185.427 92.7656ZM187.662 91.2617C187.69 91.3477 187.776 91.4622 187.92 91.6055C188.063 91.7487 188.206 91.9062 188.349 92.0781C188.521 92.25 188.679 92.4076 188.822 92.5508C188.965 92.6654 189.065 92.737 189.123 92.7656C190.183 92.1641 190.97 91.3477 191.486 90.3164C192.002 89.2852 192.302 88.1393 192.388 86.8789C192.503 85.6185 192.446 84.3008 192.216 82.9258C192.016 81.5221 191.715 80.1758 191.314 78.8867C190.913 77.5977 190.44 76.4089 189.896 75.3203C189.38 74.2318 188.879 73.3438 188.392 72.6562C188.364 73.0286 188.306 73.6016 188.22 74.375C188.134 75.1484 188.048 76.0221 187.962 76.9961C187.877 77.9701 187.776 79.0013 187.662 80.0898C187.547 81.1784 187.433 82.224 187.318 83.2266C187.232 84.2005 187.146 85.0742 187.06 85.8477C186.974 86.6211 186.917 87.194 186.888 87.5664C186.86 87.8529 186.86 88.1823 186.888 88.5547C186.946 88.8984 187.017 89.2422 187.103 89.5859C187.189 89.9297 187.275 90.2591 187.361 90.5742C187.476 90.8607 187.576 91.0898 187.662 91.2617Z" fill="#E5E5E5"/>
<path d="M265.813 36.1795C260.767 34.6227 255.985 35.4212 251.214 38.6138C248.112 40.6933 245.525 43.5586 242.828 47.9007C241.965 49.2915 240.4 50.0419 238.814 49.8251C237.277 49.5962 235.908 48.465 235.423 46.8884L234.931 45.3035C234.613 44.2819 234.354 43.4485 234.115 42.6087C233.261 39.6158 231.848 36.5298 229.671 32.9021C228.323 30.6562 226.361 29.7671 224.739 29.4393C223.818 29.253 223.006 29.2487 222.478 29.2779C219.175 29.4658 216.323 31.3181 215.032 34.1118C213.765 36.8543 213.131 39.9651 213.091 43.6229C213.036 48.6159 214.444 53.4963 215.973 58.0249C219.535 68.58 225.026 79.1005 232.734 90.1306C236.235 85.7027 240.475 81.6576 245.661 77.7984C247.449 76.4664 249.266 75.1734 251.086 73.8818C253.08 72.4647 255.074 71.0484 257.026 69.575C262.379 65.5366 266.383 61.308 269.262 56.6443C271.913 52.3491 272.69 47.8871 271.635 43.0045C270.852 39.3781 268.948 37.1457 265.813 36.1795Z" fill="#FC658A" stroke="#F0F0F3" stroke-width="2"/>
<path d="M279.688 41.1441C278.257 34.5188 274.166 29.8514 268.172 28.0027C260.763 25.7281 253.55 26.8828 246.727 31.4531C244.58 32.8924 242.645 34.5673 240.811 36.6051C239.791 34.0101 238.441 31.334 236.682 28.4024C233.6 23.2697 228.119 20.4138 222.023 20.7579C215.707 21.1169 210.174 24.8261 207.583 30.4345C205.79 34.3192 204.891 38.6021 204.837 43.5269C204.769 49.8351 206.404 55.5742 208.18 60.8362C212.21 72.7787 218.482 84.6011 227.356 96.9821C228.68 98.8294 230.224 99.5247 231.412 99.7648C231.568 99.7964 231.718 99.8196 231.861 99.8388C233.095 99.9878 234.971 99.8131 236.906 98.1356C237.584 97.5496 238.063 96.9141 238.411 96.4512L238.542 96.279C241.689 92.1398 245.596 88.3592 250.483 84.72C252.222 83.4245 253.991 82.1686 255.759 80.9125C257.817 79.4507 259.875 77.9881 261.889 76.466C268.087 71.7925 272.776 66.8095 276.217 61.2346C280.056 55.0177 281.225 48.2575 279.688 41.1441ZM269.261 56.6447C266.382 61.3084 262.379 65.538 257.025 69.5753C255.072 71.0488 253.079 72.4642 251.085 73.8822C249.266 75.174 247.448 76.467 245.66 77.7988C240.474 81.6579 236.233 85.7038 232.733 90.131C225.024 79.1009 219.534 68.5804 215.972 58.0253C214.443 53.4966 213.035 48.6171 213.09 43.6233C213.129 39.9653 213.764 36.8547 215.031 34.1121C216.321 31.3184 219.174 29.4662 222.477 29.2782C223.005 29.2492 223.817 29.2536 224.738 29.4397C226.36 29.7675 228.322 30.6565 229.67 32.9025C231.847 36.53 233.259 39.6151 234.114 42.6091C234.353 43.4489 234.612 44.2822 234.93 45.3039L235.421 46.8888C235.907 48.4662 237.276 49.5966 238.813 49.8255C240.399 50.0423 241.964 49.2919 242.827 47.901C245.523 43.559 248.11 40.6937 251.213 38.6141C255.983 35.4216 260.766 34.623 265.812 36.1798C268.947 37.1461 270.851 39.3785 271.633 43.0047C272.689 47.8875 271.912 52.3495 269.261 56.6447Z" fill="#FC658A" stroke="#F0F0F3" stroke-width="2"/>
</svg>
