<svg width="277" height="310" viewBox="0 0 277 310" fill="none" xmlns="http://www.w3.org/2000/svg">
<path d="M216.492 259.445L234.393 259.435" stroke="#FC658A" stroke-width="3.02" stroke-miterlimit="10" stroke-linecap="round"/>
<path d="M225.976 247.292H235.22" stroke="#FC658A" stroke-width="3.02" stroke-miterlimit="10" stroke-linecap="round"/>
<path d="M45.7764 247.292H48.8456" stroke="#FC658A" stroke-width="3.02" stroke-miterlimit="10" stroke-linecap="round"/>
<path d="M221.235 235.152L247.548 235.139" stroke="#FC658A" stroke-width="3.02" stroke-miterlimit="10" stroke-linecap="round"/>
<path d="M39.8296 235.152L51.7268 235.139" stroke="#FC658A" stroke-width="3.02" stroke-miterlimit="10" stroke-linecap="round"/>
<path d="M64.0508 235.152L65.7316 235.139" stroke="#FC658A" stroke-width="3.02" stroke-miterlimit="10" stroke-linecap="round"/>
<path d="M218.691 223.01L240.304 223" stroke="#FC658A" stroke-width="3.02" stroke-miterlimit="10" stroke-linecap="round"/>
<path d="M39.6011 223.01L68.1355 223" stroke="#FC658A" stroke-width="3.02" stroke-miterlimit="10" stroke-linecap="round"/>
<path d="M184.516 308H196.282" stroke="#FC658A" stroke-width="3.02" stroke-miterlimit="10" stroke-linecap="round"/>
<path d="M168.547 295.86L198.241 295.847" stroke="#FC658A" stroke-width="3.02" stroke-miterlimit="10" stroke-linecap="round"/>
<path d="M142.772 283.718L199.643 283.708" stroke="#FC658A" stroke-width="3.02" stroke-miterlimit="10" stroke-linecap="round"/>
<path d="M214.21 271.584L224.016 271.571" stroke="#FC658A" stroke-width="3.02" stroke-miterlimit="10" stroke-linecap="round"/>
<path d="M137.215 271.584L203.563 271.571" stroke="#FC658A" stroke-width="3.02" stroke-miterlimit="10" stroke-linecap="round"/>
<path d="M251.188 198.719L275 198.712" stroke="#FC658A" stroke-width="3.02" stroke-miterlimit="10" stroke-linecap="round"/>
<path d="M196.281 198.719L240.303 198.712" stroke="#FC658A" stroke-width="3.02" stroke-miterlimit="10" stroke-linecap="round"/>
<path d="M37.8394 198.719L68.1353 198.712" stroke="#FC658A" stroke-width="3.02" stroke-miterlimit="10" stroke-linecap="round"/>
<path d="M181.433 186.589L257.072 186.576" stroke="#FC658A" stroke-width="3.02" stroke-miterlimit="10" stroke-linecap="round"/>
<path d="M32.6753 186.589L68.1349 186.576" stroke="#FC658A" stroke-width="3.02" stroke-miterlimit="10" stroke-linecap="round"/>
<path d="M167.425 174.447L236.34 174.439" stroke="#FC658A" stroke-width="3.02" stroke-miterlimit="10" stroke-linecap="round"/>
<path d="M55.6465 174.445H64.0508" stroke="#FC658A" stroke-width="3.02" stroke-miterlimit="10" stroke-linecap="round"/>
<path d="M137.215 162.292H218.69" stroke="#FC658A" stroke-width="3.02" stroke-miterlimit="10" stroke-linecap="round"/>
<path d="M124.845 150.153H196.282" stroke="#FC658A" stroke-width="3.02" stroke-miterlimit="10" stroke-linecap="round"/>
<path d="M216.492 150.153H225.976" stroke="#FC658A" stroke-width="3.02" stroke-miterlimit="10" stroke-linecap="round"/>
<path d="M105.955 138.014L179.752 138.01" stroke="#FC658A" stroke-width="3.02" stroke-miterlimit="10" stroke-linecap="round"/>
<path d="M99.0703 125.877L171.069 125.874" stroke="#FC658A" stroke-width="3.02" stroke-miterlimit="10" stroke-linecap="round"/>
<path d="M89.5464 113.736L167.424 113.709" stroke="#FC658A" stroke-width="3.02" stroke-miterlimit="10" stroke-linecap="round"/>
<path d="M84.9077 101.186L159.303 101.183" stroke="#FC658A" stroke-width="3.02" stroke-miterlimit="10" stroke-linecap="round"/>
<path d="M19.9287 89.0502L144.175 89.0403" stroke="#FC658A" stroke-width="3.02" stroke-miterlimit="10" stroke-linecap="round"/>
<path d="M4.24219 76.5049L131.195 76.5012" stroke="#FC658A" stroke-width="3.02" stroke-miterlimit="10" stroke-linecap="round"/>
<path d="M132.687 64.3779L5.08252 64.3582" stroke="#FC658A" stroke-width="3.02" stroke-miterlimit="10" stroke-linecap="round"/>
<path d="M5.08252 51.3751H128.485" stroke="#FC658A" stroke-width="3.02" stroke-miterlimit="10" stroke-linecap="round"/>
<path d="M2 39.2363L146.346 39.2133" stroke="#FC658A" stroke-width="3.02" stroke-miterlimit="10" stroke-linecap="round"/>
<path d="M28.4741 26.6873L162.665 26.6836" stroke="#FC658A" stroke-width="3.02" stroke-miterlimit="10" stroke-linecap="round"/>
<path d="M79.4609 14.5519L162.664 14.542" stroke="#FC658A" stroke-width="3.02" stroke-miterlimit="10" stroke-linecap="round"/>
<path d="M60.9014 14.5519L63.4933 14.542" stroke="#FC658A" stroke-width="3.02" stroke-miterlimit="10" stroke-linecap="round"/>
<path d="M36.7036 14.5519L39.2922 14.542" stroke="#FC658A" stroke-width="3.02" stroke-miterlimit="10" stroke-linecap="round"/>
<path d="M88.144 2.00731L130.125 2" stroke="#FC658A" stroke-width="3.02" stroke-miterlimit="10" stroke-linecap="round"/>
</svg>
