<svg width="70" height="70" viewBox="0 0 70 70" fill="none" xmlns="http://www.w3.org/2000/svg">
<path d="M35 0C15.7008 0 0 15.7001 0 35C0 54.2999 15.7001 70 35 70C54.2999 70 70 54.2999 70 35C70 15.7001 54.2999 0 35 0V0ZM35 67.8768C16.8723 67.8768 2.12324 53.1277 2.12324 35C2.12324 16.8723 16.8723 2.12324 35 2.12324C53.1277 2.12324 67.8768 16.8723 67.8768 35C67.8768 53.1277 53.1277 67.8768 35 67.8768Z" fill="#393A32"/>
<path d="M34.9999 7.17218C19.6562 7.17218 7.17218 19.6562 7.17218 34.9999C7.17218 50.3437 19.6562 62.8277 34.9999 62.8277C50.3437 62.8277 62.8277 50.3437 62.8277 34.9999C62.8277 19.6562 50.3437 7.17218 34.9999 7.17218V7.17218ZM34.9999 60.7082C20.8247 60.7082 9.29171 49.1752 9.29171 34.9999C9.29171 20.8247 20.8247 9.29171 34.9999 9.29171C49.1752 9.29171 60.7082 20.8247 60.7082 34.9999C60.7082 49.1752 49.1752 60.7082 34.9999 60.7082V60.7082Z" fill="#393A32"/>
<path d="M44.4744 22.4488C42.4879 22.4488 40.8698 24.067 40.8698 26.0535V43.9466C40.8698 45.9331 42.4879 47.5512 44.4744 47.5512C46.4609 47.5512 48.0791 45.9331 48.0791 43.9466V26.0535C48.0791 24.067 46.4609 22.4488 44.4744 22.4488V22.4488ZM45.9563 43.9462C45.9563 44.764 45.2922 45.4281 44.4744 45.4281C43.6566 45.4281 42.9925 44.764 42.9925 43.9462L42.9896 26.0531C42.9896 25.2353 43.6537 24.5712 44.4715 24.5712C45.2893 24.5712 45.9534 25.2353 45.9534 26.0531L45.9563 43.9462Z" fill="#393A32"/>
<path d="M38.3727 34.0685L22.7825 23.5822C22.4548 23.3618 22.0372 23.3415 21.692 23.5271C21.347 23.7127 21.1295 24.0723 21.1295 24.4638V45.4363C21.1295 45.8278 21.347 46.1874 21.692 46.373C21.8486 46.4571 22.0197 46.4977 22.1908 46.4977C22.3967 46.4977 22.6026 46.4368 22.7824 46.3179L38.3726 35.8287C38.6655 35.6315 38.8395 35.3009 38.8395 34.95C38.8395 34.5962 38.6655 34.2656 38.3726 34.0684L38.3727 34.0685ZM23.2494 43.4442V26.4531L35.879 34.9468L23.2494 43.4442Z" fill="#393A32"/>
</svg>
