<svg width="70" height="70" viewBox="0 0 70 70" fill="none" xmlns="http://www.w3.org/2000/svg">
<path d="M35 0C15.7008 0 0 15.7001 0 35C0 54.2999 15.7001 70 35 70C54.2999 70 70 54.2999 70 35C70 15.7001 54.2999 0 35 0V0ZM35 67.8768C16.8723 67.8768 2.12324 53.1277 2.12324 35C2.12324 16.8723 16.8723 2.12324 35 2.12324C53.1277 2.12324 67.8768 16.8723 67.8768 35C67.8768 53.1277 53.1277 67.8768 35 67.8768Z" fill="#393A32"/>
<path d="M34.9995 7.17133C19.6558 7.17133 7.17175 19.6554 7.17175 34.9991C7.17175 50.3428 19.6558 62.8268 34.9995 62.8268C50.3432 62.8268 62.8273 50.3428 62.8273 34.9991C62.8273 19.6554 50.3432 7.17133 34.9995 7.17133V7.17133ZM34.9995 60.7073C20.8243 60.7073 9.29128 49.1743 9.29128 34.9991C9.29128 20.8239 20.8243 9.29085 34.9995 9.29085C49.1747 9.29085 60.7077 20.8239 60.7077 34.9991C60.7077 49.1743 49.1747 60.7073 34.9995 60.7073V60.7073Z" fill="#393A32"/>
<path d="M25.5252 22.4479C23.5387 22.4479 21.9205 24.0661 21.9205 26.0526V43.9457C21.9205 45.9322 23.5387 47.5504 25.5252 47.5504C27.5117 47.5504 29.1299 45.9322 29.1299 43.9457V26.0526C29.1299 24.0661 27.5146 22.4479 25.5252 22.4479V22.4479ZM27.01 43.9453C27.01 44.7631 26.3459 45.4272 25.5281 45.4272C24.7103 45.4272 24.0462 44.7631 24.0462 43.9453L24.0433 26.0522C24.0433 25.2344 24.7074 24.5704 25.5252 24.5704C26.343 24.5704 27.0071 25.2344 27.0071 26.0522L27.01 43.9453Z" fill="#393A32"/>
<path d="M48.3084 23.5233C47.9633 23.3406 47.5429 23.3609 47.218 23.5784L31.6278 34.0646C31.3349 34.2618 31.158 34.5924 31.158 34.9433C31.158 35.2971 31.3349 35.6277 31.6278 35.822L47.218 46.3083C47.3949 46.4272 47.6037 46.4881 47.8096 46.4881C47.9807 46.4881 48.1518 46.4475 48.3084 46.3634C48.6535 46.1778 48.871 45.8182 48.871 45.4267V24.4601C48.871 24.0686 48.6564 23.709 48.3084 23.5234L48.3084 23.5233ZM46.7511 43.4431L34.1216 34.9494L46.7511 26.4557V43.4431Z" fill="#393A32"/>
</svg>
