<svg width="484" height="367" viewBox="0 0 484 367" fill="none" xmlns="http://www.w3.org/2000/svg">
<path d="M407.88 306.93L428.568 306.918" stroke="#FC658A" stroke-width="4.02" stroke-miterlimit="10" stroke-linecap="round"/>
<path d="M418.84 292.583H429.524" stroke="#FC658A" stroke-width="4.02" stroke-miterlimit="10" stroke-linecap="round"/>
<path d="M210.591 292.583H214.138" stroke="#FC658A" stroke-width="4.02" stroke-miterlimit="10" stroke-linecap="round"/>
<path d="M413.362 278.251L443.77 278.235" stroke="#FC658A" stroke-width="4.02" stroke-miterlimit="10" stroke-linecap="round"/>
<path d="M203.718 278.251L217.467 278.235" stroke="#FC658A" stroke-width="4.02" stroke-miterlimit="10" stroke-linecap="round"/>
<path d="M231.71 278.251L233.652 278.235" stroke="#FC658A" stroke-width="4.02" stroke-miterlimit="10" stroke-linecap="round"/>
<path d="M410.421 263.916L435.398 263.904" stroke="#FC658A" stroke-width="4.02" stroke-miterlimit="10" stroke-linecap="round"/>
<path d="M203.454 263.916L236.43 263.904" stroke="#FC658A" stroke-width="4.02" stroke-miterlimit="10" stroke-linecap="round"/>
<path d="M470.316 249.591L481 249.576" stroke="#FC658A" stroke-width="4.02" stroke-miterlimit="10" stroke-linecap="round"/>
<path d="M406.862 249.591L429.524 249.576" stroke="#FC658A" stroke-width="4.02" stroke-miterlimit="10" stroke-linecap="round"/>
<path d="M201.418 249.591L238.186 249.576" stroke="#FC658A" stroke-width="4.02" stroke-miterlimit="10" stroke-linecap="round"/>
<path d="M370.926 364.252H384.524" stroke="#FC658A" stroke-width="4.02" stroke-miterlimit="10" stroke-linecap="round"/>
<path d="M352.472 349.921L386.788 349.905" stroke="#FC658A" stroke-width="4.02" stroke-miterlimit="10" stroke-linecap="round"/>
<path d="M322.685 335.586L388.408 335.574" stroke="#FC658A" stroke-width="4.02" stroke-miterlimit="10" stroke-linecap="round"/>
<path d="M405.243 321.261L416.575 321.246" stroke="#FC658A" stroke-width="4.02" stroke-miterlimit="10" stroke-linecap="round"/>
<path d="M316.263 321.261L392.938 321.246" stroke="#FC658A" stroke-width="4.02" stroke-miterlimit="10" stroke-linecap="round"/>
<path d="M447.978 235.239L475.496 235.231" stroke="#FC658A" stroke-width="4.02" stroke-miterlimit="10" stroke-linecap="round"/>
<path d="M384.523 235.239L435.398 235.231" stroke="#FC658A" stroke-width="4.02" stroke-miterlimit="10" stroke-linecap="round"/>
<path d="M201.418 235.239L236.43 235.231" stroke="#FC658A" stroke-width="4.02" stroke-miterlimit="10" stroke-linecap="round"/>
<path d="M367.363 220.919L454.776 220.904" stroke="#FC658A" stroke-width="4.02" stroke-miterlimit="10" stroke-linecap="round"/>
<path d="M195.451 220.919L236.43 220.904" stroke="#FC658A" stroke-width="4.02" stroke-miterlimit="10" stroke-linecap="round"/>
<path d="M351.175 206.583L430.818 206.575" stroke="#FC658A" stroke-width="4.02" stroke-miterlimit="10" stroke-linecap="round"/>
<path d="M221.997 206.582H231.71" stroke="#FC658A" stroke-width="4.02" stroke-miterlimit="10" stroke-linecap="round"/>
<path d="M316.263 192.235H410.421" stroke="#FC658A" stroke-width="4.02" stroke-miterlimit="10" stroke-linecap="round"/>
<path d="M301.967 177.904H384.523" stroke="#FC658A" stroke-width="4.02" stroke-miterlimit="10" stroke-linecap="round"/>
<path d="M407.88 177.904H418.84" stroke="#FC658A" stroke-width="4.02" stroke-miterlimit="10" stroke-linecap="round"/>
<path d="M280.137 163.572L365.421 163.568" stroke="#FC658A" stroke-width="4.02" stroke-miterlimit="10" stroke-linecap="round"/>
<path d="M272.18 149.244L355.386 149.24" stroke="#FC658A" stroke-width="4.02" stroke-miterlimit="10" stroke-linecap="round"/>
<path d="M261.174 134.911L351.174 134.88" stroke="#FC658A" stroke-width="4.02" stroke-miterlimit="10" stroke-linecap="round"/>
<path d="M255.813 120.095L341.789 120.091" stroke="#FC658A" stroke-width="4.02" stroke-miterlimit="10" stroke-linecap="round"/>
<path d="M180.719 105.768L324.306 105.756" stroke="#FC658A" stroke-width="4.02" stroke-miterlimit="10" stroke-linecap="round"/>
<path d="M162.591 90.9575L309.305 90.9536" stroke="#FC658A" stroke-width="4.02" stroke-miterlimit="10" stroke-linecap="round"/>
<path d="M311.03 76.641L163.562 76.6177" stroke="#FC658A" stroke-width="4.02" stroke-miterlimit="10" stroke-linecap="round"/>
<path d="M163.562 61.2905H306.174" stroke="#FC658A" stroke-width="4.02" stroke-miterlimit="10" stroke-linecap="round"/>
<path d="M160 46.9598L326.815 46.9326" stroke="#FC658A" stroke-width="4.02" stroke-miterlimit="10" stroke-linecap="round"/>
<path d="M190.595 32.1445L345.674 32.1406" stroke="#FC658A" stroke-width="4.02" stroke-miterlimit="10" stroke-linecap="round"/>
<path d="M249.519 17.8183L345.673 17.8066" stroke="#FC658A" stroke-width="4.02" stroke-miterlimit="10" stroke-linecap="round"/>
<path d="M228.069 17.8183L231.065 17.8066" stroke="#FC658A" stroke-width="4.02" stroke-miterlimit="10" stroke-linecap="round"/>
<path d="M200.105 17.8183L203.097 17.8066" stroke="#FC658A" stroke-width="4.02" stroke-miterlimit="10" stroke-linecap="round"/>
<path d="M259.553 3.00777L308.07 3" stroke="#FC658A" stroke-width="4.02" stroke-miterlimit="10" stroke-linecap="round"/>
<path d="M84.2711 264V249.4C84.2711 247.587 84.7778 246.173 85.7911 245.16C86.8311 244.12 88.2578 243.6 90.0711 243.6H94.2711V246.76H90.7511C89.8444 246.76 89.1511 247.027 88.6711 247.56C88.1911 248.067 87.9511 248.76 87.9511 249.64V264H84.2711ZM107.352 264.48C105.352 264.48 103.632 264.013 102.192 263.08C100.779 262.12 99.6857 260.84 98.9123 259.24C98.139 257.613 97.7523 255.8 97.7523 253.8C97.7523 251.8 98.179 250 99.0323 248.4C99.8857 246.773 101.112 245.493 102.712 244.56C104.312 243.6 106.232 243.12 108.472 243.12C110.606 243.12 112.446 243.587 113.992 244.52C115.566 245.453 116.766 246.72 117.592 248.32C118.446 249.92 118.872 251.707 118.872 253.68V264H115.152V259.84H115.072C114.672 260.587 114.126 261.32 113.432 262.04C112.739 262.76 111.886 263.347 110.872 263.8C109.886 264.253 108.712 264.48 107.352 264.48ZM108.312 261.32C109.646 261.32 110.819 260.987 111.832 260.32C112.872 259.653 113.672 258.747 114.232 257.6C114.819 256.453 115.112 255.16 115.112 253.72C115.112 252.307 114.832 251.04 114.272 249.92C113.739 248.8 112.966 247.92 111.952 247.28C110.939 246.613 109.752 246.28 108.392 246.28C106.952 246.28 105.712 246.613 104.672 247.28C103.659 247.947 102.872 248.853 102.312 250C101.779 251.147 101.512 252.427 101.512 253.84C101.512 255.227 101.779 256.493 102.312 257.64C102.846 258.76 103.619 259.653 104.632 260.32C105.646 260.987 106.872 261.32 108.312 261.32ZM135.332 264.48C137.305 264.48 139.078 264.053 140.652 263.2C142.225 262.347 143.465 261.12 144.372 259.52C145.305 257.893 145.772 255.947 145.772 253.68V234.8H142.092V247.24H142.012C141.345 246.013 140.358 245.027 139.052 244.28C137.745 243.507 136.305 243.12 134.732 243.12C132.865 243.12 131.172 243.547 129.652 244.4C128.158 245.253 126.972 246.467 126.092 248.04C125.238 249.587 124.812 251.427 124.812 253.56C124.812 255.8 125.252 257.747 126.132 259.4C127.038 261.027 128.278 262.28 129.852 263.16C131.452 264.04 133.278 264.48 135.332 264.48ZM135.332 261.32C134.078 261.32 132.932 261.013 131.892 260.4C130.878 259.787 130.065 258.92 129.452 257.8C128.838 256.68 128.532 255.347 128.532 253.8C128.532 252.307 128.825 251 129.412 249.88C130.025 248.76 130.838 247.88 131.852 247.24C132.892 246.6 134.038 246.28 135.292 246.28C136.545 246.28 137.678 246.587 138.692 247.2C139.732 247.813 140.545 248.693 141.132 249.84C141.745 250.96 142.052 252.293 142.052 253.84C142.052 255.36 141.745 256.68 141.132 257.8C140.545 258.92 139.745 259.787 138.732 260.4C137.718 261.013 136.585 261.32 135.332 261.32ZM152.679 264V243.6H156.399V264H152.679ZM154.559 240.36C153.865 240.36 153.279 240.12 152.799 239.64C152.319 239.133 152.079 238.547 152.079 237.88C152.079 237.213 152.319 236.64 152.799 236.16C153.279 235.653 153.865 235.4 154.559 235.4C155.225 235.4 155.799 235.653 156.279 236.16C156.785 236.64 157.039 237.213 157.039 237.88C157.039 238.547 156.785 239.133 156.279 239.64C155.799 240.12 155.225 240.36 154.559 240.36ZM173.01 264.48C170.93 264.48 169.077 264.013 167.45 263.08C165.85 262.12 164.583 260.84 163.65 259.24C162.743 257.613 162.29 255.8 162.29 253.8C162.29 251.8 162.743 250 163.65 248.4C164.583 246.773 165.85 245.493 167.45 244.56C169.077 243.6 170.93 243.12 173.01 243.12C175.09 243.12 176.93 243.6 178.53 244.56C180.157 245.493 181.423 246.773 182.33 248.4C183.263 250 183.73 251.8 183.73 253.8C183.73 255.8 183.263 257.613 182.33 259.24C181.423 260.84 180.157 262.12 178.53 263.08C176.93 264.013 175.09 264.48 173.01 264.48ZM173.01 261.32C174.423 261.32 175.65 260.987 176.69 260.32C177.73 259.653 178.543 258.76 179.13 257.64C179.717 256.493 180.01 255.213 180.01 253.8C180.01 252.387 179.717 251.12 179.13 250C178.543 248.853 177.73 247.947 176.69 247.28C175.65 246.613 174.423 246.28 173.01 246.28C171.623 246.28 170.397 246.613 169.33 247.28C168.29 247.947 167.477 248.853 166.89 250C166.303 251.12 166.01 252.387 166.01 253.8C166.01 255.213 166.303 256.493 166.89 257.64C167.477 258.76 168.29 259.653 169.33 260.32C170.397 260.987 171.623 261.32 173.01 261.32Z" fill="#FC658A"/>
<path d="M259.296 264V246.76H255.736V243.6H259.296V240.6C259.296 238.787 259.802 237.373 260.816 236.36C261.856 235.32 263.282 234.8 265.096 234.8H270.136V237.96H265.816C264.909 237.96 264.216 238.227 263.736 238.76C263.256 239.267 263.016 239.96 263.016 240.84V243.6H269.336V246.76H263.016V264H259.296ZM282.568 264.48C280.488 264.48 278.634 264.013 277.008 263.08C275.408 262.12 274.141 260.84 273.208 259.24C272.301 257.613 271.848 255.8 271.848 253.8C271.848 251.8 272.301 250 273.208 248.4C274.141 246.773 275.408 245.493 277.008 244.56C278.634 243.6 280.488 243.12 282.568 243.12C284.648 243.12 286.488 243.6 288.088 244.56C289.714 245.493 290.981 246.773 291.888 248.4C292.821 250 293.288 251.8 293.288 253.8C293.288 255.8 292.821 257.613 291.888 259.24C290.981 260.84 289.714 262.12 288.088 263.08C286.488 264.013 284.648 264.48 282.568 264.48ZM282.568 261.32C283.981 261.32 285.208 260.987 286.248 260.32C287.288 259.653 288.101 258.76 288.688 257.64C289.274 256.493 289.568 255.213 289.568 253.8C289.568 252.387 289.274 251.12 288.688 250C288.101 248.853 287.288 247.947 286.248 247.28C285.208 246.613 283.981 246.28 282.568 246.28C281.181 246.28 279.954 246.613 278.888 247.28C277.848 247.947 277.034 248.853 276.448 250C275.861 251.12 275.568 252.387 275.568 253.8C275.568 255.213 275.861 256.493 276.448 257.64C277.034 258.76 277.848 259.653 278.888 260.32C279.954 260.987 281.181 261.32 282.568 261.32ZM299.207 264V252.2C299.207 250.387 299.607 248.8 300.407 247.44C301.233 246.08 302.367 245.027 303.807 244.28C305.247 243.507 306.887 243.12 308.727 243.12C310.593 243.12 312.233 243.507 313.647 244.28C315.087 245.027 316.207 246.08 317.007 247.44C317.833 248.8 318.247 250.387 318.247 252.2V264H314.567V252.24C314.567 251.013 314.287 249.96 313.727 249.08C313.193 248.173 312.473 247.48 311.567 247C310.687 246.52 309.74 246.28 308.727 246.28C307.713 246.28 306.753 246.52 305.847 247C304.967 247.48 304.247 248.173 303.687 249.08C303.153 249.96 302.887 251.013 302.887 252.24V264H299.207ZM325.29 264V243.6H329.01V264H325.29ZM327.17 240.36C326.476 240.36 325.89 240.12 325.41 239.64C324.93 239.133 324.69 238.547 324.69 237.88C324.69 237.213 324.93 236.64 325.41 236.16C325.89 235.653 326.476 235.4 327.17 235.4C327.836 235.4 328.41 235.653 328.89 236.16C329.396 236.64 329.65 237.213 329.65 237.88C329.65 238.547 329.396 239.133 328.89 239.64C328.41 240.12 327.836 240.36 327.17 240.36ZM345.901 264C343.794 264 341.914 263.547 340.261 262.64C338.607 261.733 337.301 260.52 336.341 259C335.381 257.453 334.901 255.72 334.901 253.8C334.901 251.88 335.381 250.16 336.341 248.64C337.301 247.093 338.607 245.867 340.261 244.96C341.914 244.053 343.794 243.6 345.901 243.6H348.301V246.76H345.781C344.421 246.76 343.194 247.08 342.101 247.72C341.034 248.333 340.181 249.173 339.541 250.24C338.927 251.307 338.621 252.493 338.621 253.8C338.621 255.107 338.927 256.293 339.541 257.36C340.181 258.427 341.034 259.28 342.101 259.92C343.194 260.533 344.421 260.84 345.781 260.84H348.301V264H345.901ZM363.305 264.48C361.225 264.48 359.372 264.013 357.745 263.08C356.145 262.12 354.878 260.84 353.945 259.24C353.038 257.613 352.585 255.8 352.585 253.8C352.585 251.8 353.038 250 353.945 248.4C354.878 246.773 356.145 245.493 357.745 244.56C359.372 243.6 361.225 243.12 363.305 243.12C365.385 243.12 367.225 243.6 368.825 244.56C370.452 245.493 371.718 246.773 372.625 248.4C373.558 250 374.025 251.8 374.025 253.8C374.025 255.8 373.558 257.613 372.625 259.24C371.718 260.84 370.452 262.12 368.825 263.08C367.225 264.013 365.385 264.48 363.305 264.48ZM363.305 261.32C364.718 261.32 365.945 260.987 366.985 260.32C368.025 259.653 368.838 258.76 369.425 257.64C370.012 256.493 370.305 255.213 370.305 253.8C370.305 252.387 370.012 251.12 369.425 250C368.838 248.853 368.025 247.947 366.985 247.28C365.945 246.613 364.718 246.28 363.305 246.28C361.918 246.28 360.692 246.613 359.625 247.28C358.585 247.947 357.772 248.853 357.185 250C356.598 251.12 356.305 252.387 356.305 253.8C356.305 255.213 356.598 256.493 357.185 257.64C357.772 258.76 358.585 259.653 359.625 260.32C360.692 260.987 361.918 261.32 363.305 261.32Z" fill="#FC658A"/>
</svg>
