<svg width="40" height="35" viewBox="0 0 40 35" fill="none" xmlns="http://www.w3.org/2000/svg">
<path d="M38.9645 16.644C38.5412 13.7611 33.2583 5.80624 32.5364 4.72247C32.2716 4.05971 31.8013 3.49734 31.1933 3.11632C30.7394 2.50398 28.9062 0.252989 27.095 1.25223C26.5042 1.54812 26.0417 2.04634 25.7935 2.65442C25.5453 3.2625 25.5282 3.93915 25.7453 4.55882C25.6538 4.5772 25.5636 4.60109 25.4751 4.63035C25.395 4.66061 25.321 4.70463 25.2563 4.7604C24.529 5.39549 24.3912 6.63857 24.2326 8.07891C24.1695 8.7723 24.0669 9.4616 23.9252 10.1435C23.8354 10.8385 23.5143 11.4841 23.0127 11.9781C22.5112 12.4721 21.8578 12.7864 21.1558 12.8714C18.7627 13.0578 16.6211 15.0931 14.8415 17.059C13.3103 18.7497 12.5906 18.5763 11.0134 18.2111L10.8865 18.1818C10.857 18.1799 10.8274 18.1799 10.7979 18.1818V16.4272C10.7979 16.2404 10.723 16.0612 10.5897 15.9291C10.4564 15.797 10.2755 15.7228 10.087 15.7228H1.71094C1.52239 15.7228 1.34156 15.797 1.20823 15.9291C1.0749 16.0612 1 16.2404 1 16.4272C1 16.614 1.0749 16.7932 1.20823 16.9253C1.34156 17.0574 1.52239 17.1317 1.71094 17.1317H9.3793V32.4757H1.71094C1.52239 32.4757 1.34156 32.5499 1.20823 32.682C1.0749 32.8141 1 32.9933 1 33.1802C1 33.367 1.0749 33.5462 1.20823 33.6783C1.34156 33.8104 1.52239 33.8846 1.71094 33.8846H10.0902C10.2788 33.8846 10.4596 33.8104 10.593 33.6783C10.7263 33.5462 10.8012 33.367 10.8012 33.1802V31.4754C12.2132 31.574 24.1254 32.3998 25.8109 32.4259C27.0326 32.7348 28.2865 32.901 29.5472 32.9211C30.0463 32.9245 30.5448 32.8843 31.0369 32.8008C33.5077 32.3576 35.0838 29.465 35.2774 27.9531C35.8669 26.7653 39.3899 19.5387 38.9645 16.644ZM27.7851 2.48773C28.1132 2.30674 28.5726 2.52674 29.009 2.87138C28.7028 3.01 28.4387 3.22604 28.2434 3.4978C27.9407 4.10935 27.8328 4.79762 27.9339 5.47135C27.757 5.21677 27.5345 4.99639 27.2776 4.82109C26.9167 3.56716 26.874 2.98843 27.7851 2.48773ZM28.9511 17.6605C28.8045 18.2685 28.752 18.5482 28.7104 18.7747C28.6146 19.2732 28.4867 19.7651 28.3276 20.2475C28.2672 20.45 28.1648 20.6378 28.0269 20.7989C27.8891 20.9599 27.7188 21.0907 27.527 21.1828C26.633 21.56 25.6273 21.584 24.716 21.25C24.6285 21.2218 24.5629 21.1839 24.5541 21.1568C24.4973 20.9975 24.5793 20.5781 25.2924 19.4964L25.3537 19.4032C25.4942 19.1916 25.6499 18.9902 25.8196 18.8007C26.3212 18.2155 26.7907 17.6041 27.2262 16.9691C27.9549 15.9589 28.5035 14.8324 28.8483 13.6387C29.0589 14.9699 29.0935 16.3226 28.9511 17.6627V17.6605ZM30.7831 31.4104C29.2103 31.5721 27.621 31.4461 26.0942 31.0386C26.0325 31.0219 25.9689 31.0135 25.9049 31.0137C25.8937 31.0153 25.8823 31.0153 25.871 31.0137C24.7773 31.0137 15.5744 30.3916 10.8001 30.0589V19.6113C12.4265 19.9907 13.8528 20.2616 15.9003 18.0019C16.8639 16.9387 19.1192 14.4461 21.2685 14.2792C22.2699 14.1648 23.2065 13.7304 23.9366 13.0417C24.6668 12.353 25.1507 11.4475 25.3154 10.4621C25.4705 9.7268 25.5822 8.98316 25.6501 8.23497C25.6787 7.43919 25.8391 6.65346 26.1248 5.9092C26.1821 5.89526 26.2418 5.89297 26.3 5.90247C26.3583 5.91197 26.414 5.93306 26.4639 5.96447C27.0009 6.2896 27.4734 7.65082 27.667 9.43254C27.8678 10.6047 27.829 11.805 27.5528 12.962C27.2766 14.1191 26.7687 15.2093 26.0592 16.1682C25.6498 16.7694 25.208 17.3482 24.7357 17.9022C24.528 18.1365 24.3373 18.3849 24.1648 18.6457L24.1046 18.7367C23.7443 19.2449 23.4551 19.799 23.2449 20.3841C23.1906 20.428 23.1434 20.4799 23.1049 20.538L21.2576 23.6191C21.2098 23.6987 21.1784 23.7868 21.1651 23.8783C21.1517 23.9699 21.1567 24.0632 21.1798 24.1529C21.2028 24.2426 21.2435 24.3269 21.2995 24.401C21.3554 24.4751 21.4255 24.5375 21.5058 24.5848C21.6154 24.6502 21.741 24.6847 21.869 24.6845C21.9923 24.6845 22.1135 24.6527 22.2207 24.5923C22.3279 24.5319 22.4174 24.4449 22.4804 24.3398L23.7021 22.2796C23.8712 22.4154 24.0639 22.5194 24.2709 22.5863C25.5462 23.0457 26.9528 22.9892 28.1865 22.4291C28.546 22.2503 28.8648 22.0006 29.1234 21.6954C29.382 21.3901 29.575 21.0357 29.6904 20.6539C29.8637 20.1249 30.0029 19.5856 30.1072 19.0391C30.1465 18.8223 30.1958 18.5655 30.3336 17.9965C30.6792 16.5648 30.2833 13.5043 29.8633 10.2649C29.5679 7.98896 29.1633 4.85902 29.3973 4.32364C29.4524 4.23747 29.5331 4.17035 29.6283 4.13153C29.7235 4.09271 29.8285 4.0841 29.9289 4.10688C30.2299 4.18088 30.5075 4.32804 30.7366 4.53505C30.9658 4.74206 31.1393 5.0024 31.2414 5.29253L31.3442 5.59707C32.4541 8.67411 33.3082 11.8359 33.8981 15.0508C34.3683 19.0921 34.3756 23.1732 33.92 27.2162C33.8971 27.4394 33.8796 27.6009 33.873 27.6952C33.8106 28.6467 32.5364 31.0993 30.7831 31.4136V31.4104ZM35.6208 23.7752C35.7734 20.8049 35.6709 17.8272 35.3146 14.8742C35.0738 13.2553 34.7181 11.6553 34.2503 10.0861C35.8243 12.711 37.3687 15.5548 37.5579 16.8445C37.758 18.2122 36.7036 21.2034 35.6208 23.7784V23.7752Z" fill="#F0F0F3" stroke="#F0F0F3" stroke-width="0.8"/>
</svg>
