<svg width="54" height="76" viewBox="0 0 54 76" fill="none" xmlns="http://www.w3.org/2000/svg">
<path d="M38.9645 57.644C38.5412 54.7611 33.2583 46.8062 32.5364 45.7225C32.2716 45.0597 31.8013 44.4973 31.1933 44.1163C30.7394 43.504 28.9062 41.253 27.095 42.2522C26.5042 42.5481 26.0417 43.0463 25.7935 43.6544C25.5453 44.2625 25.5282 44.9392 25.7453 45.5588C25.6538 45.5772 25.5636 45.6011 25.4751 45.6303C25.395 45.6606 25.321 45.7046 25.2563 45.7604C24.529 46.3955 24.3912 47.6386 24.2326 49.0789C24.1695 49.7723 24.0669 50.4616 23.9252 51.1435C23.8354 51.8385 23.5143 52.4841 23.0127 52.9781C22.5112 53.4721 21.8578 53.7864 21.1558 53.8714C18.7627 54.0578 16.6211 56.0931 14.8415 58.059C13.3103 59.7497 12.5906 59.5763 11.0134 59.2111L10.8865 59.1818C10.857 59.1799 10.8274 59.1799 10.7979 59.1818V57.4272C10.7979 57.2404 10.723 57.0612 10.5897 56.9291C10.4564 56.797 10.2755 56.7228 10.087 56.7228H1.71094C1.52239 56.7228 1.34156 56.797 1.20823 56.9291C1.0749 57.0612 1 57.2404 1 57.4272C1 57.614 1.0749 57.7932 1.20823 57.9253C1.34156 58.0574 1.52239 58.1317 1.71094 58.1317H9.3793V73.4757H1.71094C1.52239 73.4757 1.34156 73.5499 1.20823 73.682C1.0749 73.8141 1 73.9933 1 74.1802C1 74.367 1.0749 74.5462 1.20823 74.6783C1.34156 74.8104 1.52239 74.8846 1.71094 74.8846H10.0902C10.2788 74.8846 10.4596 74.8104 10.593 74.6783C10.7263 74.5462 10.8012 74.367 10.8012 74.1802V72.4754C12.2132 72.574 24.1254 73.3998 25.8109 73.4259C27.0326 73.7348 28.2865 73.901 29.5472 73.9211C30.0463 73.9245 30.5448 73.8843 31.0369 73.8008C33.5077 73.3576 35.0838 70.465 35.2774 68.9531C35.8669 67.7653 39.3899 60.5387 38.9645 57.644ZM27.7851 43.4877C28.1132 43.3067 28.5726 43.5267 29.009 43.8714C28.7028 44.01 28.4387 44.226 28.2434 44.4978C27.9407 45.1094 27.8328 45.7976 27.9339 46.4714C27.757 46.2168 27.5345 45.9964 27.2776 45.8211C26.9167 44.5672 26.874 43.9884 27.7851 43.4877ZM28.9511 58.6605C28.8045 59.2685 28.752 59.5482 28.7104 59.7747C28.6146 60.2732 28.4867 60.7651 28.3276 61.2475C28.2672 61.45 28.1648 61.6378 28.0269 61.7989C27.8891 61.9599 27.7188 62.0907 27.527 62.1828C26.633 62.56 25.6273 62.584 24.716 62.25C24.6285 62.2218 24.5629 62.1839 24.5541 62.1568C24.4973 61.9975 24.5793 61.5781 25.2924 60.4964L25.3537 60.4032C25.4942 60.1916 25.6499 59.9902 25.8196 59.8007C26.3212 59.2155 26.7907 58.6041 27.2262 57.9691C27.9549 56.9589 28.5035 55.8324 28.8483 54.6387C29.0589 55.9699 29.0935 57.3226 28.9511 58.6627V58.6605ZM30.7831 72.4104C29.2103 72.5721 27.621 72.4461 26.0942 72.0386C26.0325 72.0219 25.9689 72.0135 25.9049 72.0137C25.8937 72.0153 25.8823 72.0153 25.871 72.0137C24.7773 72.0137 15.5744 71.3916 10.8001 71.0589V60.6113C12.4265 60.9907 13.8528 61.2616 15.9003 59.0019C16.8639 57.9387 19.1192 55.4461 21.2685 55.2792C22.2699 55.1648 23.2065 54.7304 23.9366 54.0417C24.6668 53.353 25.1507 52.4475 25.3154 51.4621C25.4705 50.7268 25.5822 49.9832 25.6501 49.235C25.6787 48.4392 25.8391 47.6535 26.1248 46.9092C26.1821 46.8953 26.2418 46.893 26.3 46.9025C26.3583 46.912 26.414 46.9331 26.4639 46.9645C27.0009 47.2896 27.4734 48.6508 27.667 50.4325C27.8678 51.6047 27.829 52.805 27.5528 53.962C27.2766 55.1191 26.7687 56.2093 26.0592 57.1682C25.6498 57.7694 25.208 58.3482 24.7357 58.9022C24.528 59.1365 24.3373 59.3849 24.1648 59.6457L24.1046 59.7367C23.7443 60.2449 23.4551 60.799 23.2449 61.3841C23.1906 61.428 23.1434 61.4799 23.1049 61.538L21.2576 64.6191C21.2098 64.6987 21.1784 64.7868 21.1651 64.8783C21.1517 64.9699 21.1567 65.0632 21.1798 65.1529C21.2028 65.2426 21.2435 65.3269 21.2995 65.401C21.3554 65.4751 21.4255 65.5375 21.5058 65.5848C21.6154 65.6502 21.741 65.6847 21.869 65.6845C21.9923 65.6845 22.1135 65.6527 22.2207 65.5923C22.3279 65.5319 22.4174 65.4449 22.4804 65.3398L23.7021 63.2796C23.8712 63.4154 24.0639 63.5194 24.2709 63.5863C25.5462 64.0457 26.9528 63.9892 28.1865 63.4291C28.546 63.2503 28.8648 63.0006 29.1234 62.6954C29.382 62.3901 29.575 62.0357 29.6904 61.6539C29.8637 61.1249 30.0029 60.5856 30.1072 60.0391C30.1465 59.8223 30.1958 59.5655 30.3336 58.9965C30.6792 57.5648 30.2833 54.5043 29.8633 51.2649C29.5679 48.989 29.1633 45.859 29.3973 45.3236C29.4524 45.2375 29.5331 45.1703 29.6283 45.1315C29.7235 45.0927 29.8285 45.0841 29.9289 45.1069C30.2299 45.1809 30.5075 45.328 30.7366 45.535C30.9658 45.7421 31.1393 46.0024 31.2414 46.2925L31.3442 46.5971C32.4541 49.6741 33.3082 52.8359 33.8981 56.0508C34.3683 60.0921 34.3756 64.1732 33.92 68.2162C33.8971 68.4394 33.8796 68.6009 33.873 68.6952C33.8106 69.6467 32.5364 72.0993 30.7831 72.4136V72.4104ZM35.6208 64.7752C35.7734 61.8049 35.6709 58.8272 35.3146 55.8742C35.0738 54.2553 34.7181 52.6553 34.2503 51.0861C35.8243 53.711 37.3687 56.5548 37.5579 57.8445C37.758 59.2122 36.7036 62.2034 35.6208 64.7784V64.7752Z" fill="#F0F0F3" stroke="#F0F0F3" stroke-width="0.8"/>
</svg>
