<svg width="36" height="33" viewBox="0 0 36 33" fill="none" xmlns="http://www.w3.org/2000/svg">
<path d="M7.20119 5.46499V5.46501L7.20479 27.6308C7.20479 28.5887 6.42689 29.3666 5.46904 29.3666C4.51116 29.3666 3.73329 28.5887 3.73329 27.6308L3.72969 5.46499C3.72969 5.46498 3.72969 5.46498 3.72969 5.46497C3.7297 4.5071 4.5076 3.72924 5.46545 3.72924C6.42332 3.72924 7.20119 4.50714 7.20119 5.46499ZM5.46545 0.9C2.94937 0.9 0.9 2.94937 0.9 5.46545V27.6313C0.9 30.1474 2.94937 32.1967 5.46545 32.1967C7.98153 32.1967 10.0309 30.1474 10.0309 27.6313V5.46545C10.0309 2.94942 7.98517 0.9 5.46545 0.9Z" fill="#F0F0F3" stroke="#F0F0F3" stroke-width="0.2"/>
<path d="M35.0047 2.3408L35.0052 2.33837L34.9399 2.30382C34.4801 2.06041 33.9199 2.08731 33.4867 2.37736L33.4865 2.37748L14.1734 15.3678L14.1734 15.3678C13.7832 15.6305 13.5473 16.071 13.5473 16.5393C13.5473 17.0107 13.7829 17.4516 14.1737 17.7109C14.1738 17.711 14.1739 17.7111 14.174 17.7111L33.4865 30.7011L33.4865 30.7011C33.7226 30.8598 34.0007 30.9409 34.2752 30.9409C34.503 30.9409 34.7313 30.8868 34.9404 30.7745L34.9404 30.7745C35.3999 30.5273 35.69 30.0483 35.69 29.526V3.55277C35.69 3.05558 35.4303 2.59693 35.0047 2.3408ZM32.8639 6.21265V26.881L17.4977 16.5468L32.8639 6.21265Z" fill="#F0F0F3" stroke="#F0F0F3" stroke-width="0.2"/>
</svg>
