<svg width="36" height="33" viewBox="0 0 36 33" fill="none" xmlns="http://www.w3.org/2000/svg">
<path d="M31.1265 0.9C28.61 0.9 26.5602 2.94974 26.5602 5.46627V27.6362C26.5602 30.1527 28.61 32.2024 31.1265 32.2024C33.643 32.2024 35.6928 30.1527 35.6928 27.6362V5.46627C35.6928 2.94974 33.643 0.9 31.1265 0.9Z" fill="#F0F0F3" stroke="#F0F0F3" stroke-width="0.2"/>
<path d="M3.04808 30.6334C2.82531 30.7807 2.57019 30.8562 2.31508 30.8562C2.10309 30.8562 1.89109 30.8059 1.69706 30.7017L3.04808 30.6334ZM3.04808 30.6334L22.3647 17.637L3.04808 30.6334ZM22.4205 15.3732L22.4205 15.3731L3.10393 2.38044L3.10393 2.38044C2.6672 2.0867 2.11009 2.0595 1.6497 2.30707L1.6497 2.30707C1.19012 2.55424 0.9 3.03337 0.9 3.5557V29.5411C0.9 30.0634 1.19012 30.5426 1.6497 30.7897L1.64975 30.7898C1.85887 30.9021 2.0872 30.9562 2.31508 30.9562C2.58994 30.9562 2.86422 30.8749 3.10324 30.7168L3.10391 30.7164L22.4205 17.72L22.4205 17.72C22.8112 17.4569 23.0432 17.0161 23.0432 16.5483C23.0432 16.0771 22.8114 15.6363 22.4205 15.3732Z" fill="#F0F0F3" stroke="#F0F0F3" stroke-width="0.2"/>
</svg>
