<svg width="85" height="85" viewBox="0 0 85 85" fill="none" xmlns="http://www.w3.org/2000/svg">
<path d="M42.5 0C19.0654 0 0 19.0654 0 42.5C0 65.9346 19.0654 85 42.5 85C65.9346 85 85 65.9346 85 42.5C85 19.0654 65.9346 0 42.5 0ZM42.5 82.4242C20.4853 82.4242 2.57576 64.514 2.57576 42.5C2.57576 20.486 20.4853 2.57576 42.5 2.57576C64.5147 2.57576 82.4242 20.486 82.4242 42.5C82.4242 64.514 64.5147 82.4242 42.5 82.4242Z" fill="#393A32"/>
<path d="M42.5 8.707C23.866 8.707 8.70703 23.8666 8.70703 42.5C8.70703 61.1334 23.866 76.293 42.5 76.293C61.134 76.293 76.293 61.1334 76.293 42.5C76.293 23.8666 61.134 8.707 42.5 8.707ZM42.5 73.7172C25.2872 73.7172 11.2828 59.7134 11.2828 42.5C11.2828 25.2866 25.2872 11.2828 42.5 11.2828C59.7128 11.2828 73.7172 25.2866 73.7172 42.5C73.7172 59.7134 59.7128 73.7172 42.5 73.7172Z" fill="#393A32"/>
<path d="M56.8605 41.4136L34.6723 27.3299C34.2748 27.0777 33.773 27.0633 33.3617 27.2884C32.9492 27.5148 32.6939 27.9474 32.6939 28.4172V56.5845C32.6939 57.0542 32.9492 57.4869 33.3617 57.7133C33.5554 57.8195 33.768 57.8724 33.9818 57.8724C34.222 57.8724 34.4622 57.8051 34.6723 57.6718L56.8605 43.5881C57.2328 43.3517 57.4579 42.9417 57.4579 42.5008C57.4579 42.06 57.2328 41.65 56.8605 41.4136ZM35.2697 54.2414V30.7603L53.7666 42.5008L35.2697 54.2414Z" fill="#393A32"/>
</svg>
