<svg width="56" height="84" viewBox="0 0 56 84" fill="none" xmlns="http://www.w3.org/2000/svg">
<path d="M38.9645 65.644C38.5412 62.7611 33.2583 54.8062 32.5364 53.7225C32.2716 53.0597 31.8013 52.4973 31.1933 52.1163C30.7394 51.504 28.9062 49.253 27.095 50.2522C26.5042 50.5481 26.0417 51.0463 25.7935 51.6544C25.5453 52.2625 25.5282 52.9392 25.7453 53.5588C25.6538 53.5772 25.5636 53.6011 25.4751 53.6303C25.395 53.6606 25.321 53.7046 25.2563 53.7604C24.529 54.3955 24.3912 55.6386 24.2326 57.0789C24.1695 57.7723 24.0669 58.4616 23.9252 59.1435C23.8354 59.8385 23.5143 60.4841 23.0127 60.9781C22.5112 61.4721 21.8578 61.7864 21.1558 61.8714C18.7627 62.0578 16.6211 64.0931 14.8415 66.059C13.3103 67.7497 12.5906 67.5763 11.0134 67.2111L10.8865 67.1818C10.857 67.1799 10.8274 67.1799 10.7979 67.1818V65.4272C10.7979 65.2404 10.723 65.0612 10.5897 64.9291C10.4564 64.797 10.2755 64.7228 10.087 64.7228H1.71094C1.52239 64.7228 1.34156 64.797 1.20823 64.9291C1.0749 65.0612 1 65.2404 1 65.4272C1 65.614 1.0749 65.7932 1.20823 65.9253C1.34156 66.0574 1.52239 66.1317 1.71094 66.1317H9.3793V81.4757H1.71094C1.52239 81.4757 1.34156 81.5499 1.20823 81.682C1.0749 81.8141 1 81.9933 1 82.1802C1 82.367 1.0749 82.5462 1.20823 82.6783C1.34156 82.8104 1.52239 82.8846 1.71094 82.8846H10.0902C10.2788 82.8846 10.4596 82.8104 10.593 82.6783C10.7263 82.5462 10.8012 82.367 10.8012 82.1802V80.4754C12.2132 80.574 24.1254 81.3998 25.8109 81.4259C27.0326 81.7348 28.2865 81.901 29.5472 81.9211C30.0463 81.9245 30.5448 81.8843 31.0369 81.8008C33.5077 81.3576 35.0838 78.465 35.2774 76.9531C35.8669 75.7653 39.3899 68.5387 38.9645 65.644ZM27.7851 51.4877C28.1132 51.3067 28.5726 51.5267 29.009 51.8714C28.7028 52.01 28.4387 52.226 28.2434 52.4978C27.9407 53.1094 27.8328 53.7976 27.9339 54.4714C27.757 54.2168 27.5345 53.9964 27.2776 53.8211C26.9167 52.5672 26.874 51.9884 27.7851 51.4877ZM28.9511 66.6605C28.8045 67.2685 28.752 67.5482 28.7104 67.7747C28.6146 68.2732 28.4867 68.7651 28.3276 69.2475C28.2672 69.45 28.1648 69.6378 28.0269 69.7989C27.8891 69.9599 27.7188 70.0907 27.527 70.1828C26.633 70.56 25.6273 70.584 24.716 70.25C24.6285 70.2218 24.5629 70.1839 24.5541 70.1568C24.4973 69.9975 24.5793 69.5781 25.2924 68.4964L25.3537 68.4032C25.4942 68.1916 25.6499 67.9902 25.8196 67.8007C26.3212 67.2155 26.7907 66.6041 27.2262 65.9691C27.9549 64.9589 28.5035 63.8324 28.8483 62.6387C29.0589 63.9699 29.0935 65.3226 28.9511 66.6627V66.6605ZM30.7831 80.4104C29.2103 80.5721 27.621 80.4461 26.0942 80.0386C26.0325 80.0219 25.9689 80.0135 25.9049 80.0137C25.8937 80.0153 25.8823 80.0153 25.871 80.0137C24.7773 80.0137 15.5744 79.3916 10.8001 79.0589V68.6113C12.4265 68.9907 13.8528 69.2616 15.9003 67.0019C16.8639 65.9387 19.1192 63.4461 21.2685 63.2792C22.2699 63.1648 23.2065 62.7304 23.9366 62.0417C24.6668 61.353 25.1507 60.4475 25.3154 59.4621C25.4705 58.7268 25.5822 57.9832 25.6501 57.235C25.6787 56.4392 25.8391 55.6535 26.1248 54.9092C26.1821 54.8953 26.2418 54.893 26.3 54.9025C26.3583 54.912 26.414 54.9331 26.4639 54.9645C27.0009 55.2896 27.4734 56.6508 27.667 58.4325C27.8678 59.6047 27.829 60.805 27.5528 61.962C27.2766 63.1191 26.7687 64.2093 26.0592 65.1682C25.6498 65.7694 25.208 66.3482 24.7357 66.9022C24.528 67.1365 24.3373 67.3849 24.1648 67.6457L24.1046 67.7367C23.7443 68.2449 23.4551 68.799 23.2449 69.3841C23.1906 69.428 23.1434 69.4799 23.1049 69.538L21.2576 72.6191C21.2098 72.6987 21.1784 72.7868 21.1651 72.8783C21.1517 72.9699 21.1567 73.0632 21.1798 73.1529C21.2028 73.2426 21.2435 73.3269 21.2995 73.401C21.3554 73.4751 21.4255 73.5375 21.5058 73.5848C21.6154 73.6502 21.741 73.6847 21.869 73.6845C21.9923 73.6845 22.1135 73.6527 22.2207 73.5923C22.3279 73.5319 22.4174 73.4449 22.4804 73.3398L23.7021 71.2796C23.8712 71.4154 24.0639 71.5194 24.2709 71.5863C25.5462 72.0457 26.9528 71.9892 28.1865 71.4291C28.546 71.2503 28.8648 71.0006 29.1234 70.6954C29.382 70.3901 29.575 70.0357 29.6904 69.6539C29.8637 69.1249 30.0029 68.5856 30.1072 68.0391C30.1465 67.8223 30.1958 67.5655 30.3336 66.9965C30.6792 65.5648 30.2833 62.5043 29.8633 59.2649C29.5679 56.989 29.1633 53.859 29.3973 53.3236C29.4524 53.2375 29.5331 53.1703 29.6283 53.1315C29.7235 53.0927 29.8285 53.0841 29.9289 53.1069C30.2299 53.1809 30.5075 53.328 30.7366 53.535C30.9658 53.7421 31.1393 54.0024 31.2414 54.2925L31.3442 54.5971C32.4541 57.6741 33.3082 60.8359 33.8981 64.0508C34.3683 68.0921 34.3756 72.1732 33.92 76.2162C33.8971 76.4394 33.8796 76.6009 33.873 76.6952C33.8106 77.6467 32.5364 80.0993 30.7831 80.4136V80.4104ZM35.6208 72.7752C35.7734 69.8049 35.6709 66.8272 35.3146 63.8742C35.0738 62.2553 34.7181 60.6553 34.2503 59.0861C35.8243 61.711 37.3687 64.5548 37.5579 65.8445C37.758 67.2122 36.7036 70.2034 35.6208 72.7784V72.7752Z" fill="#F0F0F3" stroke="#F0F0F3" stroke-width="0.8"/>
<path d="M45.6936 11.0103C43.3636 10.3152 41.1558 10.6717 38.9533 12.0973C37.5209 13.0258 36.3266 14.3053 35.0818 16.2441C34.683 16.8651 33.9606 17.2002 33.2282 17.1034C32.5187 17.0012 31.8867 16.4961 31.6626 15.7921L31.4356 15.0844C31.289 14.6282 31.1691 14.2561 31.059 13.8811C30.6644 12.5447 30.0125 11.1667 29.0072 9.54691C28.385 8.54404 27.4791 8.14706 26.7303 8.00069C26.3047 7.91751 25.9298 7.91556 25.6864 7.9286C24.1615 8.01252 22.8443 8.83959 22.2486 10.087C21.6638 11.3116 21.3709 12.7007 21.3524 14.334C21.3271 16.5634 21.9769 18.7426 22.6829 20.7648C24.3277 25.4779 26.8624 30.1755 30.4213 35.1006C32.0377 33.1235 33.9951 31.3173 36.3897 29.5941C37.2148 28.9993 38.054 28.422 38.8942 27.8452C39.8147 27.2124 40.7352 26.5801 41.6365 25.9221C44.1081 24.1189 45.9567 22.2307 47.2858 20.1483C48.5098 18.2304 48.8684 16.238 48.3816 14.0578C48.0197 12.4386 47.1407 11.4418 45.6936 11.0103Z" fill="#FC658A" stroke="#F0F0F3" stroke-width="2"/>
<path d="M52.0993 13.2274C51.4385 10.269 49.55 8.18495 46.7823 7.35946C43.362 6.34379 40.0318 6.85941 36.8817 8.90014C35.8903 9.54283 34.9972 10.2907 34.1505 11.2006C33.6796 10.0419 33.0561 8.84698 32.2441 7.53796C30.821 5.24607 28.2905 3.97087 25.4761 4.12448C22.5601 4.28479 20.0055 5.94104 18.8095 8.44533C17.9815 10.1799 17.5665 12.0923 17.5416 14.2914C17.5101 17.1081 18.2649 19.6707 19.0851 22.0203C20.9457 27.3529 23.8415 32.6319 27.9382 38.1603C28.5497 38.9851 29.2625 39.2956 29.8109 39.4028C29.8831 39.4169 29.9523 39.4273 30.0184 39.4358C30.5879 39.5024 31.4539 39.4244 32.3472 38.6753C32.6607 38.4137 32.8814 38.1299 33.0422 37.9232L33.1029 37.8463C34.5558 35.9981 36.3594 34.3099 38.6158 32.685C39.4188 32.1065 40.2353 31.5457 41.0514 30.9848C42.0016 30.3321 42.9519 29.679 43.882 28.9994C46.7434 26.9125 48.9079 24.6875 50.4969 22.1982C52.2694 19.4223 52.8087 16.4037 52.0993 13.2274ZM47.2853 20.1487C45.9562 22.2312 44.1078 24.1198 41.6359 25.9225C40.7347 26.5805 39.8143 27.2125 38.8937 27.8456C38.0538 28.4225 37.2146 28.9998 36.3891 29.5945C33.9946 31.3177 32.0367 33.1242 30.4207 35.1011C26.8619 30.1759 24.3272 25.4783 22.6823 20.7652C21.9764 18.7431 21.3265 16.5643 21.3518 14.3344C21.3699 12.701 21.6632 11.3121 22.2481 10.0875C22.8438 8.84002 24.1609 8.01294 25.6858 7.92902C25.9297 7.91606 26.3045 7.91801 26.7297 8.00111C27.4785 8.14748 28.3844 8.54446 29.0066 9.54734C30.0115 11.1671 30.6635 12.5447 31.0584 13.8815C31.1686 14.2565 31.2884 14.6286 31.435 15.0848L31.662 15.7925C31.8861 16.4969 32.5181 17.0016 33.2277 17.1038C33.96 17.2006 34.6825 16.8655 35.0813 16.2445C36.326 14.3057 37.5203 13.0263 38.9528 12.0977C41.1552 10.6722 43.3631 10.3156 45.693 11.0107C47.1402 11.4422 48.0192 12.439 48.3806 14.0582C48.8678 16.2384 48.5093 18.2308 47.2853 20.1487Z" fill="#FC658A" stroke="#F0F0F3" stroke-width="2"/>
</svg>
