<svg width="227" height="254" viewBox="0 0 227 254" fill="none" xmlns="http://www.w3.org/2000/svg">
<path d="M174.203 213.141L188.575 213.133" stroke="#FC658A" stroke-width="2.02" stroke-miterlimit="10" stroke-linecap="round"/>
<path d="M181.817 203.174H189.239" stroke="#FC658A" stroke-width="2.02" stroke-miterlimit="10" stroke-linecap="round"/>
<path d="M37.1455 203.174H39.6096" stroke="#FC658A" stroke-width="2.02" stroke-miterlimit="10" stroke-linecap="round"/>
<path d="M178.011 193.218L199.136 193.207" stroke="#FC658A" stroke-width="2.02" stroke-miterlimit="10" stroke-linecap="round"/>
<path d="M32.3708 193.218L41.9224 193.207" stroke="#FC658A" stroke-width="2.02" stroke-miterlimit="10" stroke-linecap="round"/>
<path d="M51.8169 193.218L53.1664 193.207" stroke="#FC658A" stroke-width="2.02" stroke-miterlimit="10" stroke-linecap="round"/>
<path d="M175.969 183.259L193.32 183.251" stroke="#FC658A" stroke-width="2.02" stroke-miterlimit="10" stroke-linecap="round"/>
<path d="M32.1877 183.259L55.0964 183.251" stroke="#FC658A" stroke-width="2.02" stroke-miterlimit="10" stroke-linecap="round"/>
<path d="M217.578 173.308L225 173.297" stroke="#FC658A" stroke-width="2.02" stroke-miterlimit="10" stroke-linecap="round"/>
<path d="M173.496 173.308L189.239 173.297" stroke="#FC658A" stroke-width="2.02" stroke-miterlimit="10" stroke-linecap="round"/>
<path d="M30.7732 173.308L56.316 173.297" stroke="#FC658A" stroke-width="2.02" stroke-miterlimit="10" stroke-linecap="round"/>
<path d="M148.531 252.963H157.977" stroke="#FC658A" stroke-width="2.02" stroke-miterlimit="10" stroke-linecap="round"/>
<path d="M135.711 243.007L159.55 242.996" stroke="#FC658A" stroke-width="2.02" stroke-miterlimit="10" stroke-linecap="round"/>
<path d="M115.018 233.049L160.676 233.041" stroke="#FC658A" stroke-width="2.02" stroke-miterlimit="10" stroke-linecap="round"/>
<path d="M172.371 223.097L180.244 223.086" stroke="#FC658A" stroke-width="2.02" stroke-miterlimit="10" stroke-linecap="round"/>
<path d="M110.557 223.097L163.823 223.086" stroke="#FC658A" stroke-width="2.02" stroke-miterlimit="10" stroke-linecap="round"/>
<path d="M202.059 163.337L221.176 163.332" stroke="#FC658A" stroke-width="2.02" stroke-miterlimit="10" stroke-linecap="round"/>
<path d="M157.977 163.337L193.32 163.332" stroke="#FC658A" stroke-width="2.02" stroke-miterlimit="10" stroke-linecap="round"/>
<path d="M30.7732 163.337L55.0961 163.332" stroke="#FC658A" stroke-width="2.02" stroke-miterlimit="10" stroke-linecap="round"/>
<path d="M146.056 153.389L206.782 153.378" stroke="#FC658A" stroke-width="2.02" stroke-miterlimit="10" stroke-linecap="round"/>
<path d="M26.6277 153.389L55.0961 153.378" stroke="#FC658A" stroke-width="2.02" stroke-miterlimit="10" stroke-linecap="round"/>
<path d="M134.81 143.43L190.138 143.424" stroke="#FC658A" stroke-width="2.02" stroke-miterlimit="10" stroke-linecap="round"/>
<path d="M45.0698 143.429H51.8172" stroke="#FC658A" stroke-width="2.02" stroke-miterlimit="10" stroke-linecap="round"/>
<path d="M110.557 133.462H175.968" stroke="#FC658A" stroke-width="2.02" stroke-miterlimit="10" stroke-linecap="round"/>
<path d="M100.625 123.506H157.977" stroke="#FC658A" stroke-width="2.02" stroke-miterlimit="10" stroke-linecap="round"/>
<path d="M174.203 123.506H181.817" stroke="#FC658A" stroke-width="2.02" stroke-miterlimit="10" stroke-linecap="round"/>
<path d="M85.4595 113.55L144.707 113.547" stroke="#FC658A" stroke-width="2.02" stroke-miterlimit="10" stroke-linecap="round"/>
<path d="M79.9321 103.596L137.735 103.594" stroke="#FC658A" stroke-width="2.02" stroke-miterlimit="10" stroke-linecap="round"/>
<path d="M72.2859 93.6393L134.81 93.6177" stroke="#FC658A" stroke-width="2.02" stroke-miterlimit="10" stroke-linecap="round"/>
<path d="M68.5615 83.3464L128.289 83.3438" stroke="#FC658A" stroke-width="2.02" stroke-miterlimit="10" stroke-linecap="round"/>
<path d="M16.3936 73.3934L116.144 73.3853" stroke="#FC658A" stroke-width="2.02" stroke-miterlimit="10" stroke-linecap="round"/>
<path d="M3.80005 63.1043L105.723 63.1016" stroke="#FC658A" stroke-width="2.02" stroke-miterlimit="10" stroke-linecap="round"/>
<path d="M106.921 53.1588L4.47485 53.1426" stroke="#FC658A" stroke-width="2.02" stroke-miterlimit="10" stroke-linecap="round"/>
<path d="M4.47485 42.4946H103.548" stroke="#FC658A" stroke-width="2.02" stroke-miterlimit="10" stroke-linecap="round"/>
<path d="M2 32.5389L117.887 32.52" stroke="#FC658A" stroke-width="2.02" stroke-miterlimit="10" stroke-linecap="round"/>
<path d="M23.2544 22.2468L130.988 22.2441" stroke="#FC658A" stroke-width="2.02" stroke-miterlimit="10" stroke-linecap="round"/>
<path d="M64.189 12.2942L130.988 12.2861" stroke="#FC658A" stroke-width="2.02" stroke-miterlimit="10" stroke-linecap="round"/>
<path d="M49.2881 12.2942L51.369 12.2861" stroke="#FC658A" stroke-width="2.02" stroke-miterlimit="10" stroke-linecap="round"/>
<path d="M29.8613 12.2942L31.9395 12.2861" stroke="#FC658A" stroke-width="2.02" stroke-miterlimit="10" stroke-linecap="round"/>
<path d="M71.1602 2.0054L104.865 2" stroke="#FC658A" stroke-width="2.02" stroke-miterlimit="10" stroke-linecap="round"/>
</svg>
