<svg width="41" height="41" viewBox="0 0 41 41" fill="none" xmlns="http://www.w3.org/2000/svg">
<path d="M22.0604 6.75888H15.1144C7.46467 6.75888 1.25 12.9735 1.25 20.6233C1.25 24.3156 2.68496 27.7956 5.293 30.4036C5.77793 30.8885 6.42841 31.1166 7.05666 31.1166C7.6849 31.1166 8.33538 30.8885 8.82032 30.4036L8.82835 30.3956L8.83614 30.3873C9.75716 29.4087 9.77954 27.8355 8.82032 26.8763L8.82035 26.8763L8.81433 26.8704C7.11355 25.2074 6.20333 22.9773 6.20333 20.5822C6.20333 15.654 10.2232 11.6711 15.1144 11.6711H22.0193L20.7507 12.9396L20.7427 12.9477L20.7349 12.956C19.8139 13.9345 19.7915 15.5078 20.7507 16.467C21.2357 16.9519 21.8862 17.18 22.5144 17.18C23.1427 17.18 23.7931 16.9519 24.2781 16.467L29.7869 10.9581C30.0303 10.7147 30.2675 10.3597 30.3889 9.93492L30.4177 9.83392V9.82779C30.4205 9.8186 30.4233 9.80888 30.426 9.79902C30.4282 9.79085 30.4307 9.78129 30.4333 9.77054C30.4724 9.65488 30.4856 9.55068 30.4917 9.4833C30.5 9.39194 30.5 9.30018 30.5 9.24489L30.5 9.23554V9.23482V9.2341V9.23337V9.23265V9.23193V9.23121V9.23048V9.22976V9.22904V9.22832V9.22759V9.22687V9.22615V9.22542V9.2247V9.22398V9.22326V9.22253V9.22181V9.22109V9.22037V9.21964V9.21892V9.2182V9.21748V9.21675V9.21603V9.21531V9.21459V9.21386V9.21314V9.21242V9.21169V9.21097V9.21025V9.20953V9.2088V9.20808V9.20736V9.20664V9.20591V9.20519V9.20447V9.20375V9.20302V9.2023V9.20158V9.20085V9.20013V9.19941V9.19869V9.19796V9.19724V9.19652V9.1958V9.19507V9.19435V9.19363V9.19291V9.19218V9.19146V9.19074V9.19001V9.18929V9.18857V9.18785V9.18712V9.1864V9.18568V9.18496V9.18423V9.18351V9.18279V9.18207V9.18134V9.18062V9.1799V9.17917V9.17845V9.17773V9.17701V9.17628V9.17556V9.17484V9.17412V9.17339V9.17267V9.17195V9.17123V9.1705V9.16978V9.16906V9.16834V9.16761V9.16689V9.16617V9.16544V9.16472V9.164V9.16328V9.16255V9.16183V9.16111V9.16039V9.15966V9.15894V9.15822V9.1575V9.15677V9.15605V9.15533V9.1546V9.15388V9.15316V9.15244V9.15171V9.15099V9.15027V9.14955V9.14882V9.1481V9.14738V9.14666V9.14593V9.14521V9.14449V9.14376V9.14304V9.14232V9.1416V9.14087V9.14015V9.13943V9.13871V9.13798V9.13726V9.13654V9.13582V9.13509V9.13437V9.13365V9.13293V9.1322V9.13148V9.13076V9.13003V9.12931V9.12859V9.12787V9.12714V9.12642V9.1257V9.12498V9.12425V9.12353V9.12281V9.12209V9.12136V9.12064V9.11992V9.11919V9.11847V9.11775V9.11703V9.1163V9.11558V9.11486V9.11414V9.11341V9.11269V9.11197V9.11125V9.11052V9.1098V9.10908V9.10835V9.10763V9.10691V9.10619V9.10546V9.10474V9.10402V9.1033V9.10257V9.10185V9.10113V9.10041V9.09968V9.09896V9.09824V9.09752V9.09679V9.09607V9.09535V9.09462V9.0939V9.09318V9.09246V9.09173V9.09101V9.09029V9.08957V9.08884V9.08812V9.0874V9.08668V9.08595V9.08523V9.08451V9.08378V9.08306V9.08234V9.08162V9.08089V9.08017V9.07945V9.07873V9.078V9.07728V9.07656V9.07584V9.07511V9.07439V9.07367V9.07294V9.07222V9.0715V9.07078V9.07005V9.06933V9.06861V9.06789V9.06716V9.06644V9.06572V9.065V9.06427V9.06355V9.06283V9.0621V9.06138V9.06066V9.05994V9.05921V9.05849V9.05777V9.05705V9.05632V9.0556V9.05488V9.05416V9.05343V9.05271V9.05199V9.05126V9.05054V9.04982V9.0491V9.04837V9.04765V9.04693V9.04621V9.04548V9.04476V9.04404V9.04332V9.04259V9.04187V9.04115V9.04042V9.0397V9.03898V9.03826V9.03753V9.03681V9.03609V9.03537V9.03464V9.03392V9.0332V9.03248V9.03175V9.03103V9.03031V9.02959V9.02886V9.02814V9.02742V9.02669V9.02597V9.02525V9.02453V9.0238V9.02308V9.02236V9.02164V9.02091V9.02019V9.01947V9.01875V9.01802V9.0173V9.01658V9.01585V9.01513V9.01441V9.01369V9.01296V9.01224V9.01152V9.0108V9.01007V9.00935V9.00863V9.00791V9.00718V9.00646V9.00574V9.00501V9.00429V9.00357V9.00285V9.00212V9.0014V9.00068V8.99996V8.99923V8.99851V8.99779V8.99707V8.99634V8.99562V8.9949V8.99417V8.99345V8.99273V8.99201V8.99128V8.99056V8.98984V8.98912V8.98839V8.98767V8.98695V8.98623V8.9855V8.98478V8.98406V8.98334V8.98261V8.98189V8.98117V8.98044V8.97972V8.979V8.97828V8.97755V8.97683V8.97611V8.97539V8.97466V8.97394V8.97322V8.9725V8.97177V8.97105V8.97033V8.9696V8.96888V8.96816V8.96744V8.96671V8.96599V8.96527V8.96455V8.96382V8.9631V8.96238V8.96166V8.96093V8.96021V8.95949V8.95877V8.95804V8.95732V8.9566V8.95587V8.95515V8.95443V8.95371V8.95298V8.95226V8.95154V8.95082V8.95009V8.94937V8.94865V8.94793V8.9472V8.94648V8.94576V8.94503V8.94431V8.94359V8.94287V8.94214V8.94142V8.9407V8.93998V8.93925V8.93853V8.93781V8.93709V8.93636V8.93564V8.93492V8.93419V8.93347V8.93275V8.93203V8.9313V8.93058V8.92986V8.92914V8.92841V8.92769V8.92697V8.92625V8.92552V8.9248V8.92408V8.92335V8.92263V8.92191V8.92119V8.92046V8.91974V8.91902V8.9183V8.91757V8.91685V8.91613V8.91541V8.91468V8.91396V8.91324V8.91251V8.91179V8.91107V8.91035V8.90962V8.9089V8.90818V8.90746V8.90673V8.90601V8.90529V8.90457V8.90384V8.90312V8.9024V8.90168V8.90095V8.90023V8.89951V8.89878V8.89806V8.89734V8.89662V8.89589V8.89517V8.89445V8.89373V8.893V8.89228V8.89156V8.89084V8.89011V8.88939V8.88867V8.88794V8.88722V8.8865V8.88578V8.88505V8.88433V8.88361V8.88289V8.88216V8.88144V8.88072V8.88V8.87927V8.87855V8.87783V8.8771V8.87638V8.87566V8.87494V8.87421V8.87349V8.87277V8.87205V8.87132V8.8706V8.86988V8.86916V8.86843V8.86771V8.86699V8.86626V8.86554C30.5 8.80159 30.4923 8.74896 30.4864 8.71586C30.4801 8.68102 30.4727 8.65155 30.4671 8.63095C30.4644 8.6211 30.4616 8.61137 30.4588 8.60218V8.57939L30.4204 8.46393C30.3151 8.14809 30.142 7.78583 29.8281 7.47188L24.3192 1.963L24.3111 1.95497L24.3029 1.94718C23.3243 1.02616 21.7511 1.00378 20.7919 1.963L20.7838 1.97104L20.776 1.97931C19.855 2.9579 19.8326 4.5311 20.7919 5.49032L22.0604 6.75888Z" fill="#FC658A" stroke="white" stroke-width="1.5"/>
<path d="M16.6768 39.4028L16.6943 39.4205L16.7128 39.437C17.2061 39.8754 17.7906 40.1198 18.4444 40.1198C19.0727 40.1198 19.7232 39.8917 20.2081 39.4068C21.1878 38.4271 21.2144 36.8356 20.2007 35.8721L18.9395 34.6109H25.8855C33.5353 34.6109 39.75 28.3962 39.75 20.7465C39.75 17.0161 38.3171 13.5352 35.7481 10.9662L35.74 10.9581L35.7318 10.9504C34.7532 10.0293 33.18 10.007 32.2207 10.9662C31.229 11.958 31.229 13.5017 32.2207 14.4935L32.2207 14.4935L32.2267 14.4994C33.9275 16.1624 34.8377 18.3925 34.8377 20.7876C34.8377 25.7157 30.8178 29.6987 25.9266 29.6987H18.9806L20.2492 28.4301C21.2318 27.4476 21.2556 25.8496 20.2329 24.887C19.2543 23.966 17.6811 23.9436 16.7219 24.9028L11.213 30.4117C10.9697 30.655 10.7324 31.0101 10.6111 31.4349L10.5822 31.5359V31.542C10.5795 31.5512 10.5766 31.5609 10.574 31.5708C10.5717 31.5789 10.5692 31.5885 10.5666 31.5993C10.5275 31.7149 10.5143 31.8191 10.5082 31.8865C10.4999 31.9778 10.5 32.0696 10.5 32.1249L10.5 32.1342L10.5 32.1471C10.4999 32.2638 10.4998 32.4245 10.5579 32.6299C10.5634 32.6573 10.5693 32.6806 10.574 32.6977C10.5766 32.7076 10.5795 32.7173 10.5822 32.7265V32.7493L10.6207 32.8647C10.7257 33.1798 10.8982 33.5411 11.2107 33.8545C11.2115 33.8553 11.2122 33.856 11.213 33.8568L16.6768 39.4028Z" fill="#FC658A" stroke="white" stroke-width="1.5"/>
</svg>
