<svg width="151" height="238" viewBox="0 0 151 238" fill="none" xmlns="http://www.w3.org/2000/svg">
<path d="M108.409 186.177C107.211 177.744 92.2651 154.473 90.2228 151.303C89.4735 149.364 88.1429 147.719 86.4228 146.604C85.1386 144.813 79.9522 138.228 74.8278 141.151C73.1563 142.017 71.8481 143.474 71.1458 145.253C70.4436 147.032 70.3951 149.011 71.0092 150.824C70.7506 150.878 70.4953 150.948 70.2449 151.033C70.0184 151.122 69.8089 151.251 69.626 151.414C67.5682 153.272 67.1783 156.908 66.7296 161.121C66.5512 163.15 66.2609 165.166 65.86 167.161C65.6058 169.194 64.6974 171.083 63.2784 172.528C61.8595 173.973 60.0109 174.892 58.0249 175.141C51.2542 175.686 45.1952 181.64 40.1605 187.391C35.8282 192.337 33.7921 191.829 29.3299 190.761L28.9709 190.675C28.8874 190.67 28.8037 190.67 28.7202 190.675V185.543C28.7202 184.996 28.5083 184.472 28.1311 184.085C27.7539 183.699 27.2423 183.482 26.7088 183.482H3.0114C2.47795 183.482 1.96634 183.699 1.58913 184.085C1.21192 184.472 1 184.996 1 185.543C1 186.089 1.21192 186.613 1.58913 187C1.96634 187.386 2.47795 187.603 3.0114 187.603H24.7067V232.489H3.0114C2.47795 232.489 1.96634 232.706 1.58913 233.093C1.21192 233.479 1 234.003 1 234.55C1 235.096 1.21192 235.62 1.58913 236.007C1.96634 236.393 2.47795 236.61 3.0114 236.61H26.7181C27.2516 236.61 27.7632 236.393 28.1404 236.007C28.5176 235.62 28.7295 235.096 28.7295 234.55V229.563C32.7245 229.851 66.4263 232.267 71.1949 232.343C74.6513 233.247 78.1989 233.733 81.7656 233.792C83.1779 233.802 84.5882 233.684 85.9803 233.44C92.9707 232.143 97.4298 223.682 97.9775 219.259C99.6454 215.785 109.613 194.645 108.409 186.177ZM76.7804 144.766C77.7088 144.236 79.0084 144.88 80.2431 145.888C79.3766 146.293 78.6296 146.925 78.077 147.72C77.2206 149.509 76.9152 151.523 77.2013 153.494C76.7008 152.749 76.0715 152.104 75.3446 151.591C74.3234 147.923 74.2027 146.23 76.7804 144.766ZM80.0791 189.15C79.6645 190.929 79.5159 191.747 79.3983 192.41C79.1271 193.868 78.7654 195.307 78.3153 196.718C78.1444 197.31 77.8546 197.86 77.4645 198.331C77.0745 198.802 76.5927 199.185 76.0501 199.454C73.5209 200.557 70.6755 200.628 68.0973 199.651C67.8498 199.568 67.6641 199.457 67.6394 199.378C67.4785 198.912 67.7105 197.685 69.7281 194.521L69.9014 194.248C70.299 193.629 70.7395 193.04 71.2197 192.486C72.6386 190.774 73.967 188.985 75.1992 187.128C77.2607 184.173 78.8128 180.877 79.7882 177.385C80.3843 181.279 80.4821 185.237 80.0791 189.157V189.15ZM85.2624 229.373C80.8127 229.846 76.316 229.477 71.9964 228.285C71.822 228.236 71.6419 228.212 71.461 228.212C71.4292 228.217 71.3969 228.217 71.3651 228.212C68.2706 228.212 42.2338 226.392 28.7264 225.419V194.857C33.3279 195.967 37.3631 196.759 43.1559 190.149C45.8822 187.039 52.2629 179.747 58.3436 179.259C61.1768 178.924 63.8265 177.654 65.8922 175.639C67.958 173.624 69.3273 170.976 69.7931 168.093C70.2319 165.942 70.548 163.767 70.74 161.578C70.821 159.25 71.2747 156.952 72.083 154.774C72.2453 154.734 72.4139 154.727 72.5788 154.755C72.7437 154.782 72.9013 154.844 73.0423 154.936C74.5617 155.887 75.8985 159.869 76.4462 165.081C77.0144 168.51 76.9045 172.021 76.1231 175.406C75.3417 178.791 73.9047 181.98 71.8974 184.785C70.7393 186.544 69.4893 188.237 68.153 189.857C67.5655 190.543 67.0257 191.269 66.5377 192.032L66.3675 192.299C65.3483 193.785 64.5301 195.406 63.9353 197.118C63.7817 197.246 63.6482 197.398 63.5392 197.568L58.3126 206.581C58.1777 206.814 58.0888 207.071 58.051 207.339C58.0133 207.607 58.0274 207.88 58.0926 208.142C58.1579 208.405 58.2729 208.651 58.4312 208.868C58.5895 209.085 58.7879 209.268 59.0151 209.406C59.3251 209.597 59.6804 209.698 60.0425 209.697C60.3914 209.698 60.7343 209.605 61.0376 209.428C61.3409 209.251 61.594 208.997 61.7723 208.689L65.2288 202.662C65.707 203.06 66.2525 203.364 66.8379 203.56C70.4462 204.903 74.4257 204.738 77.9161 203.1C78.9331 202.577 79.8351 201.846 80.5668 200.953C81.2984 200.06 81.8443 199.024 82.171 197.907C82.6611 196.359 83.0549 194.782 83.35 193.183C83.4614 192.549 83.6006 191.798 83.9905 190.133C84.9684 185.945 83.8482 176.992 82.6599 167.516C81.8244 160.858 80.6794 151.702 81.3417 150.136C81.4975 149.884 81.7259 149.688 81.9952 149.574C82.2646 149.461 82.5617 149.435 82.8456 149.502C83.6971 149.719 84.4825 150.149 85.1309 150.755C85.7792 151.36 86.27 152.122 86.5589 152.97L86.8498 153.861C89.9898 162.863 92.4064 172.112 94.0754 181.516C95.4055 193.338 95.4263 205.277 94.1373 217.103C94.0723 217.756 94.0228 218.229 94.0042 218.505C93.8278 221.288 90.2228 228.463 85.2624 229.382V229.373ZM98.9492 207.038C99.3807 198.349 99.0909 189.638 98.0827 180.999C97.4014 176.264 96.3953 171.584 95.0718 166.993C99.5248 174.671 103.894 182.99 104.429 186.763C104.996 190.764 102.013 199.514 98.9492 207.047V207.038Z" fill="#F0F0F3" stroke="#F0F0F3" stroke-width="0.8"/>
<path d="M127.447 26.3585C120.855 24.3249 114.609 25.368 108.378 29.5381C104.325 32.2544 100.946 35.9971 97.4242 41.6687C96.296 43.4854 94.252 44.4656 92.18 44.1825C90.1726 43.8834 88.3847 42.4058 87.7505 40.3465L87.1083 38.2763C86.6935 36.9418 86.3544 35.8533 86.0428 34.7563C84.9264 30.847 83.082 26.816 80.2379 22.0776C78.4775 19.1439 75.9146 17.9826 73.796 17.5544C72.592 17.3111 71.5315 17.3054 70.8426 17.3436C66.5284 17.589 62.802 20.0085 61.1166 23.6576C59.4619 27.2399 58.6332 31.3033 58.5809 36.0811C58.5094 42.603 60.348 48.9777 62.3451 54.893C66.9988 68.6802 74.1699 82.4221 84.2386 96.8296C88.8118 91.0459 94.3498 85.7621 101.124 80.7212C103.459 78.9814 105.833 77.2925 108.21 75.6054C110.815 73.7543 113.419 71.9044 115.969 69.9798C122.961 64.7048 128.191 59.1814 131.952 53.0897C135.415 47.4793 136.429 41.651 135.052 35.2733C134.028 30.5365 131.541 27.6206 127.447 26.3585Z" fill="#FC658A" stroke="#F0F0F3" stroke-width="4"/>
<path d="M145.57 32.8433C143.701 24.1893 138.358 18.0928 130.527 15.678C120.85 12.7068 111.429 14.2152 102.517 20.1849C99.7117 22.0649 97.1849 24.2527 94.7894 26.9145C93.4571 23.5248 91.693 20.0294 89.3957 16.2001C85.3694 9.4957 78.2104 5.76536 70.2478 6.21472C61.9978 6.68368 54.7703 11.5287 51.3866 18.8544C49.044 23.9286 47.8698 29.5229 47.7995 35.9558C47.7104 44.1955 49.8459 51.692 52.1665 58.5652C57.4304 74.1645 65.6231 89.607 77.2136 105.779C78.9435 108.192 80.9601 109.1 82.5118 109.414C82.7159 109.455 82.912 109.485 83.0989 109.511C84.7101 109.705 87.1601 109.477 89.6876 107.286C90.5744 106.52 91.1988 105.69 91.6539 105.086L91.8254 104.861C95.9359 99.4541 101.039 94.5159 107.423 89.7623C109.694 88.0701 112.004 86.4296 114.313 84.789C117.002 82.8796 119.69 80.969 122.322 78.9809C130.417 72.8763 136.541 66.3675 141.036 59.0856C146.051 50.9651 147.577 42.1349 145.57 32.8433ZM131.95 53.0903C128.19 59.1819 122.961 64.7067 115.967 69.9803C113.417 71.9049 110.813 73.7537 108.209 75.6059C105.833 77.2933 103.458 78.9822 101.123 80.7218C94.3483 85.7626 88.8089 91.0473 84.2371 96.8301C74.1683 82.4226 66.9972 68.6807 62.3436 54.8935C60.3464 48.9782 58.5076 42.6046 58.5793 36.0816C58.6306 31.3036 59.4604 27.2404 61.1151 23.6581C62.8005 20.009 66.5268 17.5896 70.8411 17.3441C71.531 17.3062 72.5916 17.3119 73.7945 17.555C75.9131 17.9831 78.476 19.1444 80.2364 22.0781C83.0794 26.8163 84.9241 30.8462 86.0412 34.7568C86.3529 35.8538 86.692 36.9423 87.1067 38.2769L87.749 40.3471C88.383 42.4075 90.1711 43.8839 92.1785 44.183C94.2505 44.4661 96.2945 43.4859 97.4227 41.6692C100.944 35.9976 104.323 32.255 108.376 29.5386C114.607 25.3686 120.854 24.3255 127.445 26.359C131.54 27.6211 134.027 30.537 135.049 35.2736C136.428 41.6515 135.413 47.4798 131.95 53.0903Z" fill="#FC658A" stroke="#F0F0F3" stroke-width="4"/>
</svg>
