<svg width="277" height="310" viewBox="0 0 277 310" fill="none" xmlns="http://www.w3.org/2000/svg">
<path d="M212.308 259.445L230.045 259.435" stroke="#FC658A" stroke-width="3.02" stroke-miterlimit="10" stroke-linecap="round"/>
<path d="M221.705 247.292H230.865" stroke="#FC658A" stroke-width="3.02" stroke-miterlimit="10" stroke-linecap="round"/>
<path d="M43.1543 247.292H46.1955" stroke="#FC658A" stroke-width="3.02" stroke-miterlimit="10" stroke-linecap="round"/>
<path d="M217.008 235.152L243.08 235.139" stroke="#FC658A" stroke-width="3.02" stroke-miterlimit="10" stroke-linecap="round"/>
<path d="M37.2616 235.152L49.0499 235.139" stroke="#FC658A" stroke-width="3.02" stroke-miterlimit="10" stroke-linecap="round"/>
<path d="M61.2616 235.152L62.9271 235.139" stroke="#FC658A" stroke-width="3.02" stroke-miterlimit="10" stroke-linecap="round"/>
<path d="M214.487 223.01L235.901 223" stroke="#FC658A" stroke-width="3.02" stroke-miterlimit="10" stroke-linecap="round"/>
<path d="M37.0355 223.01L65.3088 223" stroke="#FC658A" stroke-width="3.02" stroke-miterlimit="10" stroke-linecap="round"/>
<path d="M265.84 210.876L275 210.862" stroke="#FC658A" stroke-width="3.02" stroke-miterlimit="10" stroke-linecap="round"/>
<path d="M211.435 210.876L230.865 210.862" stroke="#FC658A" stroke-width="3.02" stroke-miterlimit="10" stroke-linecap="round"/>
<path d="M35.2896 210.876L66.8139 210.862" stroke="#FC658A" stroke-width="3.02" stroke-miterlimit="10" stroke-linecap="round"/>
<path d="M180.624 308H192.282" stroke="#FC658A" stroke-width="3.02" stroke-miterlimit="10" stroke-linecap="round"/>
<path d="M164.801 295.86L194.224 295.847" stroke="#FC658A" stroke-width="3.02" stroke-miterlimit="10" stroke-linecap="round"/>
<path d="M139.263 283.718L195.613 283.708" stroke="#FC658A" stroke-width="3.02" stroke-miterlimit="10" stroke-linecap="round"/>
<path d="M210.047 271.584L219.763 271.571" stroke="#FC658A" stroke-width="3.02" stroke-miterlimit="10" stroke-linecap="round"/>
<path d="M133.757 271.584L199.497 271.571" stroke="#FC658A" stroke-width="3.02" stroke-miterlimit="10" stroke-linecap="round"/>
<path d="M246.687 198.719L270.28 198.712" stroke="#FC658A" stroke-width="3.02" stroke-miterlimit="10" stroke-linecap="round"/>
<path d="M192.282 198.719L235.901 198.712" stroke="#FC658A" stroke-width="3.02" stroke-miterlimit="10" stroke-linecap="round"/>
<path d="M35.2896 198.719L65.3083 198.712" stroke="#FC658A" stroke-width="3.02" stroke-miterlimit="10" stroke-linecap="round"/>
<path d="M177.569 186.589L252.516 186.576" stroke="#FC658A" stroke-width="3.02" stroke-miterlimit="10" stroke-linecap="round"/>
<path d="M30.1733 186.589L65.3085 186.576" stroke="#FC658A" stroke-width="3.02" stroke-miterlimit="10" stroke-linecap="round"/>
<path d="M163.689 174.446L231.974 174.439" stroke="#FC658A" stroke-width="3.02" stroke-miterlimit="10" stroke-linecap="round"/>
<path d="M52.9343 174.445H61.2618" stroke="#FC658A" stroke-width="3.02" stroke-miterlimit="10" stroke-linecap="round"/>
<path d="M133.757 162.292H214.486" stroke="#FC658A" stroke-width="3.02" stroke-miterlimit="10" stroke-linecap="round"/>
<path d="M121.499 150.153H192.282" stroke="#FC658A" stroke-width="3.02" stroke-miterlimit="10" stroke-linecap="round"/>
<path d="M212.308 150.153H221.705" stroke="#FC658A" stroke-width="3.02" stroke-miterlimit="10" stroke-linecap="round"/>
<path d="M102.782 138.014L175.904 138.01" stroke="#FC658A" stroke-width="3.02" stroke-miterlimit="10" stroke-linecap="round"/>
<path d="M95.9604 125.877L167.3 125.874" stroke="#FC658A" stroke-width="3.02" stroke-miterlimit="10" stroke-linecap="round"/>
<path d="M86.5238 113.736L163.689 113.71" stroke="#FC658A" stroke-width="3.02" stroke-miterlimit="10" stroke-linecap="round"/>
<path d="M81.9272 101.186L155.642 101.183" stroke="#FC658A" stroke-width="3.02" stroke-miterlimit="10" stroke-linecap="round"/>
<path d="M17.5427 89.0502L140.652 89.0403" stroke="#FC658A" stroke-width="3.02" stroke-miterlimit="10" stroke-linecap="round"/>
<path d="M2 76.5048L127.791 76.5012" stroke="#FC658A" stroke-width="3.02" stroke-miterlimit="10" stroke-linecap="round"/>
<path d="M129.27 64.378L2.83276 64.3582" stroke="#FC658A" stroke-width="3.02" stroke-miterlimit="10" stroke-linecap="round"/>
<path d="M2.83276 51.3751H125.106" stroke="#FC658A" stroke-width="3.02" stroke-miterlimit="10" stroke-linecap="round"/>
<path d="M26.0101 26.6872L158.973 26.6835" stroke="#FC658A" stroke-width="3.02" stroke-miterlimit="10" stroke-linecap="round"/>
<path d="M76.5306 14.5518L158.972 14.5419" stroke="#FC658A" stroke-width="3.02" stroke-miterlimit="10" stroke-linecap="round"/>
<path d="M58.1405 14.5518L60.7087 14.5419" stroke="#FC658A" stroke-width="3.02" stroke-miterlimit="10" stroke-linecap="round"/>
<path d="M34.1643 14.5518L36.7292 14.5419" stroke="#FC658A" stroke-width="3.02" stroke-miterlimit="10" stroke-linecap="round"/>
<path d="M85.1345 2.00731L126.732 2" stroke="#FC658A" stroke-width="3.02" stroke-miterlimit="10" stroke-linecap="round"/>
</svg>
