<svg width="77" height="77" viewBox="0 0 77 77" fill="none" xmlns="http://www.w3.org/2000/svg">
<path d="M38.5 0.5C17.5463 0.5 0.5 17.5463 0.5 38.5C0.5 59.4537 17.5463 76.5 38.5 76.5C59.4537 76.5 76.5 59.4537 76.5 38.5C76.5 17.5463 59.4537 0.5 38.5 0.5ZM38.5 73.2273C19.3514 73.2273 3.77273 57.648 3.77273 38.5C3.77273 19.352 19.3514 3.77273 38.5 3.77273C57.6486 3.77273 73.2273 19.352 73.2273 38.5C73.2273 57.648 57.6486 73.2273 38.5 73.2273Z" fill="#F0F0F3" stroke="#F0F0F3"/>
<path d="M38.315 9.5C22.4255 9.5 9.5 22.426 9.5 38.315C9.5 54.204 22.4255 67.13 38.315 67.13C54.2045 67.13 67.13 54.204 67.13 38.315C67.13 22.426 54.2045 9.5 38.315 9.5ZM38.315 63.9718C24.1686 63.9718 12.6582 52.4619 12.6582 38.315C12.6582 24.1681 24.1686 12.6582 38.315 12.6582C52.4614 12.6582 63.9718 24.1681 63.9718 38.315C63.9718 52.4619 52.4614 63.9718 38.315 63.9718Z" fill="#F0F0F3" stroke="#F0F0F3"/>
<path d="M43.814 26C41.8275 26 40.2094 27.6182 40.2094 29.6047V47.4978C40.2094 49.4843 41.8275 51.1024 43.814 51.1024C45.8005 51.1024 47.4187 49.4843 47.4187 47.4978V29.6047C47.4187 27.6182 45.8005 26 43.814 26Z" fill="#F0F0F3"/>
<path d="M32.6047 26C30.6182 26 29 27.6182 29 29.6047V47.4978C29 49.4843 30.6182 51.1024 32.6047 51.1024C34.5912 51.1024 36.2094 49.4843 36.2094 47.4978V29.6047C36.2094 27.6182 34.5912 26 32.6047 26Z" fill="#F0F0F3"/>
</svg>
