<svg width="289" height="342" viewBox="0 0 289 342" fill="none" xmlns="http://www.w3.org/2000/svg">
<path d="M283.5 237C286.538 237 289 234.538 289 231.5C289 228.462 286.538 226 283.5 226C280.462 226 278 228.462 278 231.5C278 234.538 280.462 237 283.5 237Z" fill="white"/>
<path d="M266.5 220C269.538 220 272 217.538 272 214.5C272 211.462 269.538 209 266.5 209C263.462 209 261 211.462 261 214.5C261 217.538 263.462 220 266.5 220Z" fill="white"/>
<path d="M266.5 237C269.538 237 272 234.538 272 231.5C272 228.462 269.538 226 266.5 226C263.462 226 261 228.462 261 231.5C261 234.538 263.462 237 266.5 237Z" fill="white"/>
<path d="M248.5 220C251.538 220 254 217.538 254 214.5C254 211.462 251.538 209 248.5 209C245.462 209 243 211.462 243 214.5C243 217.538 245.462 220 248.5 220Z" fill="white"/>
<path d="M231.5 185C234.538 185 237 182.538 237 179.5C237 176.462 234.538 174 231.5 174C228.462 174 226 176.462 226 179.5C226 182.538 228.462 185 231.5 185Z" fill="white"/>
<path d="M231.5 202C234.538 202 237 199.538 237 196.5C237 193.462 234.538 191 231.5 191C228.462 191 226 193.462 226 196.5C226 199.538 228.462 202 231.5 202Z" fill="white"/>
<path d="M231.5 220C234.538 220 237 217.538 237 214.5C237 211.462 234.538 209 231.5 209C228.462 209 226 211.462 226 214.5C226 217.538 228.462 220 231.5 220Z" fill="white"/>
<path d="M231.5 237C234.538 237 237 234.538 237 231.5C237 228.462 234.538 226 231.5 226C228.462 226 226 228.462 226 231.5C226 234.538 228.462 237 231.5 237Z" fill="white"/>
<path d="M213.5 185C216.538 185 219 182.538 219 179.5C219 176.462 216.538 174 213.5 174C210.462 174 208 176.462 208 179.5C208 182.538 210.462 185 213.5 185Z" fill="white"/>
<path d="M213.5 202C216.538 202 219 199.538 219 196.5C219 193.462 216.538 191 213.5 191C210.462 191 208 193.462 208 196.5C208 199.538 210.462 202 213.5 202Z" fill="white"/>
<path d="M213.5 220C216.538 220 219 217.538 219 214.5C219 211.462 216.538 209 213.5 209C210.462 209 208 211.462 208 214.5C208 217.538 210.462 220 213.5 220Z" fill="white"/>
<path d="M213.5 237C216.538 237 219 234.538 219 231.5C219 228.462 216.538 226 213.5 226C210.462 226 208 228.462 208 231.5C208 234.538 210.462 237 213.5 237Z" fill="white"/>
<path d="M196.5 185C199.538 185 202 182.538 202 179.5C202 176.462 199.538 174 196.5 174C193.462 174 191 176.462 191 179.5C191 182.538 193.462 185 196.5 185Z" fill="white"/>
<path d="M196.5 202C199.538 202 202 199.538 202 196.5C202 193.462 199.538 191 196.5 191C193.462 191 191 193.462 191 196.5C191 199.538 193.462 202 196.5 202Z" fill="white"/>
<path d="M196.5 220C199.538 220 202 217.538 202 214.5C202 211.462 199.538 209 196.5 209C193.462 209 191 211.462 191 214.5C191 217.538 193.462 220 196.5 220Z" fill="white"/>
<path d="M179.5 150C182.538 150 185 147.538 185 144.5C185 141.462 182.538 139 179.5 139C176.462 139 174 141.462 174 144.5C174 147.538 176.462 150 179.5 150Z" fill="white"/>
<path d="M179.5 168C182.538 168 185 165.538 185 162.5C185 159.462 182.538 157 179.5 157C176.462 157 174 159.462 174 162.5C174 165.538 176.462 168 179.5 168Z" fill="white"/>
<path d="M179.5 185C182.538 185 185 182.538 185 179.5C185 176.462 182.538 174 179.5 174C176.462 174 174 176.462 174 179.5C174 182.538 176.462 185 179.5 185Z" fill="white"/>
<path d="M179.5 202C182.538 202 185 199.538 185 196.5C185 193.462 182.538 191 179.5 191C176.462 191 174 193.462 174 196.5C174 199.538 176.462 202 179.5 202Z" fill="white"/>
<path d="M179.5 220C182.538 220 185 217.538 185 214.5C185 211.462 182.538 209 179.5 209C176.462 209 174 211.462 174 214.5C174 217.538 176.462 220 179.5 220Z" fill="white"/>
<path d="M161.5 29C164.538 29 167 26.5376 167 23.5C167 20.4624 164.538 18 161.5 18C158.462 18 156 20.4624 156 23.5C156 26.5376 158.462 29 161.5 29Z" fill="white"/>
<path d="M161.5 46C164.538 46 167 43.5376 167 40.5C167 37.4624 164.538 35 161.5 35C158.462 35 156 37.4624 156 40.5C156 43.5376 158.462 46 161.5 46Z" fill="white"/>
<path d="M161.5 133C164.538 133 167 130.538 167 127.5C167 124.462 164.538 122 161.5 122C158.462 122 156 124.462 156 127.5C156 130.538 158.462 133 161.5 133Z" fill="white"/>
<path d="M161.5 150C164.538 150 167 147.538 167 144.5C167 141.462 164.538 139 161.5 139C158.462 139 156 141.462 156 144.5C156 147.538 158.462 150 161.5 150Z" fill="white"/>
<path d="M161.5 168C164.538 168 167 165.538 167 162.5C167 159.462 164.538 157 161.5 157C158.462 157 156 159.462 156 162.5C156 165.538 158.462 168 161.5 168Z" fill="white"/>
<path d="M161.5 185C164.538 185 167 182.538 167 179.5C167 176.462 164.538 174 161.5 174C158.462 174 156 176.462 156 179.5C156 182.538 158.462 185 161.5 185Z" fill="white"/>
<path d="M161.5 202C164.538 202 167 199.538 167 196.5C167 193.462 164.538 191 161.5 191C158.462 191 156 193.462 156 196.5C156 199.538 158.462 202 161.5 202Z" fill="white"/>
<path d="M144.5 29C147.538 29 150 26.5376 150 23.5C150 20.4624 147.538 18 144.5 18C141.462 18 139 20.4624 139 23.5C139 26.5376 141.462 29 144.5 29Z" fill="white"/>
<path d="M144.5 46C147.538 46 150 43.5376 150 40.5C150 37.4624 147.538 35 144.5 35C141.462 35 139 37.4624 139 40.5C139 43.5376 141.462 46 144.5 46Z" fill="white"/>
<path d="M144.5 116C147.538 116 150 113.538 150 110.5C150 107.462 147.538 105 144.5 105C141.462 105 139 107.462 139 110.5C139 113.538 141.462 116 144.5 116Z" fill="white"/>
<path d="M144.5 133C147.538 133 150 130.538 150 127.5C150 124.462 147.538 122 144.5 122C141.462 122 139 124.462 139 127.5C139 130.538 141.462 133 144.5 133Z" fill="white"/>
<path d="M144.5 150C147.538 150 150 147.538 150 144.5C150 141.462 147.538 139 144.5 139C141.462 139 139 141.462 139 144.5C139 147.538 141.462 150 144.5 150Z" fill="white"/>
<path d="M144.5 168C147.538 168 150 165.538 150 162.5C150 159.462 147.538 157 144.5 157C141.462 157 139 159.462 139 162.5C139 165.538 141.462 168 144.5 168Z" fill="white"/>
<path d="M144.5 185C147.538 185 150 182.538 150 179.5C150 176.462 147.538 174 144.5 174C141.462 174 139 176.462 139 179.5C139 182.538 141.462 185 144.5 185Z" fill="white"/>
<path d="M144.5 202C147.538 202 150 199.538 150 196.5C150 193.462 147.538 191 144.5 191C141.462 191 139 193.462 139 196.5C139 199.538 141.462 202 144.5 202Z" fill="white"/>
<path d="M283.5 255C286.538 255 289 252.538 289 249.5C289 246.462 286.538 244 283.5 244C280.462 244 278 246.462 278 249.5C278 252.538 280.462 255 283.5 255Z" fill="white"/>
<path d="M248.5 272C251.538 272 254 269.538 254 266.5C254 263.462 251.538 261 248.5 261C245.462 261 243 263.462 243 266.5C243 269.538 245.462 272 248.5 272Z" fill="white"/>
<path d="M248.5 289C251.538 289 254 286.538 254 283.5C254 280.462 251.538 278 248.5 278C245.462 278 243 280.462 243 283.5C243 286.538 245.462 289 248.5 289Z" fill="white"/>
<path d="M231.5 255C234.538 255 237 252.538 237 249.5C237 246.462 234.538 244 231.5 244C228.462 244 226 246.462 226 249.5C226 252.538 228.462 255 231.5 255Z" fill="white"/>
<path d="M231.5 272C234.538 272 237 269.538 237 266.5C237 263.462 234.538 261 231.5 261C228.462 261 226 263.462 226 266.5C226 269.538 228.462 272 231.5 272Z" fill="white"/>
<path d="M231.5 289C234.538 289 237 286.538 237 283.5C237 280.462 234.538 278 231.5 278C228.462 278 226 280.462 226 283.5C226 286.538 228.462 289 231.5 289Z" fill="white"/>
<path d="M231.5 307C234.538 307 237 304.538 237 301.5C237 298.462 234.538 296 231.5 296C228.462 296 226 298.462 226 301.5C226 304.538 228.462 307 231.5 307Z" fill="white"/>
<path d="M213.5 307C216.538 307 219 304.538 219 301.5C219 298.462 216.538 296 213.5 296C210.462 296 208 298.462 208 301.5C208 304.538 210.462 307 213.5 307Z" fill="white"/>
<path d="M196.5 307C199.538 307 202 304.538 202 301.5C202 298.462 199.538 296 196.5 296C193.462 296 191 298.462 191 301.5C191 304.538 193.462 307 196.5 307Z" fill="white"/>
<path d="M196.5 324C199.538 324 202 321.538 202 318.5C202 315.462 199.538 313 196.5 313C193.462 313 191 315.462 191 318.5C191 321.538 193.462 324 196.5 324Z" fill="white"/>
<path d="M196.5 342C199.538 342 202 339.538 202 336.5C202 333.462 199.538 331 196.5 331C193.462 331 191 333.462 191 336.5C191 339.538 193.462 342 196.5 342Z" fill="white"/>
<path d="M179.5 324C182.538 324 185 321.538 185 318.5C185 315.462 182.538 313 179.5 313C176.462 313 174 315.462 174 318.5C174 321.538 176.462 324 179.5 324Z" fill="white"/>
<path d="M179.5 342C182.538 342 185 339.538 185 336.5C185 333.462 182.538 331 179.5 331C176.462 331 174 333.462 174 336.5C174 339.538 176.462 342 179.5 342Z" fill="white"/>
<path d="M161.5 307C164.538 307 167 304.538 167 301.5C167 298.462 164.538 296 161.5 296C158.462 296 156 298.462 156 301.5C156 304.538 158.462 307 161.5 307Z" fill="white"/>
<path d="M161.5 324C164.538 324 167 321.538 167 318.5C167 315.462 164.538 313 161.5 313C158.462 313 156 315.462 156 318.5C156 321.538 158.462 324 161.5 324Z" fill="white"/>
<path d="M144.5 307C147.538 307 150 304.538 150 301.5C150 298.462 147.538 296 144.5 296C141.462 296 139 298.462 139 301.5C139 304.538 141.462 307 144.5 307Z" fill="white"/>
<path d="M144.5 324C147.538 324 150 321.538 150 318.5C150 315.462 147.538 313 144.5 313C141.462 313 139 315.462 139 318.5C139 321.538 141.462 324 144.5 324Z" fill="white"/>
<path d="M127.5 11C130.538 11 133 8.53757 133 5.5C133 2.46243 130.538 0 127.5 0C124.462 0 122 2.46243 122 5.5C122 8.53757 124.462 11 127.5 11Z" fill="white"/>
<path d="M127.5 29C130.538 29 133 26.5376 133 23.5C133 20.4624 130.538 18 127.5 18C124.462 18 122 20.4624 122 23.5C122 26.5376 124.462 29 127.5 29Z" fill="white"/>
<path d="M127.5 46C130.538 46 133 43.5376 133 40.5C133 37.4624 130.538 35 127.5 35C124.462 35 122 37.4624 122 40.5C122 43.5376 124.462 46 127.5 46Z" fill="white"/>
<path d="M127.5 63C130.538 63 133 60.5376 133 57.5C133 54.4624 130.538 52 127.5 52C124.462 52 122 54.4624 122 57.5C122 60.5376 124.462 63 127.5 63Z" fill="white"/>
<path d="M127.499 81C124.463 81 122 78.5292 122 75.5C122 72.4576 124.463 70 127.499 70C130.534 70 133 72.4576 133 75.5C133 78.5292 130.534 81 127.499 81Z" fill="white"/>
<path d="M127.5 98C130.538 98 133 95.5376 133 92.5C133 89.4624 130.538 87 127.5 87C124.462 87 122 89.4624 122 92.5C122 95.5376 124.462 98 127.5 98Z" fill="white"/>
<path d="M127.5 116C130.538 116 133 113.538 133 110.5C133 107.462 130.538 105 127.5 105C124.462 105 122 107.462 122 110.5C122 113.538 124.462 116 127.5 116Z" fill="white"/>
<path d="M127.5 133C130.538 133 133 130.538 133 127.5C133 124.462 130.538 122 127.5 122C124.462 122 122 124.462 122 127.5C122 130.538 124.462 133 127.5 133Z" fill="white"/>
<path d="M127.5 150C130.538 150 133 147.538 133 144.5C133 141.462 130.538 139 127.5 139C124.462 139 122 141.462 122 144.5C122 147.538 124.462 150 127.5 150Z" fill="white"/>
<path d="M127.5 168C130.538 168 133 165.538 133 162.5C133 159.462 130.538 157 127.5 157C124.462 157 122 159.462 122 162.5C122 165.538 124.462 168 127.5 168Z" fill="white"/>
<path d="M127.5 185C130.538 185 133 182.538 133 179.5C133 176.462 130.538 174 127.5 174C124.462 174 122 176.462 122 179.5C122 182.538 124.462 185 127.5 185Z" fill="white"/>
<path d="M109.5 11C112.538 11 115 8.53757 115 5.5C115 2.46243 112.538 0 109.5 0C106.462 0 104 2.46243 104 5.5C104 8.53757 106.462 11 109.5 11Z" fill="white"/>
<path d="M109.5 29C112.538 29 115 26.5376 115 23.5C115 20.4624 112.538 18 109.5 18C106.462 18 104 20.4624 104 23.5C104 26.5376 106.462 29 109.5 29Z" fill="white"/>
<path d="M109.5 46C112.538 46 115 43.5376 115 40.5C115 37.4624 112.538 35 109.5 35C106.462 35 104 37.4624 104 40.5C104 43.5376 106.462 46 109.5 46Z" fill="white"/>
<path d="M109.5 63C112.538 63 115 60.5376 115 57.5C115 54.4624 112.538 52 109.5 52C106.462 52 104 54.4624 104 57.5C104 60.5376 106.462 63 109.5 63Z" fill="white"/>
<path d="M109.501 81C106.466 81 104 78.5292 104 75.5C104 72.4576 106.466 70 109.501 70C112.539 70 115 72.4576 115 75.5C115 78.5292 112.542 81 109.501 81Z" fill="white"/>
<path d="M109.5 98C112.538 98 115 95.5376 115 92.5C115 89.4624 112.538 87 109.5 87C106.462 87 104 89.4624 104 92.5C104 95.5376 106.462 98 109.5 98Z" fill="white"/>
<path d="M109.5 116C112.538 116 115 113.538 115 110.5C115 107.462 112.538 105 109.5 105C106.462 105 104 107.462 104 110.5C104 113.538 106.462 116 109.5 116Z" fill="white"/>
<path d="M109.5 133C112.538 133 115 130.538 115 127.5C115 124.462 112.538 122 109.5 122C106.462 122 104 124.462 104 127.5C104 130.538 106.462 133 109.5 133Z" fill="white"/>
<path d="M109.5 150C112.538 150 115 147.538 115 144.5C115 141.462 112.538 139 109.5 139C106.462 139 104 141.462 104 144.5C104 147.538 106.462 150 109.5 150Z" fill="white"/>
<path d="M109.5 168C112.538 168 115 165.538 115 162.5C115 159.462 112.538 157 109.5 157C106.462 157 104 159.462 104 162.5C104 165.538 106.462 168 109.5 168Z" fill="white"/>
<path d="M92.5 11C95.5376 11 98 8.53757 98 5.5C98 2.46243 95.5376 0 92.5 0C89.4624 0 87 2.46243 87 5.5C87 8.53757 89.4624 11 92.5 11Z" fill="white"/>
<path d="M92.5 29C95.5376 29 98 26.5376 98 23.5C98 20.4624 95.5376 18 92.5 18C89.4624 18 87 20.4624 87 23.5C87 26.5376 89.4624 29 92.5 29Z" fill="white"/>
<path d="M92.5 46C95.5376 46 98 43.5376 98 40.5C98 37.4624 95.5376 35 92.5 35C89.4624 35 87 37.4624 87 40.5C87 43.5376 89.4624 46 92.5 46Z" fill="white"/>
<path d="M92.5 63C95.5376 63 98 60.5376 98 57.5C98 54.4624 95.5376 52 92.5 52C89.4624 52 87 54.4624 87 57.5C87 60.5376 89.4624 63 92.5 63Z" fill="white"/>
<path d="M92.4934 81C89.4661 81 87 78.5292 87 75.5C87 72.4576 89.4661 70 92.4934 70C95.5313 70 98 72.4576 98 75.5C98 78.5292 95.5339 81 92.4934 81Z" fill="white"/>
<path d="M92.5 98C95.5376 98 98 95.5376 98 92.5C98 89.4624 95.5376 87 92.5 87C89.4624 87 87 89.4624 87 92.5C87 95.5376 89.4624 98 92.5 98Z" fill="white"/>
<path d="M92.5 116C95.5376 116 98 113.538 98 110.5C98 107.462 95.5376 105 92.5 105C89.4624 105 87 107.462 87 110.5C87 113.538 89.4624 116 92.5 116Z" fill="white"/>
<path d="M92.5 133C95.5376 133 98 130.538 98 127.5C98 124.462 95.5376 122 92.5 122C89.4624 122 87 124.462 87 127.5C87 130.538 89.4624 133 92.5 133Z" fill="white"/>
<path d="M92.5 150C95.5376 150 98 147.538 98 144.5C98 141.462 95.5376 139 92.5 139C89.4624 139 87 141.462 87 144.5C87 147.538 89.4624 150 92.5 150Z" fill="white"/>
<path d="M74.5 29C77.5376 29 80 26.5376 80 23.5C80 20.4624 77.5376 18 74.5 18C71.4624 18 69 20.4624 69 23.5C69 26.5376 71.4624 29 74.5 29Z" fill="white"/>
<path d="M74.5 46C77.5376 46 80 43.5376 80 40.5C80 37.4624 77.5376 35 74.5 35C71.4624 35 69 37.4624 69 40.5C69 43.5376 71.4624 46 74.5 46Z" fill="white"/>
<path d="M74.5 63C77.5376 63 80 60.5376 80 57.5C80 54.4624 77.5376 52 74.5 52C71.4624 52 69 54.4624 69 57.5C69 60.5376 71.4624 63 74.5 63Z" fill="white"/>
<path d="M74.5013 81C71.4582 81 69 78.5292 69 75.5C69 72.4576 71.4582 70 74.5013 70C77.5365 70 80 72.4576 80 75.5C80 78.5292 77.5365 81 74.5013 81Z" fill="white"/>
<path d="M74.5 98C77.5376 98 80 95.5376 80 92.5C80 89.4624 77.5376 87 74.5 87C71.4624 87 69 89.4624 69 92.5C69 95.5376 71.4624 98 74.5 98Z" fill="white"/>
<path d="M57.4974 29C54.4614 29 52 26.5365 52 23.5013C52 20.4661 54.4641 18 57.4974 18C60.5412 18 63 20.4687 63 23.5013C63 26.5392 60.5412 29 57.4974 29Z" fill="white"/>
<path d="M57.4974 46C54.4614 46 52 43.5318 52 40.5C52 37.4655 54.4641 35 57.4974 35C60.5412 35 63 37.4655 63 40.5C63 43.5318 60.5412 46 57.4974 46Z" fill="white"/>
<path d="M57.4974 63C54.4614 63 52 60.5345 52 57.5C52 54.4576 54.4641 52 57.4974 52C60.5412 52 63 54.4603 63 57.5C63 60.5345 60.5412 63 57.4974 63Z" fill="white"/>
<path d="M57.4974 81C54.4614 81 52 78.5292 52 75.5C52 72.4576 54.4641 70 57.4974 70C60.5412 70 63 72.4576 63 75.5C63 78.5292 60.5412 81 57.4974 81Z" fill="white"/>
<path d="M57.4974 98C54.4614 98 52 95.5365 52 92.5013C52 89.4608 54.4641 87 57.4974 87C60.5412 87 63 89.4635 63 92.5013C63 95.5392 60.5412 98 57.4974 98Z" fill="white"/>
<path d="M57.4974 202C54.4614 202 52 199.537 52 196.5C52 193.458 54.4641 191 57.4974 191C60.5412 191 63 193.458 63 196.5C63 199.542 60.5412 202 57.4974 202Z" fill="white"/>
<path d="M57.4974 220C54.4614 220 52 217.541 52 214.497C52 211.464 54.4641 209 57.4974 209C60.5412 209 63 211.464 63 214.497C63 217.546 60.5412 220 57.4974 220Z" fill="white"/>
<path d="M57.4974 237C54.4614 237 52 234.53 52 231.499C52 228.468 54.4641 226 57.4974 226C60.5412 226 63 228.468 63 231.499C63 234.535 60.5412 237 57.4974 237Z" fill="white"/>
<path d="M40.5 29C43.5376 29 46 26.5376 46 23.5C46 20.4624 43.5376 18 40.5 18C37.4624 18 35 20.4624 35 23.5C35 26.5376 37.4624 29 40.5 29Z" fill="white"/>
<path d="M40.5 46C43.5376 46 46 43.5376 46 40.5C46 37.4624 43.5376 35 40.5 35C37.4624 35 35 37.4624 35 40.5C35 43.5376 37.4624 46 40.5 46Z" fill="white"/>
<path d="M40.5 63C43.5376 63 46 60.5376 46 57.5C46 54.4624 43.5376 52 40.5 52C37.4624 52 35 54.4624 35 57.5C35 60.5376 37.4624 63 40.5 63Z" fill="white"/>
<path d="M40.4974 81C37.4643 81 35 78.5292 35 75.5C35 72.4576 37.467 70 40.4974 70C43.5357 70 46 72.4576 46 75.5C46 78.5292 43.5357 81 40.4974 81Z" fill="white"/>
<path d="M40.5 98C43.5376 98 46 95.5376 46 92.5C46 89.4624 43.5376 87 40.5 87C37.4624 87 35 89.4624 35 92.5C35 95.5376 37.4624 98 40.5 98Z" fill="white"/>
<path d="M40.5 220C43.5376 220 46 217.538 46 214.5C46 211.462 43.5376 209 40.5 209C37.4624 209 35 211.462 35 214.5C35 217.538 37.4624 220 40.5 220Z" fill="white"/>
<path d="M40.5 237C43.5376 237 46 234.538 46 231.5C46 228.462 43.5376 226 40.5 226C37.4624 226 35 228.462 35 231.5C35 234.538 37.4624 237 40.5 237Z" fill="white"/>
<path d="M22.5013 46C19.4608 46 17 43.5318 17 40.5C17 37.4655 19.4608 35 22.5013 35C25.5313 35 28 37.4655 28 40.5C27.9974 43.5318 25.5313 46 22.5013 46Z" fill="white"/>
<path d="M22.5013 63C19.4608 63 17 60.5345 17 57.5C17 54.4576 19.4608 52 22.5013 52C25.5313 52 28 54.4603 28 57.5C27.9974 60.5345 25.5313 63 22.5013 63Z" fill="white"/>
<path d="M22.5013 81C19.4608 81 17 78.5292 17 75.5C17 72.4576 19.4608 70 22.5013 70C25.5313 70 28 72.4576 28 75.5C27.9974 78.5292 25.5313 81 22.5013 81Z" fill="white"/>
<path d="M22.5013 98C19.4608 98 17 95.5365 17 92.5013C17 89.4608 19.4608 87 22.5013 87C25.5313 87 28 89.4635 28 92.5013C27.9974 95.5392 25.5313 98 22.5013 98Z" fill="white"/>
<path d="M22.5013 116C19.4608 116 17 113.531 17 110.496C17 107.458 19.4608 105 22.5013 105C25.5313 105 28 107.458 28 110.496C27.9974 113.534 25.5313 116 22.5013 116Z" fill="white"/>
<path d="M5.5 46C8.53757 46 11 43.5376 11 40.5C11 37.4624 8.53757 35 5.5 35C2.46243 35 0 37.4624 0 40.5C0 43.5376 2.46243 46 5.5 46Z" fill="white"/>
<path d="M5.5 63C8.53757 63 11 60.5376 11 57.5C11 54.4624 8.53757 52 5.5 52C2.46243 52 0 54.4624 0 57.5C0 60.5376 2.46243 63 5.5 63Z" fill="white"/>
<path d="M5.49605 81C2.46084 81 0 78.5292 0 75.5C0 72.4576 2.46084 70 5.49605 70C8.53389 70 11 72.4576 11 75.5C10.9974 78.5292 8.53126 81 5.49605 81Z" fill="white"/>
<path d="M5.5 98C8.53757 98 11 95.5376 11 92.5C11 89.4624 8.53757 87 5.5 87C2.46243 87 0 89.4624 0 92.5C0 95.5376 2.46243 98 5.5 98Z" fill="white"/>
<path d="M57.4974 255C54.4614 255 52 252.537 52 249.491C52 246.461 54.4641 244 57.4974 244C60.5412 244 63 246.461 63 249.491C63 252.539 60.5412 255 57.4974 255Z" fill="white"/>
<path d="M57.4974 272C54.4614 272 52 269.541 52 266.497C52 263.467 54.4641 261 57.4974 261C60.5412 261 63 263.467 63 266.497C63 269.544 60.5412 272 57.4974 272Z" fill="white"/>
<path d="M40.5 255C43.5376 255 46 252.538 46 249.5C46 246.462 43.5376 244 40.5 244C37.4624 244 35 246.462 35 249.5C35 252.538 37.4624 255 40.5 255Z" fill="white"/>
<path d="M40.5 272C43.5376 272 46 269.538 46 266.5C46 263.462 43.5376 261 40.5 261C37.4624 261 35 263.462 35 266.5C35 269.538 37.4624 272 40.5 272Z" fill="white"/>
</svg>
