<svg width="275" height="310" viewBox="0 0 275 310" fill="none" xmlns="http://www.w3.org/2000/svg">
<path d="M210.814 259.445L228.408 259.435" stroke="#FC658A" stroke-width="3.02" stroke-miterlimit="10" stroke-linecap="round"/>
<path d="M220.135 247.292H229.221" stroke="#FC658A" stroke-width="3.02" stroke-miterlimit="10" stroke-linecap="round"/>
<path d="M43.0258 247.292H46.0424" stroke="#FC658A" stroke-width="3.02" stroke-miterlimit="10" stroke-linecap="round"/>
<path d="M215.476 235.152L241.337 235.139" stroke="#FC658A" stroke-width="3.02" stroke-miterlimit="10" stroke-linecap="round"/>
<path d="M37.1805 235.152L48.8737 235.139" stroke="#FC658A" stroke-width="3.02" stroke-miterlimit="10" stroke-linecap="round"/>
<path d="M60.9868 235.152L62.6389 235.139" stroke="#FC658A" stroke-width="3.02" stroke-miterlimit="10" stroke-linecap="round"/>
<path d="M212.975 223.01L234.217 223" stroke="#FC658A" stroke-width="3.02" stroke-miterlimit="10" stroke-linecap="round"/>
<path d="M36.9563 223.01L65.0014 223" stroke="#FC658A" stroke-width="3.02" stroke-miterlimit="10" stroke-linecap="round"/>
<path d="M263.914 210.876L273 210.862" stroke="#FC658A" stroke-width="3.02" stroke-miterlimit="10" stroke-linecap="round"/>
<path d="M209.948 210.876L229.221 210.862" stroke="#FC658A" stroke-width="3.02" stroke-miterlimit="10" stroke-linecap="round"/>
<path d="M35.2245 210.876L66.4944 210.862" stroke="#FC658A" stroke-width="3.02" stroke-miterlimit="10" stroke-linecap="round"/>
<path d="M179.386 308H190.95" stroke="#FC658A" stroke-width="3.02" stroke-miterlimit="10" stroke-linecap="round"/>
<path d="M163.691 295.86L192.876 295.847" stroke="#FC658A" stroke-width="3.02" stroke-miterlimit="10" stroke-linecap="round"/>
<path d="M138.359 283.718L194.254 283.708" stroke="#FC658A" stroke-width="3.02" stroke-miterlimit="10" stroke-linecap="round"/>
<path d="M208.571 271.584L218.209 271.571" stroke="#FC658A" stroke-width="3.02" stroke-miterlimit="10" stroke-linecap="round"/>
<path d="M132.897 271.584L198.106 271.571" stroke="#FC658A" stroke-width="3.02" stroke-miterlimit="10" stroke-linecap="round"/>
<path d="M244.916 198.719L268.319 198.712" stroke="#FC658A" stroke-width="3.02" stroke-miterlimit="10" stroke-linecap="round"/>
<path d="M190.95 198.719L234.217 198.712" stroke="#FC658A" stroke-width="3.02" stroke-miterlimit="10" stroke-linecap="round"/>
<path d="M35.2245 198.719L65.0009 198.712" stroke="#FC658A" stroke-width="3.02" stroke-miterlimit="10" stroke-linecap="round"/>
<path d="M176.355 186.589L250.697 186.576" stroke="#FC658A" stroke-width="3.02" stroke-miterlimit="10" stroke-linecap="round"/>
<path d="M30.1495 186.589L65.0011 186.576" stroke="#FC658A" stroke-width="3.02" stroke-miterlimit="10" stroke-linecap="round"/>
<path d="M162.588 174.446L230.322 174.439" stroke="#FC658A" stroke-width="3.02" stroke-miterlimit="10" stroke-linecap="round"/>
<path d="M52.7268 174.445H60.987" stroke="#FC658A" stroke-width="3.02" stroke-miterlimit="10" stroke-linecap="round"/>
<path d="M132.897 162.292H212.975" stroke="#FC658A" stroke-width="3.02" stroke-miterlimit="10" stroke-linecap="round"/>
<path d="M120.738 150.153H190.95" stroke="#FC658A" stroke-width="3.02" stroke-miterlimit="10" stroke-linecap="round"/>
<path d="M210.814 150.153H220.135" stroke="#FC658A" stroke-width="3.02" stroke-miterlimit="10" stroke-linecap="round"/>
<path d="M102.172 138.014L174.704 138.01" stroke="#FC658A" stroke-width="3.02" stroke-miterlimit="10" stroke-linecap="round"/>
<path d="M95.4056 125.877L166.169 125.874" stroke="#FC658A" stroke-width="3.02" stroke-miterlimit="10" stroke-linecap="round"/>
<path d="M86.0452 113.736L162.588 113.71" stroke="#FC658A" stroke-width="3.02" stroke-miterlimit="10" stroke-linecap="round"/>
<path d="M81.4857 101.186L154.605 101.183" stroke="#FC658A" stroke-width="3.02" stroke-miterlimit="10" stroke-linecap="round"/>
<path d="M17.6208 89.0502L139.737 89.0403" stroke="#FC658A" stroke-width="3.02" stroke-miterlimit="10" stroke-linecap="round"/>
<path d="M2.20361 76.5048L126.979 76.5012" stroke="#FC658A" stroke-width="3.02" stroke-miterlimit="10" stroke-linecap="round"/>
<path d="M128.446 64.378L3.02966 64.3582" stroke="#FC658A" stroke-width="3.02" stroke-miterlimit="10" stroke-linecap="round"/>
<path d="M3.02966 51.3751H124.316" stroke="#FC658A" stroke-width="3.02" stroke-miterlimit="10" stroke-linecap="round"/>
<path d="M26.0199 26.6872L157.909 26.6835" stroke="#FC658A" stroke-width="3.02" stroke-miterlimit="10" stroke-linecap="round"/>
<path d="M76.1327 14.5518L157.909 14.5419" stroke="#FC658A" stroke-width="3.02" stroke-miterlimit="10" stroke-linecap="round"/>
<path d="M57.891 14.5518L60.4384 14.5419" stroke="#FC658A" stroke-width="3.02" stroke-miterlimit="10" stroke-linecap="round"/>
<path d="M34.1083 14.5518L36.6524 14.5419" stroke="#FC658A" stroke-width="3.02" stroke-miterlimit="10" stroke-linecap="round"/>
<path d="M84.6671 2.00731L125.929 2" stroke="#FC658A" stroke-width="3.02" stroke-miterlimit="10" stroke-linecap="round"/>
</svg>
