<svg width="483" height="365" viewBox="0 0 483 365" fill="none" xmlns="http://www.w3.org/2000/svg">
<path d="M407.88 305.93L428.568 305.918" stroke="#FC658A" stroke-width="2.02" stroke-miterlimit="10" stroke-linecap="round"/>
<path d="M418.84 291.583H429.524" stroke="#FC658A" stroke-width="2.02" stroke-miterlimit="10" stroke-linecap="round"/>
<path d="M210.591 291.583H214.138" stroke="#FC658A" stroke-width="2.02" stroke-miterlimit="10" stroke-linecap="round"/>
<path d="M413.362 277.251L443.77 277.235" stroke="#FC658A" stroke-width="2.02" stroke-miterlimit="10" stroke-linecap="round"/>
<path d="M203.718 277.251L217.467 277.235" stroke="#FC658A" stroke-width="2.02" stroke-miterlimit="10" stroke-linecap="round"/>
<path d="M231.71 277.251L233.652 277.235" stroke="#FC658A" stroke-width="2.02" stroke-miterlimit="10" stroke-linecap="round"/>
<path d="M410.421 262.916L435.398 262.904" stroke="#FC658A" stroke-width="2.02" stroke-miterlimit="10" stroke-linecap="round"/>
<path d="M203.454 262.916L236.43 262.904" stroke="#FC658A" stroke-width="2.02" stroke-miterlimit="10" stroke-linecap="round"/>
<path d="M470.316 248.591L481 248.576" stroke="#FC658A" stroke-width="2.02" stroke-miterlimit="10" stroke-linecap="round"/>
<path d="M406.862 248.591L429.524 248.576" stroke="#FC658A" stroke-width="2.02" stroke-miterlimit="10" stroke-linecap="round"/>
<path d="M201.418 248.591L238.186 248.576" stroke="#FC658A" stroke-width="2.02" stroke-miterlimit="10" stroke-linecap="round"/>
<path d="M370.926 363.252H384.524" stroke="#FC658A" stroke-width="2.02" stroke-miterlimit="10" stroke-linecap="round"/>
<path d="M352.472 348.921L386.788 348.905" stroke="#FC658A" stroke-width="2.02" stroke-miterlimit="10" stroke-linecap="round"/>
<path d="M322.685 334.586L388.408 334.574" stroke="#FC658A" stroke-width="2.02" stroke-miterlimit="10" stroke-linecap="round"/>
<path d="M405.243 320.261L416.575 320.246" stroke="#FC658A" stroke-width="2.02" stroke-miterlimit="10" stroke-linecap="round"/>
<path d="M316.263 320.261L392.938 320.246" stroke="#FC658A" stroke-width="2.02" stroke-miterlimit="10" stroke-linecap="round"/>
<path d="M447.978 234.239L475.496 234.231" stroke="#FC658A" stroke-width="2.02" stroke-miterlimit="10" stroke-linecap="round"/>
<path d="M384.523 234.239L435.398 234.231" stroke="#FC658A" stroke-width="2.02" stroke-miterlimit="10" stroke-linecap="round"/>
<path d="M201.418 234.239L236.43 234.231" stroke="#FC658A" stroke-width="2.02" stroke-miterlimit="10" stroke-linecap="round"/>
<path d="M367.363 219.919L454.776 219.904" stroke="#FC658A" stroke-width="2.02" stroke-miterlimit="10" stroke-linecap="round"/>
<path d="M195.451 219.919L236.43 219.904" stroke="#FC658A" stroke-width="2.02" stroke-miterlimit="10" stroke-linecap="round"/>
<path d="M351.175 205.583L430.818 205.575" stroke="#FC658A" stroke-width="2.02" stroke-miterlimit="10" stroke-linecap="round"/>
<path d="M221.997 205.582H231.71" stroke="#FC658A" stroke-width="2.02" stroke-miterlimit="10" stroke-linecap="round"/>
<path d="M316.263 191.235H410.421" stroke="#FC658A" stroke-width="2.02" stroke-miterlimit="10" stroke-linecap="round"/>
<path d="M301.967 176.904H384.523" stroke="#FC658A" stroke-width="2.02" stroke-miterlimit="10" stroke-linecap="round"/>
<path d="M407.88 176.904H418.84" stroke="#FC658A" stroke-width="2.02" stroke-miterlimit="10" stroke-linecap="round"/>
<path d="M280.137 162.572L365.421 162.568" stroke="#FC658A" stroke-width="2.02" stroke-miterlimit="10" stroke-linecap="round"/>
<path d="M272.18 148.244L355.386 148.24" stroke="#FC658A" stroke-width="2.02" stroke-miterlimit="10" stroke-linecap="round"/>
<path d="M261.174 133.911L351.174 133.88" stroke="#FC658A" stroke-width="2.02" stroke-miterlimit="10" stroke-linecap="round"/>
<path d="M255.813 119.095L341.789 119.091" stroke="#FC658A" stroke-width="2.02" stroke-miterlimit="10" stroke-linecap="round"/>
<path d="M180.719 104.768L324.306 104.756" stroke="#FC658A" stroke-width="2.02" stroke-miterlimit="10" stroke-linecap="round"/>
<path d="M162.591 89.9575L309.305 89.9536" stroke="#FC658A" stroke-width="2.02" stroke-miterlimit="10" stroke-linecap="round"/>
<path d="M311.03 75.641L163.562 75.6177" stroke="#FC658A" stroke-width="2.02" stroke-miterlimit="10" stroke-linecap="round"/>
<path d="M163.562 60.2905H306.174" stroke="#FC658A" stroke-width="2.02" stroke-miterlimit="10" stroke-linecap="round"/>
<path d="M160 45.9598L326.815 45.9326" stroke="#FC658A" stroke-width="2.02" stroke-miterlimit="10" stroke-linecap="round"/>
<path d="M190.595 31.1445L345.674 31.1406" stroke="#FC658A" stroke-width="2.02" stroke-miterlimit="10" stroke-linecap="round"/>
<path d="M249.519 16.8183L345.673 16.8066" stroke="#FC658A" stroke-width="2.02" stroke-miterlimit="10" stroke-linecap="round"/>
<path d="M228.069 16.8183L231.065 16.8066" stroke="#FC658A" stroke-width="2.02" stroke-miterlimit="10" stroke-linecap="round"/>
<path d="M200.105 16.8183L203.097 16.8066" stroke="#FC658A" stroke-width="2.02" stroke-miterlimit="10" stroke-linecap="round"/>
<path d="M259.553 2.00777L308.07 2" stroke="#FC658A" stroke-width="2.02" stroke-miterlimit="10" stroke-linecap="round"/>
<path d="M84.7836 263V248.4C84.7836 246.587 85.2903 245.173 86.3036 244.16C87.3436 243.12 88.7703 242.6 90.5836 242.6H94.1036V245.04H91.1436C89.9703 245.04 89.0769 245.36 88.4636 246C87.8769 246.64 87.5836 247.547 87.5836 248.72V263H84.7836ZM107.635 263.52C105.582 263.52 103.822 263.04 102.355 262.08C100.888 261.12 99.7685 259.84 98.9952 258.24C98.2218 256.613 97.8352 254.8 97.8352 252.8C97.8352 250.773 98.2485 248.96 99.0752 247.36C99.9285 245.733 101.142 244.453 102.715 243.52C104.315 242.587 106.222 242.12 108.435 242.12C110.542 242.12 112.355 242.587 113.875 243.52C115.422 244.453 116.608 245.707 117.435 247.28C118.288 248.853 118.715 250.627 118.715 252.6V263H115.955V258.44H115.835C115.435 259.24 114.862 260.027 114.115 260.8C113.395 261.573 112.488 262.227 111.395 262.76C110.328 263.267 109.075 263.52 107.635 263.52ZM108.235 261.12C109.728 261.12 111.048 260.76 112.195 260.04C113.342 259.293 114.248 258.293 114.915 257.04C115.582 255.76 115.902 254.32 115.875 252.72C115.875 251.147 115.568 249.747 114.955 248.52C114.342 247.293 113.475 246.32 112.355 245.6C111.235 244.88 109.902 244.52 108.355 244.52C106.755 244.52 105.382 244.893 104.235 245.64C103.088 246.36 102.208 247.36 101.595 248.64C100.982 249.893 100.675 251.32 100.675 252.92C100.675 254.413 100.968 255.787 101.555 257.04C102.168 258.267 103.035 259.253 104.155 260C105.275 260.747 106.635 261.12 108.235 261.12ZM135.372 263.52C137.265 263.52 138.985 263.107 140.532 262.28C142.105 261.453 143.358 260.253 144.292 258.68C145.225 257.08 145.692 255.133 145.692 252.84V233.8H142.892V246.8H142.812C142.118 245.44 141.065 244.32 139.652 243.44C138.238 242.56 136.692 242.12 135.012 242.12C133.172 242.12 131.492 242.547 129.972 243.4C128.452 244.253 127.238 245.467 126.332 247.04C125.452 248.587 125.012 250.453 125.012 252.64C125.012 254.933 125.478 256.893 126.412 258.52C127.345 260.12 128.585 261.36 130.132 262.24C131.705 263.093 133.452 263.52 135.372 263.52ZM135.412 261.08C134.078 261.08 132.825 260.76 131.652 260.12C130.505 259.453 129.585 258.507 128.892 257.28C128.198 256.027 127.852 254.533 127.852 252.8C127.852 251.12 128.185 249.667 128.852 248.44C129.545 247.187 130.465 246.227 131.612 245.56C132.758 244.893 133.998 244.56 135.332 244.56C136.692 244.56 137.945 244.893 139.092 245.56C140.238 246.2 141.145 247.147 141.812 248.4C142.505 249.627 142.852 251.107 142.852 252.84C142.852 254.6 142.505 256.093 141.812 257.32C141.145 258.547 140.238 259.48 139.092 260.12C137.972 260.76 136.745 261.08 135.412 261.08ZM152.956 263V242.6H155.756V263H152.956ZM154.356 238.92C153.822 238.92 153.356 238.72 152.956 238.32C152.556 237.92 152.356 237.453 152.356 236.92C152.356 236.387 152.556 235.92 152.956 235.52C153.356 235.12 153.822 234.92 154.356 234.92C154.916 234.92 155.382 235.12 155.756 235.52C156.156 235.92 156.356 236.387 156.356 236.92C156.356 237.453 156.156 237.92 155.756 238.32C155.382 238.72 154.916 238.92 154.356 238.92ZM172.621 263.52C170.568 263.52 168.741 263.053 167.141 262.12C165.541 261.16 164.288 259.867 163.381 258.24C162.474 256.613 162.021 254.8 162.021 252.8C162.021 250.8 162.474 249 163.381 247.4C164.288 245.773 165.541 244.48 167.141 243.52C168.741 242.56 170.568 242.08 172.621 242.08C174.674 242.08 176.501 242.56 178.101 243.52C179.701 244.453 180.954 245.733 181.861 247.36C182.768 248.987 183.221 250.8 183.221 252.8C183.221 254.8 182.768 256.613 181.861 258.24C180.954 259.867 179.701 261.16 178.101 262.12C176.501 263.053 174.674 263.52 172.621 263.52ZM172.621 261.08C174.141 261.08 175.488 260.72 176.661 260C177.834 259.253 178.741 258.253 179.381 257C180.048 255.747 180.381 254.347 180.381 252.8C180.381 251.253 180.048 249.853 179.381 248.6C178.741 247.347 177.834 246.36 176.661 245.64C175.488 244.893 174.141 244.52 172.621 244.52C171.074 244.52 169.714 244.893 168.541 245.64C167.394 246.36 166.488 247.347 165.821 248.6C165.181 249.853 164.861 251.253 164.861 252.8C164.861 254.347 165.181 255.747 165.821 257C166.488 258.253 167.394 259.253 168.541 260C169.714 260.72 171.074 261.08 172.621 261.08Z" fill="#FC658A"/>
<path d="M259.885 263V245.04H256.285V242.6H259.885V239.6C259.885 237.787 260.391 236.373 261.405 235.36C262.418 234.32 263.845 233.8 265.685 233.8H270.325V236.24H266.205C265.031 236.24 264.138 236.56 263.525 237.2C262.938 237.84 262.645 238.747 262.645 239.92V242.6H269.565V245.04H262.645V263H259.885ZM282.374 263.52C280.321 263.52 278.494 263.053 276.894 262.12C275.294 261.16 274.041 259.867 273.134 258.24C272.228 256.613 271.774 254.8 271.774 252.8C271.774 250.8 272.228 249 273.134 247.4C274.041 245.773 275.294 244.48 276.894 243.52C278.494 242.56 280.321 242.08 282.374 242.08C284.428 242.08 286.254 242.56 287.854 243.52C289.454 244.453 290.708 245.733 291.614 247.36C292.521 248.987 292.974 250.8 292.974 252.8C292.974 254.8 292.521 256.613 291.614 258.24C290.708 259.867 289.454 261.16 287.854 262.12C286.254 263.053 284.428 263.52 282.374 263.52ZM282.374 261.08C283.894 261.08 285.241 260.72 286.414 260C287.588 259.253 288.494 258.253 289.134 257C289.801 255.747 290.134 254.347 290.134 252.8C290.134 251.253 289.801 249.853 289.134 248.6C288.494 247.347 287.588 246.36 286.414 245.64C285.241 244.893 283.894 244.52 282.374 244.52C280.828 244.52 279.468 244.893 278.294 245.64C277.148 246.36 276.241 247.347 275.574 248.6C274.934 249.853 274.614 251.253 274.614 252.8C274.614 254.347 274.934 255.747 275.574 257C276.241 258.253 277.148 259.253 278.294 260C279.468 260.72 280.828 261.08 282.374 261.08ZM299.25 263V251.12C299.25 249.253 299.663 247.653 300.49 246.32C301.316 244.96 302.436 243.92 303.85 243.2C305.263 242.453 306.836 242.08 308.57 242.08C310.303 242.08 311.863 242.453 313.25 243.2C314.663 243.92 315.783 244.96 316.61 246.32C317.463 247.653 317.89 249.253 317.89 251.12V263H315.09V251.24C315.09 249.827 314.77 248.627 314.13 247.64C313.516 246.627 312.716 245.853 311.73 245.32C310.743 244.787 309.676 244.52 308.53 244.52C307.41 244.52 306.356 244.787 305.37 245.32C304.383 245.827 303.583 246.587 302.97 247.6C302.356 248.587 302.05 249.8 302.05 251.24V263H299.25ZM325.254 263V242.6H328.054V263H325.254ZM326.654 238.92C326.121 238.92 325.654 238.72 325.254 238.32C324.854 237.92 324.654 237.453 324.654 236.92C324.654 236.387 324.854 235.92 325.254 235.52C325.654 235.12 326.121 234.92 326.654 234.92C327.214 234.92 327.681 235.12 328.054 235.52C328.454 235.92 328.654 236.387 328.654 236.92C328.654 237.453 328.454 237.92 328.054 238.32C327.681 238.72 327.214 238.92 326.654 238.92ZM345.32 263C343.213 263 341.333 262.547 339.68 261.64C338.026 260.733 336.72 259.52 335.76 258C334.8 256.453 334.32 254.72 334.32 252.8C334.32 250.88 334.8 249.16 335.76 247.64C336.72 246.093 338.026 244.867 339.68 243.96C341.333 243.053 343.213 242.6 345.32 242.6H347.64V245.04H345.12C343.653 245.04 342.306 245.387 341.08 246.08C339.88 246.747 338.92 247.667 338.2 248.84C337.506 250.013 337.16 251.333 337.16 252.8C337.16 254.267 337.506 255.587 338.2 256.76C338.92 257.933 339.88 258.867 341.08 259.56C342.306 260.227 343.653 260.56 345.12 260.56H347.64V263H345.32ZM362.76 263.52C360.707 263.52 358.88 263.053 357.28 262.12C355.68 261.16 354.427 259.867 353.52 258.24C352.613 256.613 352.16 254.8 352.16 252.8C352.16 250.8 352.613 249 353.52 247.4C354.427 245.773 355.68 244.48 357.28 243.52C358.88 242.56 360.707 242.08 362.76 242.08C364.813 242.08 366.64 242.56 368.24 243.52C369.84 244.453 371.093 245.733 372 247.36C372.907 248.987 373.36 250.8 373.36 252.8C373.36 254.8 372.907 256.613 372 258.24C371.093 259.867 369.84 261.16 368.24 262.12C366.64 263.053 364.813 263.52 362.76 263.52ZM362.76 261.08C364.28 261.08 365.627 260.72 366.8 260C367.973 259.253 368.88 258.253 369.52 257C370.187 255.747 370.52 254.347 370.52 252.8C370.52 251.253 370.187 249.853 369.52 248.6C368.88 247.347 367.973 246.36 366.8 245.64C365.627 244.893 364.28 244.52 362.76 244.52C361.213 244.52 359.853 244.893 358.68 245.64C357.533 246.36 356.627 247.347 355.96 248.6C355.32 249.853 355 251.253 355 252.8C355 254.347 355.32 255.747 355.96 257C356.627 258.253 357.533 259.253 358.68 260C359.853 260.72 361.213 261.08 362.76 261.08Z" fill="#FC658A"/>
</svg>
