<svg width="288" height="341" viewBox="0 0 288 341" fill="none" xmlns="http://www.w3.org/2000/svg">
<path d="M283 236C285.761 236 288 233.761 288 231C288 228.239 285.761 226 283 226C280.239 226 278 228.239 278 231C278 233.761 280.239 236 283 236Z" fill="#393A32"/>
<path d="M266 219C268.761 219 271 216.761 271 214C271 211.239 268.761 209 266 209C263.239 209 261 211.239 261 214C261 216.761 263.239 219 266 219Z" fill="#393A32"/>
<path d="M266 236C268.761 236 271 233.761 271 231C271 228.239 268.761 226 266 226C263.239 226 261 228.239 261 231C261 233.761 263.239 236 266 236Z" fill="#393A32"/>
<path d="M248 219C250.761 219 253 216.761 253 214C253 211.239 250.761 209 248 209C245.239 209 243 211.239 243 214C243 216.761 245.239 219 248 219Z" fill="#393A32"/>
<path d="M231 184C233.761 184 236 181.761 236 179C236 176.239 233.761 174 231 174C228.239 174 226 176.239 226 179C226 181.761 228.239 184 231 184Z" fill="#393A32"/>
<path d="M231 202C233.761 202 236 199.538 236 196.5C236 193.462 233.761 191 231 191C228.239 191 226 193.462 226 196.5C226 199.538 228.239 202 231 202Z" fill="#393A32"/>
<path d="M231 219C233.761 219 236 216.761 236 214C236 211.239 233.761 209 231 209C228.239 209 226 211.239 226 214C226 216.761 228.239 219 231 219Z" fill="#393A32"/>
<path d="M231 236C233.761 236 236 233.761 236 231C236 228.239 233.761 226 231 226C228.239 226 226 228.239 226 231C226 233.761 228.239 236 231 236Z" fill="#393A32"/>
<path d="M213.5 184C216.538 184 219 181.761 219 179C219 176.239 216.538 174 213.5 174C210.462 174 208 176.239 208 179C208 181.761 210.462 184 213.5 184Z" fill="#393A32"/>
<path d="M213.5 202C216.538 202 219 199.538 219 196.5C219 193.462 216.538 191 213.5 191C210.462 191 208 193.462 208 196.5C208 199.538 210.462 202 213.5 202Z" fill="#393A32"/>
<path d="M213.5 219C216.538 219 219 216.761 219 214C219 211.239 216.538 209 213.5 209C210.462 209 208 211.239 208 214C208 216.761 210.462 219 213.5 219Z" fill="#393A32"/>
<path d="M213.5 236C216.538 236 219 233.761 219 231C219 228.239 216.538 226 213.5 226C210.462 226 208 228.239 208 231C208 233.761 210.462 236 213.5 236Z" fill="#393A32"/>
<path d="M196 184C198.761 184 201 181.761 201 179C201 176.239 198.761 174 196 174C193.239 174 191 176.239 191 179C191 181.761 193.239 184 196 184Z" fill="#393A32"/>
<path d="M196 202C198.761 202 201 199.538 201 196.5C201 193.462 198.761 191 196 191C193.239 191 191 193.462 191 196.5C191 199.538 193.239 202 196 202Z" fill="#393A32"/>
<path d="M196 219C198.761 219 201 216.761 201 214C201 211.239 198.761 209 196 209C193.239 209 191 211.239 191 214C191 216.761 193.239 219 196 219Z" fill="#393A32"/>
<path d="M179 149C181.761 149 184 146.761 184 144C184 141.239 181.761 139 179 139C176.239 139 174 141.239 174 144C174 146.761 176.239 149 179 149Z" fill="#393A32"/>
<path d="M179 167C181.761 167 184 164.761 184 162C184 159.239 181.761 157 179 157C176.239 157 174 159.239 174 162C174 164.761 176.239 167 179 167Z" fill="#393A32"/>
<path d="M179 184C181.761 184 184 181.761 184 179C184 176.239 181.761 174 179 174C176.239 174 174 176.239 174 179C174 181.761 176.239 184 179 184Z" fill="#393A32"/>
<path d="M179 202C181.761 202 184 199.538 184 196.5C184 193.462 181.761 191 179 191C176.239 191 174 193.462 174 196.5C174 199.538 176.239 202 179 202Z" fill="#393A32"/>
<path d="M179 219C181.761 219 184 216.761 184 214C184 211.239 181.761 209 179 209C176.239 209 174 211.239 174 214C174 216.761 176.239 219 179 219Z" fill="#393A32"/>
<path d="M161 28C163.761 28 166 25.7614 166 23C166 20.2386 163.761 18 161 18C158.239 18 156 20.2386 156 23C156 25.7614 158.239 28 161 28Z" fill="#393A32"/>
<path d="M161 45C163.761 45 166 42.7614 166 40C166 37.2386 163.761 35 161 35C158.239 35 156 37.2386 156 40C156 42.7614 158.239 45 161 45Z" fill="#393A32"/>
<path d="M161 149C163.761 149 166 146.761 166 144C166 141.239 163.761 139 161 139C158.239 139 156 141.239 156 144C156 146.761 158.239 149 161 149Z" fill="#393A32"/>
<path d="M161 167C163.761 167 166 164.761 166 162C166 159.239 163.761 157 161 157C158.239 157 156 159.239 156 162C156 164.761 158.239 167 161 167Z" fill="#393A32"/>
<path d="M161 184C163.761 184 166 181.761 166 179C166 176.239 163.761 174 161 174C158.239 174 156 176.239 156 179C156 181.761 158.239 184 161 184Z" fill="#393A32"/>
<path d="M161 202C163.761 202 166 199.538 166 196.5C166 193.462 163.761 191 161 191C158.239 191 156 193.462 156 196.5C156 199.538 158.239 202 161 202Z" fill="#393A32"/>
<path d="M144 28C146.761 28 149 25.7614 149 23C149 20.2386 146.761 18 144 18C141.239 18 139 20.2386 139 23C139 25.7614 141.239 28 144 28Z" fill="#393A32"/>
<path d="M144 45C146.761 45 149 42.7614 149 40C149 37.2386 146.761 35 144 35C141.239 35 139 37.2386 139 40C139 42.7614 141.239 45 144 45Z" fill="#393A32"/>
<path d="M144 115C146.761 115 149 112.761 149 110C149 107.239 146.761 105 144 105C141.239 105 139 107.239 139 110C139 112.761 141.239 115 144 115Z" fill="#393A32"/>
<path d="M144 132C146.761 132 149 129.761 149 127C149 124.239 146.761 122 144 122C141.239 122 139 124.239 139 127C139 129.761 141.239 132 144 132Z" fill="#393A32"/>
<path d="M144 149C146.761 149 149 146.761 149 144C149 141.239 146.761 139 144 139C141.239 139 139 141.239 139 144C139 146.761 141.239 149 144 149Z" fill="#393A32"/>
<path d="M144 167C146.761 167 149 164.761 149 162C149 159.239 146.761 157 144 157C141.239 157 139 159.239 139 162C139 164.761 141.239 167 144 167Z" fill="#393A32"/>
<path d="M144 184C146.761 184 149 181.761 149 179C149 176.239 146.761 174 144 174C141.239 174 139 176.239 139 179C139 181.761 141.239 184 144 184Z" fill="#393A32"/>
<path d="M144 202C146.761 202 149 199.538 149 196.5C149 193.462 146.761 191 144 191C141.239 191 139 193.462 139 196.5C139 199.538 141.239 202 144 202Z" fill="#393A32"/>
<path d="M283 254C285.761 254 288 251.761 288 249C288 246.239 285.761 244 283 244C280.239 244 278 246.239 278 249C278 251.761 280.239 254 283 254Z" fill="#393A32"/>
<path d="M248 271C250.761 271 253 268.761 253 266C253 263.239 250.761 261 248 261C245.239 261 243 263.239 243 266C243 268.761 245.239 271 248 271Z" fill="#393A32"/>
<path d="M248 288C250.761 288 253 285.761 253 283C253 280.239 250.761 278 248 278C245.239 278 243 280.239 243 283C243 285.761 245.239 288 248 288Z" fill="#393A32"/>
<path d="M231 254C233.761 254 236 251.761 236 249C236 246.239 233.761 244 231 244C228.239 244 226 246.239 226 249C226 251.761 228.239 254 231 254Z" fill="#393A32"/>
<path d="M231 271C233.761 271 236 268.761 236 266C236 263.239 233.761 261 231 261C228.239 261 226 263.239 226 266C226 268.761 228.239 271 231 271Z" fill="#393A32"/>
<path d="M231 288C233.761 288 236 285.761 236 283C236 280.239 233.761 278 231 278C228.239 278 226 280.239 226 283C226 285.761 228.239 288 231 288Z" fill="#393A32"/>
<path d="M231 306C233.761 306 236 303.761 236 301C236 298.239 233.761 296 231 296C228.239 296 226 298.239 226 301C226 303.761 228.239 306 231 306Z" fill="#393A32"/>
<path d="M213.5 306C216.538 306 219 303.761 219 301C219 298.239 216.538 296 213.5 296C210.462 296 208 298.239 208 301C208 303.761 210.462 306 213.5 306Z" fill="#393A32"/>
<path d="M196 306C198.761 306 201 303.761 201 301C201 298.239 198.761 296 196 296C193.239 296 191 298.239 191 301C191 303.761 193.239 306 196 306Z" fill="#393A32"/>
<path d="M196 323C198.761 323 201 320.761 201 318C201 315.239 198.761 313 196 313C193.239 313 191 315.239 191 318C191 320.761 193.239 323 196 323Z" fill="#393A32"/>
<path d="M196 341C198.761 341 201 338.761 201 336C201 333.239 198.761 331 196 331C193.239 331 191 333.239 191 336C191 338.761 193.239 341 196 341Z" fill="#393A32"/>
<path d="M179 323C181.761 323 184 320.761 184 318C184 315.239 181.761 313 179 313C176.239 313 174 315.239 174 318C174 320.761 176.239 323 179 323Z" fill="#393A32"/>
<path d="M179 341C181.761 341 184 338.761 184 336C184 333.239 181.761 331 179 331C176.239 331 174 333.239 174 336C174 338.761 176.239 341 179 341Z" fill="#393A32"/>
<path d="M161 306C163.761 306 166 303.761 166 301C166 298.239 163.761 296 161 296C158.239 296 156 298.239 156 301C156 303.761 158.239 306 161 306Z" fill="#393A32"/>
<path d="M161 323C163.761 323 166 320.761 166 318C166 315.239 163.761 313 161 313C158.239 313 156 315.239 156 318C156 320.761 158.239 323 161 323Z" fill="#393A32"/>
<path d="M144 306C146.761 306 149 303.761 149 301C149 298.239 146.761 296 144 296C141.239 296 139 298.239 139 301C139 303.761 141.239 306 144 306Z" fill="#393A32"/>
<path d="M144 323C146.761 323 149 320.761 149 318C149 315.239 146.761 313 144 313C141.239 313 139 315.239 139 318C139 320.761 141.239 323 144 323Z" fill="#393A32"/>
<path d="M127 10C129.761 10 132 7.76142 132 5C132 2.23858 129.761 0 127 0C124.239 0 122 2.23858 122 5C122 7.76142 124.239 10 127 10Z" fill="#393A32"/>
<path d="M127 28C129.761 28 132 25.7614 132 23C132 20.2386 129.761 18 127 18C124.239 18 122 20.2386 122 23C122 25.7614 124.239 28 127 28Z" fill="#393A32"/>
<path d="M127 45C129.761 45 132 42.7614 132 40C132 37.2386 129.761 35 127 35C124.239 35 122 37.2386 122 40C122 42.7614 124.239 45 127 45Z" fill="#393A32"/>
<path d="M127 62C129.761 62 132 59.7614 132 57C132 54.2386 129.761 52 127 52C124.239 52 122 54.2386 122 57C122 59.7614 124.239 62 127 62Z" fill="#393A32"/>
<path d="M126.999 80C124.24 80 122 77.7538 122 75C122 72.2342 124.24 70 126.999 70C129.758 70 132 72.2342 132 75C132 77.7538 129.758 80 126.999 80Z" fill="#393A32"/>
<path d="M127 97C129.761 97 132 94.7614 132 92C132 89.2386 129.761 87 127 87C124.239 87 122 89.2386 122 92C122 94.7614 124.239 97 127 97Z" fill="#393A32"/>
<path d="M127 115C129.761 115 132 112.761 132 110C132 107.239 129.761 105 127 105C124.239 105 122 107.239 122 110C122 112.761 124.239 115 127 115Z" fill="#393A32"/>
<path d="M127 132C129.761 132 132 129.761 132 127C132 124.239 129.761 122 127 122C124.239 122 122 124.239 122 127C122 129.761 124.239 132 127 132Z" fill="#393A32"/>
<path d="M127 149C129.761 149 132 146.761 132 144C132 141.239 129.761 139 127 139C124.239 139 122 141.239 122 144C122 146.761 124.239 149 127 149Z" fill="#393A32"/>
<path d="M127 167C129.761 167 132 164.761 132 162C132 159.239 129.761 157 127 157C124.239 157 122 159.239 122 162C122 164.761 124.239 167 127 167Z" fill="#393A32"/>
<path d="M127 184C129.761 184 132 181.761 132 179C132 176.239 129.761 174 127 174C124.239 174 122 176.239 122 179C122 181.761 124.239 184 127 184Z" fill="#393A32"/>
<path d="M109 10C111.761 10 114 7.76142 114 5C114 2.23858 111.761 0 109 0C106.239 0 104 2.23858 104 5C104 7.76142 106.239 10 109 10Z" fill="#393A32"/>
<path d="M109 28C111.761 28 114 25.7614 114 23C114 20.2386 111.761 18 109 18C106.239 18 104 20.2386 104 23C104 25.7614 106.239 28 109 28Z" fill="#393A32"/>
<path d="M109 45C111.761 45 114 42.7614 114 40C114 37.2386 111.761 35 109 35C106.239 35 104 37.2386 104 40C104 42.7614 106.239 45 109 45Z" fill="#393A32"/>
<path d="M109 62C111.761 62 114 59.7614 114 57C114 54.2386 111.761 52 109 52C106.239 52 104 54.2386 104 57C104 59.7614 106.239 62 109 62Z" fill="#393A32"/>
<path d="M109.001 80C106.242 80 104 77.7538 104 75C104 72.2342 106.242 70 109.001 70C111.763 70 114 72.2342 114 75C114 77.7538 111.765 80 109.001 80Z" fill="#393A32"/>
<path d="M109 97C111.761 97 114 94.7614 114 92C114 89.2386 111.761 87 109 87C106.239 87 104 89.2386 104 92C104 94.7614 106.239 97 109 97Z" fill="#393A32"/>
<path d="M109 115C111.761 115 114 112.761 114 110C114 107.239 111.761 105 109 105C106.239 105 104 107.239 104 110C104 112.761 106.239 115 109 115Z" fill="#393A32"/>
<path d="M109 132C111.761 132 114 129.761 114 127C114 124.239 111.761 122 109 122C106.239 122 104 124.239 104 127C104 129.761 106.239 132 109 132Z" fill="#393A32"/>
<path d="M109 149C111.761 149 114 146.761 114 144C114 141.239 111.761 139 109 139C106.239 139 104 141.239 104 144C104 146.761 106.239 149 109 149Z" fill="#393A32"/>
<path d="M109 167C111.761 167 114 164.761 114 162C114 159.239 111.761 157 109 157C106.239 157 104 159.239 104 162C104 164.761 106.239 167 109 167Z" fill="#393A32"/>
<path d="M92 10C94.7614 10 97 7.76142 97 5C97 2.23858 94.7614 0 92 0C89.2386 0 87 2.23858 87 5C87 7.76142 89.2386 10 92 10Z" fill="#393A32"/>
<path d="M92 28C94.7614 28 97 25.7614 97 23C97 20.2386 94.7614 18 92 18C89.2386 18 87 20.2386 87 23C87 25.7614 89.2386 28 92 28Z" fill="#393A32"/>
<path d="M92 45C94.7614 45 97 42.7614 97 40C97 37.2386 94.7614 35 92 35C89.2386 35 87 37.2386 87 40C87 42.7614 89.2386 45 92 45Z" fill="#393A32"/>
<path d="M92 62C94.7614 62 97 59.7614 97 57C97 54.2386 94.7614 52 92 52C89.2386 52 87 54.2386 87 57C87 59.7614 89.2386 62 92 62Z" fill="#393A32"/>
<path d="M91.994 80C89.2419 80 87 77.7538 87 75C87 72.2342 89.2419 70 91.994 70C94.7557 70 97 72.2342 97 75C97 77.7538 94.7581 80 91.994 80Z" fill="#393A32"/>
<path d="M92 97C94.7614 97 97 94.7614 97 92C97 89.2386 94.7614 87 92 87C89.2386 87 87 89.2386 87 92C87 94.7614 89.2386 97 92 97Z" fill="#393A32"/>
<path d="M92 115C94.7614 115 97 112.761 97 110C97 107.239 94.7614 105 92 105C89.2386 105 87 107.239 87 110C87 112.761 89.2386 115 92 115Z" fill="#393A32"/>
<path d="M92 132C94.7614 132 97 129.761 97 127C97 124.239 94.7614 122 92 122C89.2386 122 87 124.239 87 127C87 129.761 89.2386 132 92 132Z" fill="#393A32"/>
<path d="M92 149C94.7614 149 97 146.761 97 144C97 141.239 94.7614 139 92 139C89.2386 139 87 141.239 87 144C87 146.761 89.2386 149 92 149Z" fill="#393A32"/>
<path d="M74.5 28C77.5376 28 80 25.7614 80 23C80 20.2386 77.5376 18 74.5 18C71.4624 18 69 20.2386 69 23C69 25.7614 71.4624 28 74.5 28Z" fill="#393A32"/>
<path d="M74.5 45C77.5376 45 80 42.7614 80 40C80 37.2386 77.5376 35 74.5 35C71.4624 35 69 37.2386 69 40C69 42.7614 71.4624 45 74.5 45Z" fill="#393A32"/>
<path d="M74.5 62C77.5376 62 80 59.7614 80 57C80 54.2386 77.5376 52 74.5 52C71.4624 52 69 54.2386 69 57C69 59.7614 71.4624 62 74.5 62Z" fill="#393A32"/>
<path d="M74.5013 80C71.4582 80 69 77.7538 69 75C69 72.2342 71.4582 70 74.5013 70C77.5365 70 80 72.2342 80 75C80 77.7538 77.5365 80 74.5013 80Z" fill="#393A32"/>
<path d="M74.5 97C77.5376 97 80 94.7614 80 92C80 89.2386 77.5376 87 74.5 87C71.4624 87 69 89.2386 69 92C69 94.7614 71.4624 97 74.5 97Z" fill="#393A32"/>
<path d="M56.9976 28C54.2377 28 52 25.7605 52 23.0012C52 20.2419 54.2401 18 56.9976 18C59.7647 18 62 20.2443 62 23.0012C62 25.7629 59.7647 28 56.9976 28Z" fill="#393A32"/>
<path d="M56.9976 45C54.2377 45 52 42.7562 52 40C52 37.2414 54.2401 35 56.9976 35C59.7647 35 62 37.2414 62 40C62 42.7562 59.7647 45 56.9976 45Z" fill="#393A32"/>
<path d="M56.9976 62C54.2377 62 52 59.7586 52 57C52 54.2342 54.2401 52 56.9976 52C59.7647 52 62 54.2366 62 57C62 59.7586 59.7647 62 56.9976 62Z" fill="#393A32"/>
<path d="M56.9976 80C54.2377 80 52 77.7538 52 75C52 72.2342 54.2401 70 56.9976 70C59.7647 70 62 72.2342 62 75C62 77.7538 59.7647 80 56.9976 80Z" fill="#393A32"/>
<path d="M56.9976 97C54.2377 97 52 94.7605 52 92.0012C52 89.2371 54.2401 87 56.9976 87C59.7647 87 62 89.2395 62 92.0012C62 94.7629 59.7647 97 56.9976 97Z" fill="#393A32"/>
<path d="M56.9976 202C54.2377 202 52 199.537 52 196.5C52 193.458 54.2401 191 56.9976 191C59.7647 191 62 193.458 62 196.5C62 199.542 59.7647 202 56.9976 202Z" fill="#393A32"/>
<path d="M56.9976 219C54.2377 219 52 216.765 52 213.998C52 211.24 54.2401 209 56.9976 209C59.7647 209 62 211.24 62 213.998C62 216.77 59.7647 219 56.9976 219Z" fill="#393A32"/>
<path d="M56.9976 236C54.2377 236 52 233.754 52 230.999C52 228.243 54.2401 226 56.9976 226C59.7647 226 62 228.243 62 230.999C62 233.759 59.7647 236 56.9976 236Z" fill="#393A32"/>
<path d="M40 28C42.7614 28 45 25.7614 45 23C45 20.2386 42.7614 18 40 18C37.2386 18 35 20.2386 35 23C35 25.7614 37.2386 28 40 28Z" fill="#393A32"/>
<path d="M40 45C42.7614 45 45 42.7614 45 40C45 37.2386 42.7614 35 40 35C37.2386 35 35 37.2386 35 40C35 42.7614 37.2386 45 40 45Z" fill="#393A32"/>
<path d="M40 62C42.7614 62 45 59.7614 45 57C45 54.2386 42.7614 52 40 52C37.2386 52 35 54.2386 35 57C35 59.7614 37.2386 62 40 62Z" fill="#393A32"/>
<path d="M39.9976 80C37.2403 80 35 77.7538 35 75C35 72.2342 37.2427 70 39.9976 70C42.7597 70 45 72.2342 45 75C45 77.7538 42.7597 80 39.9976 80Z" fill="#393A32"/>
<path d="M40 97C42.7614 97 45 94.7614 45 92C45 89.2386 42.7614 87 40 87C37.2386 87 35 89.2386 35 92C35 94.7614 37.2386 97 40 97Z" fill="#393A32"/>
<path d="M40 219C42.7614 219 45 216.761 45 214C45 211.239 42.7614 209 40 209C37.2386 209 35 211.239 35 214C35 216.761 37.2386 219 40 219Z" fill="#393A32"/>
<path d="M40 236C42.7614 236 45 233.761 45 231C45 228.239 42.7614 226 40 226C37.2386 226 35 228.239 35 231C35 233.761 37.2386 236 40 236Z" fill="#393A32"/>
<path d="M22.0012 45C19.2371 45 17 42.7562 17 40C17 37.2414 19.2371 35 22.0012 35C24.7557 35 27 37.2414 27 40C26.9976 42.7562 24.7557 45 22.0012 45Z" fill="#393A32"/>
<path d="M22.0012 62C19.2371 62 17 59.7586 17 57C17 54.2342 19.2371 52 22.0012 52C24.7557 52 27 54.2366 27 57C26.9976 59.7586 24.7557 62 22.0012 62Z" fill="#393A32"/>
<path d="M22.0012 80C19.2371 80 17 77.7538 17 75C17 72.2342 19.2371 70 22.0012 70C24.7557 70 27 72.2342 27 75C26.9976 77.7538 24.7557 80 22.0012 80Z" fill="#393A32"/>
<path d="M22.0012 97C19.2371 97 17 94.7605 17 92.0012C17 89.2371 19.2371 87 22.0012 87C24.7557 87 27 89.2395 27 92.0012C26.9976 94.7629 24.7557 97 22.0012 97Z" fill="#393A32"/>
<path d="M22.0012 115C19.2371 115 17 112.756 17 109.996C17 107.235 19.2371 105 22.0012 105C24.7557 105 27 107.235 27 109.996C26.9976 112.758 24.7557 115 22.0012 115Z" fill="#393A32"/>
<path d="M5 45C7.76142 45 10 42.7614 10 40C10 37.2386 7.76142 35 5 35C2.23858 35 0 37.2386 0 40C0 42.7614 2.23858 45 5 45Z" fill="#393A32"/>
<path d="M5 62C7.76142 62 10 59.7614 10 57C10 54.2386 7.76142 52 5 52C2.23858 52 0 54.2386 0 57C0 59.7614 2.23858 62 5 62Z" fill="#393A32"/>
<path d="M4.99641 80C2.23712 80 0 77.7538 0 75C0 72.2342 2.23712 70 4.99641 70C7.75808 70 10 72.2342 10 75C9.99761 77.7538 7.75569 80 4.99641 80Z" fill="#393A32"/>
<path d="M5 97C7.76142 97 10 94.7614 10 92C10 89.2386 7.76142 87 5 87C2.23858 87 0 89.2386 0 92C0 94.7614 2.23858 97 5 97Z" fill="#393A32"/>
<path d="M56.9976 254C54.2377 254 52 251.76 52 248.992C52 246.237 54.2401 244 56.9976 244C59.7647 244 62 246.237 62 248.992C62 251.763 59.7647 254 56.9976 254Z" fill="#393A32"/>
<path d="M56.9976 271C54.2377 271 52 268.764 52 265.998C52 263.243 54.2401 261 56.9976 261C59.7647 261 62 263.243 62 265.998C62 268.767 59.7647 271 56.9976 271Z" fill="#393A32"/>
<path d="M40 254C42.7614 254 45 251.761 45 249C45 246.239 42.7614 244 40 244C37.2386 244 35 246.239 35 249C35 251.761 37.2386 254 40 254Z" fill="#393A32"/>
<path d="M40 271C42.7614 271 45 268.761 45 266C45 263.239 42.7614 261 40 261C37.2386 261 35 263.239 35 266C35 268.761 37.2386 271 40 271Z" fill="#393A32"/>
</svg>
