<svg width="37" height="38" viewBox="0 0 37 38" fill="none" xmlns="http://www.w3.org/2000/svg">
<path d="M27.75 7.23554C27.75 7.35888 27.75 7.48221 27.7088 7.56443C27.7088 7.60554 27.6677 7.68776 27.6677 7.72887C27.5855 8.01665 27.4211 8.26332 27.2566 8.42776L21.7477 13.9366C21.4189 14.2655 20.9666 14.43 20.5144 14.43C20.0622 14.43 19.61 14.2655 19.2811 13.9366C18.6233 13.2789 18.6233 12.1689 19.2811 11.47L21.83 8.92109H13.1144C7.8111 8.92109 3.45333 13.2378 3.45333 18.5822C3.45333 21.1722 4.43999 23.5977 6.28999 25.4066C6.94776 26.0644 6.94776 27.1744 6.28999 27.8733C5.9611 28.2022 5.50888 28.3666 5.05666 28.3666C4.60444 28.3666 4.15221 28.2022 3.82333 27.8733C1.35666 25.4066 0 22.1177 0 18.6233C0 11.3878 5.87888 5.50888 13.1144 5.50888H21.8711L19.3222 2.95999C18.6644 2.30222 18.6644 1.19222 19.3222 0.493332C19.98 -0.164444 21.09 -0.164444 21.7888 0.493332L27.2977 6.00221C27.5033 6.20777 27.6266 6.45443 27.7088 6.7011C27.7088 6.74221 27.75 6.82443 27.75 6.86554C27.75 6.98888 27.75 7.11221 27.75 7.23554Z" fill="#F0F0F3"/>
<path d="M37 18.7465C37 25.982 31.1211 31.8609 23.8856 31.8609H15.1289L17.6778 34.4098C18.3767 35.0676 18.3767 36.1776 17.6778 36.8765C17.3489 37.2053 16.8967 37.3698 16.4445 37.3698C15.9923 37.3698 15.5812 37.2053 15.2112 36.8765L9.74339 31.3265C9.53784 31.1209 9.41451 30.8742 9.33228 30.6276C9.33228 30.5865 9.29117 30.5042 9.29117 30.4631C9.25006 30.3398 9.25006 30.2576 9.25006 30.1342C9.25006 30.0109 9.25006 29.8876 9.29117 29.8054C9.29117 29.7642 9.33228 29.682 9.33228 29.6409C9.41451 29.3531 9.57895 29.1065 9.74339 28.942L15.2523 23.4331C15.91 22.7754 17.02 22.7754 17.7189 23.4331C18.4178 24.0909 18.4178 25.2009 17.7189 25.8998L15.1701 28.4487H23.9267C29.23 28.4487 33.5878 24.132 33.5878 18.7876C33.5878 16.1976 32.6011 13.7721 30.7511 11.9632C30.0522 11.2643 30.0522 10.1954 30.7511 9.49651C31.4089 8.83873 32.5189 8.83873 33.2178 9.49651C35.6433 11.9221 37 15.2109 37 18.7465Z" fill="#F0F0F3"/>
</svg>
