<svg width="77" height="77" viewBox="0 0 77 77" fill="none" xmlns="http://www.w3.org/2000/svg">
<path d="M38.5 0.5C17.5463 0.5 0.5 17.5463 0.5 38.5C0.5 59.4537 17.5463 76.5 38.5 76.5C59.4537 76.5 76.5 59.4537 76.5 38.5C76.5 17.5463 59.4537 0.5 38.5 0.5ZM38.5 73.2273C19.3514 73.2273 3.77273 57.648 3.77273 38.5C3.77273 19.352 19.3514 3.77273 38.5 3.77273C57.6486 3.77273 73.2273 19.352 73.2273 38.5C73.2273 57.648 57.6486 73.2273 38.5 73.2273Z" fill="#F0F0F3" stroke="#F0F0F3"/>
<path d="M38.315 9.5C22.4255 9.5 9.5 22.426 9.5 38.315C9.5 54.204 22.4255 67.13 38.315 67.13C54.2045 67.13 67.13 54.204 67.13 38.315C67.13 22.426 54.2045 9.5 38.315 9.5ZM38.315 63.9718C24.1686 63.9718 12.6582 52.4619 12.6582 38.315C12.6582 24.1681 24.1686 12.6582 38.315 12.6582C52.4614 12.6582 63.9718 24.1681 63.9718 38.315C63.9718 52.4619 52.4614 63.9718 38.315 63.9718Z" fill="#F0F0F3" stroke="#F0F0F3"/>
<path d="M52.1958 37.2218L52.1959 37.2221L33.1039 24.3804L33.1039 24.3804C32.6672 24.0867 32.1101 24.0595 31.6497 24.3071L31.6497 24.3071C31.1901 24.5542 30.9 25.0334 30.9 25.5557V51.5411C30.9 52.0634 31.1901 52.5426 31.6497 52.7897L31.6498 52.7898C31.8589 52.9021 32.0872 52.9562 32.3151 52.9562C32.5899 52.9562 32.8642 52.8749 33.1032 52.7168L33.1039 52.7164L52.4205 39.72L52.4205 39.72C52.8112 39.4569 53.0432 39.0161 53.0432 38.5483C53.0432 38.0771 52.8114 37.6362 52.4205 37.373L52.1958 37.2218ZM49.0958 38.5443L33.7267 48.8849V28.2082L49.0958 38.5443Z" fill="#F0F0F3" stroke="#F0F0F3" stroke-width="0.2"/>
</svg>
