<svg width="277" height="310" viewBox="0 0 277 310" fill="none" xmlns="http://www.w3.org/2000/svg">
<path d="M212.814 259.445L230.408 259.435" stroke="#FC658A" stroke-width="3.02" stroke-miterlimit="10" stroke-linecap="round"/>
<path d="M222.135 247.292H231.221" stroke="#FC658A" stroke-width="3.02" stroke-miterlimit="10" stroke-linecap="round"/>
<path d="M45.0259 247.292H48.0425" stroke="#FC658A" stroke-width="3.02" stroke-miterlimit="10" stroke-linecap="round"/>
<path d="M217.476 235.152L243.337 235.139" stroke="#FC658A" stroke-width="3.02" stroke-miterlimit="10" stroke-linecap="round"/>
<path d="M39.1807 235.152L50.8738 235.139" stroke="#FC658A" stroke-width="3.02" stroke-miterlimit="10" stroke-linecap="round"/>
<path d="M62.9868 235.152L64.6389 235.139" stroke="#FC658A" stroke-width="3.02" stroke-miterlimit="10" stroke-linecap="round"/>
<path d="M214.975 223.01L236.217 223" stroke="#FC658A" stroke-width="3.02" stroke-miterlimit="10" stroke-linecap="round"/>
<path d="M38.9563 223.01L67.0014 223" stroke="#FC658A" stroke-width="3.02" stroke-miterlimit="10" stroke-linecap="round"/>
<path d="M265.914 210.876L275 210.862" stroke="#FC658A" stroke-width="3.02" stroke-miterlimit="10" stroke-linecap="round"/>
<path d="M211.948 210.876L231.221 210.862" stroke="#FC658A" stroke-width="3.02" stroke-miterlimit="10" stroke-linecap="round"/>
<path d="M37.2246 210.876L68.4945 210.862" stroke="#FC658A" stroke-width="3.02" stroke-miterlimit="10" stroke-linecap="round"/>
<path d="M181.386 308H192.95" stroke="#FC658A" stroke-width="3.02" stroke-miterlimit="10" stroke-linecap="round"/>
<path d="M165.691 295.86L194.876 295.847" stroke="#FC658A" stroke-width="3.02" stroke-miterlimit="10" stroke-linecap="round"/>
<path d="M140.358 283.718L196.254 283.708" stroke="#FC658A" stroke-width="3.02" stroke-miterlimit="10" stroke-linecap="round"/>
<path d="M210.571 271.584L220.209 271.571" stroke="#FC658A" stroke-width="3.02" stroke-miterlimit="10" stroke-linecap="round"/>
<path d="M134.897 271.584L200.106 271.571" stroke="#FC658A" stroke-width="3.02" stroke-miterlimit="10" stroke-linecap="round"/>
<path d="M246.916 198.719L270.318 198.712" stroke="#FC658A" stroke-width="3.02" stroke-miterlimit="10" stroke-linecap="round"/>
<path d="M192.95 198.719L236.217 198.712" stroke="#FC658A" stroke-width="3.02" stroke-miterlimit="10" stroke-linecap="round"/>
<path d="M37.2246 198.719L67.0011 198.712" stroke="#FC658A" stroke-width="3.02" stroke-miterlimit="10" stroke-linecap="round"/>
<path d="M178.355 186.589L252.697 186.576" stroke="#FC658A" stroke-width="3.02" stroke-miterlimit="10" stroke-linecap="round"/>
<path d="M32.1495 186.589L67.0011 186.576" stroke="#FC658A" stroke-width="3.02" stroke-miterlimit="10" stroke-linecap="round"/>
<path d="M164.588 174.446L232.322 174.439" stroke="#FC658A" stroke-width="3.02" stroke-miterlimit="10" stroke-linecap="round"/>
<path d="M54.7268 174.445H62.987" stroke="#FC658A" stroke-width="3.02" stroke-miterlimit="10" stroke-linecap="round"/>
<path d="M134.897 162.292H214.975" stroke="#FC658A" stroke-width="3.02" stroke-miterlimit="10" stroke-linecap="round"/>
<path d="M104.172 138.014L176.704 138.01" stroke="#FC658A" stroke-width="3.02" stroke-miterlimit="10" stroke-linecap="round"/>
<path d="M97.4058 125.877L168.169 125.874" stroke="#FC658A" stroke-width="3.02" stroke-miterlimit="10" stroke-linecap="round"/>
<path d="M88.0452 113.736L164.588 113.71" stroke="#FC658A" stroke-width="3.02" stroke-miterlimit="10" stroke-linecap="round"/>
<path d="M83.4858 101.186L156.605 101.183" stroke="#FC658A" stroke-width="3.02" stroke-miterlimit="10" stroke-linecap="round"/>
<path d="M19.6208 89.0502L141.737 89.0403" stroke="#FC658A" stroke-width="3.02" stroke-miterlimit="10" stroke-linecap="round"/>
<path d="M4.20361 76.5048L128.979 76.5012" stroke="#FC658A" stroke-width="3.02" stroke-miterlimit="10" stroke-linecap="round"/>
<path d="M130.446 64.378L5.02966 64.3582" stroke="#FC658A" stroke-width="3.02" stroke-miterlimit="10" stroke-linecap="round"/>
<path d="M5.02966 51.3751H126.316" stroke="#FC658A" stroke-width="3.02" stroke-miterlimit="10" stroke-linecap="round"/>
<path d="M2 39.2364L143.871 39.2133" stroke="#FC658A" stroke-width="3.02" stroke-miterlimit="10" stroke-linecap="round"/>
<path d="M28.0199 26.6872L159.909 26.6835" stroke="#FC658A" stroke-width="3.02" stroke-miterlimit="10" stroke-linecap="round"/>
<path d="M78.1328 14.5518L159.909 14.5419" stroke="#FC658A" stroke-width="3.02" stroke-miterlimit="10" stroke-linecap="round"/>
<path d="M59.8911 14.5518L62.4386 14.5419" stroke="#FC658A" stroke-width="3.02" stroke-miterlimit="10" stroke-linecap="round"/>
<path d="M36.1083 14.5518L38.6524 14.5419" stroke="#FC658A" stroke-width="3.02" stroke-miterlimit="10" stroke-linecap="round"/>
<path d="M86.667 2.00731L127.928 2" stroke="#FC658A" stroke-width="3.02" stroke-miterlimit="10" stroke-linecap="round"/>
</svg>
