<svg width="85" height="85" viewBox="0 0 85 85" fill="none" xmlns="http://www.w3.org/2000/svg">
<path d="M42.5 0C19.0653 0 0 19.0644 0 42.5C0 65.9356 19.0644 85 42.5 85C65.9356 85 85 65.9356 85 42.5C85 19.0644 65.9356 0 42.5 0V0ZM42.5 82.4218C20.4878 82.4218 2.57822 64.5122 2.57822 42.5C2.57822 20.4878 20.4878 2.57822 42.5 2.57822C64.5122 2.57822 82.4218 20.4878 82.4218 42.5C82.4218 64.5122 64.5122 82.4218 42.5 82.4218Z" fill="#FC658A"/>
<path d="M42.4999 8.70882C23.8682 8.70882 8.70905 23.868 8.70905 42.4997C8.70905 61.1313 23.8682 76.2905 42.4999 76.2905C61.1316 76.2905 76.2908 61.1313 76.2908 42.4997C76.2908 23.868 61.1316 8.70882 42.4999 8.70882V8.70882ZM42.4999 73.7168C25.2872 73.7168 11.2828 59.7124 11.2828 42.4997C11.2828 25.2869 25.2872 11.2825 42.4999 11.2825C59.7127 11.2825 73.7171 25.2869 73.7171 42.4997C73.7171 59.7124 59.7127 73.7168 42.4999 73.7168V73.7168Z" fill="#FC658A"/>
<path d="M50.9756 25.4561C48.3416 25.4561 46.2006 27.5971 46.2006 30.2311V54.7647C46.2006 57.3987 48.3416 59.5397 50.9756 59.5397C53.6096 59.5397 55.7506 57.3987 55.7506 54.7647L55.7541 30.2347C55.7541 27.6007 53.6096 25.4562 50.9756 25.4562L50.9756 25.4561ZM53.1764 54.7648C53.1764 55.9762 52.1904 56.9657 50.9756 56.9657C49.7642 56.9657 48.7782 55.9796 48.7782 54.7648V30.2348C48.7782 29.0234 49.7643 28.0339 50.9791 28.0339C52.1905 28.0339 53.18 29.02 53.18 30.2348L53.1764 54.7648Z" fill="#FC658A"/>
<path d="M34.0207 25.4561C31.3867 25.4561 29.2457 27.5971 29.2457 30.2311V54.7647C29.2457 57.3987 31.3867 59.5397 34.0207 59.5397C36.6548 59.5433 38.7993 57.3987 38.7993 54.7647V30.2347C38.7993 27.6007 36.6548 25.4562 34.0207 25.4562V25.4561ZM36.2216 54.7648C36.2216 55.9762 35.2356 56.9657 34.0207 56.9657C32.8093 56.9657 31.8199 55.9796 31.8199 54.7648V30.2348C31.8199 29.0234 32.8059 28.0339 34.0207 28.0339C35.2356 28.0339 36.2216 29.02 36.2216 30.2348V54.7648Z" fill="#FC658A"/>
</svg>
