<svg width="331" height="92" viewBox="0 0 331 92" fill="none" xmlns="http://www.w3.org/2000/svg">
<path d="M8.16406 75.2695C8.13542 74.7539 8.09245 73.9805 8.03516 72.9492C8.00651 71.8893 7.96354 70.7005 7.90625 69.3828C7.8776 68.0365 7.83464 66.6328 7.77734 65.1719C7.72005 63.7109 7.66276 62.3216 7.60547 61.0039C7.57682 59.6862 7.54818 58.5117 7.51953 57.4805C7.49089 56.4206 7.47656 55.6328 7.47656 55.1172C7.47656 54.9453 7.46224 54.6589 7.43359 54.2578C7.43359 53.8281 7.43359 53.3841 7.43359 52.9258C7.43359 52.4388 7.43359 51.9805 7.43359 51.5508C7.46224 51.1211 7.47656 50.8203 7.47656 50.6484C7.13281 50.8203 6.71745 51.1211 6.23047 51.5508C5.77214 51.9805 5.27083 52.4531 4.72656 52.9688C4.18229 53.4557 3.6237 53.9141 3.05078 54.3438C2.50651 54.7448 1.99089 55.0026 1.50391 55.1172C0.845052 54.7161 0.544271 54.2292 0.601562 53.6562C0.658854 53.0547 0.973958 52.4245 1.54688 51.7656C2.14844 51.0781 2.9362 50.3763 3.91016 49.6602C4.91276 48.944 6.0013 48.2565 7.17578 47.5977C8.37891 46.9388 9.61068 46.3372 10.8711 45.793C12.1315 45.2487 13.3203 44.8047 14.4375 44.4609C15.5833 44.0885 16.5859 43.8594 17.4453 43.7734C18.3333 43.6589 18.9922 43.7161 19.4219 43.9453C20.224 44.776 20.6107 45.8073 20.582 47.0391C20.5534 48.2708 20.2812 49.5885 19.7656 50.9922C19.25 52.3958 18.5768 53.8568 17.7461 55.375C16.9154 56.8932 16.1133 58.3685 15.3398 59.8008C14.5664 61.2044 13.9076 62.5365 13.3633 63.7969C12.819 65.0286 12.5612 66.0885 12.5898 66.9766C12.6185 67.8646 13.0339 68.5234 13.8359 68.9531C14.638 69.3828 15.9987 69.4831 17.918 69.2539C18.8919 69.0247 19.9089 68.6667 20.9688 68.1797C22.0286 67.6641 23.0599 67.1055 24.0625 66.5039C25.0651 65.8737 25.9961 65.2148 26.8555 64.5273C27.7435 63.8398 28.4883 63.1953 29.0898 62.5938C30.0924 62.8516 30.651 63.224 30.7656 63.7109C30.8802 64.1979 30.6797 64.7422 30.1641 65.3438C29.6771 65.9453 28.9323 66.5755 27.9297 67.2344C26.9271 67.8932 25.7956 68.5378 24.5352 69.168C23.2747 69.7695 21.957 70.3138 20.582 70.8008C19.2357 71.2878 17.9323 71.6602 16.6719 71.918C15.4401 72.1758 14.3229 72.2904 13.3203 72.2617C12.3464 72.2331 11.6302 71.9896 11.1719 71.5312C11.1719 71.7031 11.1576 72.0039 11.1289 72.4336C11.1003 72.8633 11.043 73.3216 10.957 73.8086C10.8711 74.2669 10.7279 74.7109 10.5273 75.1406C10.3268 75.5417 10.0404 75.8281 9.66797 76C9.35286 76.1432 9.05208 76.1146 8.76562 75.9141C8.50781 75.7135 8.30729 75.4987 8.16406 75.2695ZM10.4414 65.8164L18.3477 48.1562C18.1471 47.4974 17.8034 47.0391 17.3164 46.7812C16.8581 46.4948 16.3281 46.3659 15.7266 46.3945C15.125 46.3945 14.5091 46.5234 13.8789 46.7812C13.2487 47.0391 12.6615 47.3542 12.1172 47.7266C11.6016 48.0703 11.1719 48.457 10.8281 48.8867C10.4844 49.2878 10.3125 49.6602 10.3125 50.0039L10.4414 65.8164ZM34.1052 75.2695C33.5322 74.0664 33.2171 72.849 33.1598 71.6172C33.1312 70.3854 33.2028 69.125 33.3747 67.8359C33.4033 67.4349 33.4749 66.8333 33.5895 66.0312C33.7041 65.2292 33.833 64.3411 33.9762 63.3672C34.1195 62.3932 34.277 61.362 34.4489 60.2734C34.6208 59.1849 34.7783 58.1536 34.9216 57.1797C35.0648 56.2057 35.1937 55.3464 35.3083 54.6016C35.4515 53.8281 35.5518 53.2552 35.6091 52.8828C35.8382 51.6797 36.0817 50.6628 36.3395 49.832C36.626 48.9727 36.9984 48.3138 37.4567 47.8555C37.9437 47.3971 38.5596 47.1536 39.3044 47.125C40.0778 47.0964 41.0661 47.2826 42.2692 47.6836C42.4124 47.7122 42.57 47.8268 42.7419 48.0273C42.9137 48.1992 43.014 48.3281 43.0427 48.4141C43.0999 48.7865 43.2002 49.3594 43.3434 50.1328C43.5153 50.9062 43.7015 51.7943 43.902 52.7969C44.1026 53.7708 44.3031 54.8021 44.5036 55.8906C44.7328 56.9505 44.9476 57.9818 45.1481 58.9844C45.3486 59.9583 45.5205 60.832 45.6637 61.6055C45.8356 62.3789 45.9645 62.9518 46.0505 63.3242C46.4802 65.3581 47.0101 66.776 47.6403 67.5781C48.2705 68.3516 48.9437 68.7526 49.6598 68.7812C50.376 68.8099 51.1065 68.5807 51.8512 68.0938C52.6247 67.5781 53.3838 67.0482 54.1286 66.5039C54.8734 65.931 55.5752 65.444 56.2341 65.043C56.8929 64.6419 57.4658 64.5703 57.9528 64.8281C57.9528 65.3724 57.8239 65.9023 57.5661 66.418C57.3083 66.9336 56.9932 67.4206 56.6208 67.8789C56.277 68.3086 55.8903 68.7096 55.4606 69.082C55.0309 69.4544 54.6299 69.7695 54.2575 70.0273C52.6533 71.0872 51.307 71.6458 50.2184 71.7031C49.1585 71.7604 48.2562 71.5169 47.5114 70.9727C46.7666 70.4284 46.1651 69.6836 45.7067 68.7383C45.2484 67.793 44.833 66.8333 44.4606 65.8594C44.1169 64.8854 43.7731 64.026 43.4294 63.2812C43.1143 62.5078 42.7276 62.0208 42.2692 61.8203C42.1833 62.1927 41.9971 62.8372 41.7106 63.7539C41.4528 64.6706 41.1664 65.6445 40.8512 66.6758C40.5361 67.707 40.2354 68.681 39.9489 69.5977C39.6624 70.5143 39.4619 71.1589 39.3473 71.5312C39.2901 71.6745 39.1611 71.9466 38.9606 72.3477C38.7887 72.7487 38.5596 73.1927 38.2731 73.6797C37.9867 74.138 37.6572 74.5964 37.2848 75.0547C36.9411 75.4844 36.583 75.8138 36.2106 76.043C35.8382 76.3008 35.4658 76.3867 35.0934 76.3008C34.721 76.2148 34.3916 75.8711 34.1052 75.2695ZM36.3395 62.5938C36.2822 62.9375 36.2393 63.5677 36.2106 64.4844C36.2106 65.401 36.2106 66.375 36.2106 67.4062C36.2106 68.4375 36.2106 69.4115 36.2106 70.3281C36.2393 71.2448 36.2822 71.8893 36.3395 72.2617C37.3421 70.7435 38.2445 68.9818 39.0466 66.9766C39.8486 64.9427 40.4502 62.8516 40.8512 60.7031C41.2809 58.526 41.4528 56.3776 41.3669 54.2578C41.2809 52.1094 40.8512 50.1615 40.0778 48.4141C39.5908 49.3021 39.1325 50.4193 38.7028 51.7656C38.2731 53.112 37.9007 54.487 37.5856 55.8906C37.2705 57.2656 36.9984 58.569 36.7692 59.8008C36.5687 61.0039 36.4255 61.9349 36.3395 62.5938ZM56.8666 73.7656C56.5228 73.1068 56.308 72.2044 56.222 71.0586C56.1361 69.8841 56.1504 68.5807 56.265 67.1484C56.4082 65.7161 56.6374 64.2266 56.9525 62.6797C57.2962 61.1328 57.7116 59.6576 58.1986 58.2539C58.7142 56.8503 59.2871 55.5755 59.9173 54.4297C60.5762 53.2552 61.2923 52.3529 62.0658 51.7227C62.8392 51.0638 63.6699 50.7487 64.558 50.7773C65.446 50.7773 66.3627 51.2357 67.308 52.1523L68.7689 40.1641C68.7976 40.0495 68.9121 39.9062 69.1127 39.7344C69.3132 39.5339 69.4564 39.4336 69.5423 39.4336C69.6569 39.4336 69.8002 39.4622 69.972 39.5195C70.1439 39.5768 70.3015 39.6484 70.4447 39.7344C70.6166 39.7917 70.7598 39.8633 70.8744 39.9492C70.989 40.0352 71.0462 40.1068 71.0462 40.1641V61.0898C71.0462 62.6654 71.3184 64.026 71.8627 65.1719C72.4069 66.3177 73.1231 67.1628 74.0111 67.707C74.8991 68.2513 75.916 68.4375 77.0619 68.2656C78.2364 68.0651 79.4538 67.4206 80.7142 66.332C81.1153 66.332 81.3015 66.5182 81.2728 66.8906C81.2442 67.2344 81.0723 67.6497 80.7572 68.1367C80.4707 68.6237 80.041 69.125 79.4681 69.6406C78.9239 70.1562 78.308 70.5859 77.6205 70.9297C76.9616 71.2448 76.2455 71.4167 75.472 71.4453C74.7272 71.474 73.9968 71.2448 73.2806 70.7578C72.7077 70.3854 72.1921 69.9414 71.7337 69.4258C71.2754 68.9102 70.8601 68.3516 70.4877 67.75C70.1439 67.1484 69.8145 66.5326 69.4994 65.9023C69.2129 65.2721 68.9694 64.6562 68.7689 64.0547C68.6543 64.3125 68.4538 64.6992 68.1673 65.2148C67.9095 65.7018 67.6087 66.2747 67.265 66.9336C66.9212 67.5638 66.5632 68.237 66.1908 68.9531C65.8184 69.6406 65.4603 70.3138 65.1166 70.9727C64.7728 71.6029 64.4577 72.1758 64.1712 72.6914C63.8848 73.1784 63.6699 73.5365 63.5267 73.7656C63.1257 74.5104 62.6244 75.069 62.0228 75.4414C61.4212 75.8138 60.791 76 60.1322 76C59.502 76 58.8861 75.8138 58.2845 75.4414C57.7116 75.069 57.239 74.5104 56.8666 73.7656ZM59.1009 72.2617C59.1296 72.3477 59.2012 72.4622 59.3158 72.6055C59.4304 72.7201 59.5593 72.8346 59.7025 72.9492C59.8457 73.0352 59.989 73.0924 60.1322 73.1211C60.3041 73.1497 60.4616 73.1068 60.6048 72.9922C62.0085 71.9323 63.14 70.6719 63.9994 69.2109C64.8874 67.75 65.6035 66.2031 66.1478 64.5703C66.6921 62.9375 67.1218 61.276 67.4369 59.5859C67.752 57.8672 68.0528 56.2344 68.3392 54.6875C66.7923 54.487 65.4603 54.6159 64.3431 55.0742C63.2546 55.5039 62.3379 56.1628 61.5931 57.0508C60.8483 57.9388 60.2611 58.9987 59.8314 60.2305C59.4017 61.4622 59.1009 62.7656 58.9291 64.1406C58.7572 65.487 58.6856 66.8763 58.7142 68.3086C58.7715 69.7122 58.9004 71.0299 59.1009 72.2617ZM80.96 73.7656C80.9027 73.651 80.8311 73.4362 80.7452 73.1211C80.6592 72.7773 80.5733 72.4049 80.4873 72.0039C80.4014 71.6029 80.3298 71.2161 80.2725 70.8438C80.2152 70.4714 80.1866 70.1992 80.1866 70.0273V49.1445C80.1866 48.8581 80.3155 48.6576 80.5733 48.543C80.8311 48.4284 81.1176 48.3711 81.4327 48.3711C81.7764 48.3424 82.0772 48.3424 82.335 48.3711C82.6215 48.3997 82.779 48.4141 82.8077 48.4141V71.5312C82.8077 72.0182 82.9652 72.4193 83.2803 72.7344C83.5954 73.0495 83.9678 73.3073 84.3975 73.5078C84.8272 73.6797 85.2712 73.7943 85.7295 73.8516C86.1879 73.8802 86.5746 73.8516 86.8897 73.7656C87.2907 74.3672 87.2764 74.8542 86.8467 75.2266C86.4457 75.5703 85.8584 75.7708 85.085 75.8281C84.3402 75.8568 83.5524 75.7135 82.7217 75.3984C81.9196 75.0547 81.3324 74.5104 80.96 73.7656ZM79.4561 41.668C79.4561 40.8372 79.7855 40.3073 80.4444 40.0781C81.1032 39.8203 81.7764 39.849 82.4639 40.1641V42.4414C82.378 42.4701 82.2204 42.4987 81.9912 42.5273C81.7907 42.5273 81.5616 42.5273 81.3037 42.5273C81.0746 42.5273 80.8454 42.5273 80.6162 42.5273C80.4157 42.4987 80.2725 42.4701 80.1866 42.4414C80.072 42.4128 79.9144 42.2982 79.7139 42.0977C79.542 41.8971 79.4561 41.7539 79.4561 41.668ZM93.7097 73.7656C92.9935 72.7057 92.5639 71.5312 92.4206 70.2422C92.2774 68.9245 92.2774 67.5495 92.4206 66.1172C92.5639 64.6849 92.793 63.2383 93.1081 61.7773C93.4232 60.3164 93.6954 58.9128 93.9245 57.5664C94.1537 56.1914 94.2826 54.9167 94.3112 53.7422C94.3399 52.5391 94.1394 51.5078 93.7097 50.6484C93.4805 50.1901 93.1654 49.9753 92.7644 50.0039C92.392 50.0039 91.9766 50.0612 91.5183 50.1758C91.0886 50.2617 90.6446 50.2904 90.1862 50.2617C89.7566 50.2331 89.3698 49.9609 89.0261 49.4453C89.0547 49.3307 89.1693 49.1875 89.3698 49.0156C89.5417 48.8151 89.6706 48.7005 89.7566 48.6719C92.3347 48.2995 94.4831 48.5716 96.2019 49.4883C97.9493 50.3763 99.3386 51.651 100.37 53.3125C101.401 54.9453 102.103 56.8216 102.475 58.9414C102.876 61.0612 103.02 63.1667 102.905 65.2578C102.79 67.349 102.461 69.2969 101.917 71.1016C101.372 72.8776 100.685 74.2526 99.8542 75.2266C99.0235 76.2005 98.0782 76.6302 97.0183 76.5156C95.9584 76.401 94.8555 75.4844 93.7097 73.7656ZM95.9441 72.2617C95.9727 72.3477 96.0586 72.4622 96.2019 72.6055C96.3451 72.7487 96.4883 72.9062 96.6316 73.0781C96.8034 73.25 96.961 73.4076 97.1042 73.5508C97.2474 73.6654 97.3477 73.737 97.405 73.7656C98.4649 73.1641 99.2527 72.3477 99.7683 71.3164C100.284 70.2852 100.585 69.1393 100.671 67.8789C100.785 66.6185 100.728 65.3008 100.499 63.9258C100.298 62.5221 99.9974 61.1758 99.5964 59.8867C99.1954 58.5977 98.7227 57.4089 98.1784 56.3203C97.6628 55.2318 97.1615 54.3438 96.6745 53.6562C96.6459 54.0286 96.5886 54.6016 96.5027 55.375C96.4167 56.1484 96.3308 57.0221 96.2448 57.9961C96.1589 58.9701 96.0586 60.0013 95.9441 61.0898C95.8295 62.1784 95.7149 63.224 95.6003 64.2266C95.5144 65.2005 95.4284 66.0742 95.3425 66.8477C95.2566 67.6211 95.1993 68.194 95.1706 68.5664C95.142 68.8529 95.142 69.1823 95.1706 69.5547C95.2279 69.8984 95.2995 70.2422 95.3855 70.5859C95.4714 70.9297 95.5573 71.2591 95.6433 71.5742C95.7579 71.8607 95.8581 72.0898 95.9441 72.2617ZM135.395 75.2695C135.366 75.2409 135.337 74.9974 135.309 74.5391C135.309 74.0807 135.309 73.5365 135.309 72.9062C135.309 72.2474 135.309 71.5885 135.309 70.9297C135.337 70.2422 135.366 69.6836 135.395 69.2539C135.395 69.1966 135.438 68.8815 135.523 68.3086C135.609 67.707 135.71 67.0052 135.824 66.2031C135.939 65.401 136.025 64.599 136.082 63.7969C136.139 62.9661 136.154 62.3073 136.125 61.8203C136.068 61.7917 135.939 61.7773 135.738 61.7773C135.566 61.7773 135.452 61.7917 135.395 61.8203C135.165 61.9062 134.764 62.0924 134.191 62.3789C133.618 62.6654 133.017 62.9805 132.387 63.3242C131.757 63.6393 131.155 63.9401 130.582 64.2266C130.009 64.513 129.622 64.7135 129.422 64.8281C128.734 64.4844 128.434 64.112 128.52 63.7109C128.634 63.3099 128.964 62.9089 129.508 62.5078C130.081 62.0781 130.797 61.6341 131.656 61.1758C132.544 60.7174 133.404 60.2448 134.234 59.7578C135.094 59.2708 135.839 58.7695 136.469 58.2539C137.128 57.7096 137.514 57.151 137.629 56.5781L140.637 42.4414C140.723 42.069 140.694 41.7682 140.551 41.5391C140.408 41.2812 140.207 41.0951 139.949 40.9805C139.72 40.8659 139.448 40.8086 139.133 40.8086C138.846 40.8086 138.603 40.8516 138.402 40.9375C138.001 41.0807 137.471 41.3099 136.812 41.625C136.182 41.9115 135.538 42.2122 134.879 42.5273C134.249 42.8424 133.69 43.1432 133.203 43.4297C132.716 43.6875 132.444 43.8594 132.387 43.9453L122.719 54.3438C122.461 54.6589 122.246 54.7591 122.074 54.6445C121.902 54.5299 121.773 54.3294 121.688 54.043C121.63 53.7279 121.616 53.3841 121.645 53.0117C121.702 52.6393 121.816 52.3529 121.988 52.1523C122.16 51.8945 122.432 51.5078 122.805 50.9922C123.206 50.4766 123.65 49.9036 124.137 49.2734C124.624 48.6432 125.139 47.9701 125.684 47.2539C126.228 46.5378 126.743 45.8646 127.23 45.2344C127.717 44.6042 128.147 44.0456 128.52 43.5586C128.921 43.043 129.221 42.6706 129.422 42.4414C130.568 42.3268 131.642 41.9974 132.645 41.4531C133.676 40.9089 134.693 40.3789 135.695 39.8633C136.698 39.319 137.715 38.9036 138.746 38.6172C139.806 38.3307 140.938 38.3737 142.141 38.7461C142.799 39.4049 143.201 40.207 143.344 41.1523C143.516 42.0977 143.516 43.1289 143.344 44.2461C143.201 45.3346 142.943 46.4661 142.57 47.6406C142.227 48.8151 141.883 49.9609 141.539 51.0781C141.224 52.1667 140.952 53.1979 140.723 54.1719C140.522 55.1172 140.493 55.9193 140.637 56.5781C141.324 56.8073 141.997 56.793 142.656 56.5352C143.315 56.2487 143.974 55.9193 144.633 55.5469C145.32 55.1458 146.008 54.8021 146.695 54.5156C147.383 54.2005 148.085 54.1432 148.801 54.3438C148.944 54.7448 148.887 55.1602 148.629 55.5898C148.4 56.0195 148.214 56.349 148.07 56.5781C147.784 56.6641 147.283 56.8503 146.566 57.1367C145.85 57.3945 145.091 57.6953 144.289 58.0391C143.516 58.3542 142.771 58.6549 142.055 58.9414C141.367 59.2279 140.895 59.4427 140.637 59.5859C140.551 59.6432 140.436 59.7435 140.293 59.8867C140.15 60.0013 139.992 60.1445 139.82 60.3164C139.648 60.4596 139.491 60.6029 139.348 60.7461C139.233 60.8893 139.161 61.0039 139.133 61.0898C139.047 61.4622 138.932 62.1068 138.789 63.0234C138.646 63.9401 138.488 64.9141 138.316 65.9453C138.145 66.9479 137.987 67.9076 137.844 68.8242C137.729 69.7409 137.658 70.3854 137.629 70.7578C137.572 71.1302 137.572 71.5885 137.629 72.1328C137.715 72.6484 137.743 73.1641 137.715 73.6797C137.715 74.1953 137.6 74.668 137.371 75.0977C137.171 75.5273 136.755 75.8281 136.125 76L135.395 75.2695ZM155.621 73.7656C154.905 72.7057 154.475 71.5312 154.332 70.2422C154.188 68.9245 154.188 67.5495 154.332 66.1172C154.475 64.6849 154.704 63.2383 155.019 61.7773C155.334 60.3164 155.606 58.9128 155.836 57.5664C156.065 56.1914 156.194 54.9167 156.222 53.7422C156.251 52.5391 156.05 51.5078 155.621 50.6484C155.392 50.1901 155.077 49.9753 154.675 50.0039C154.303 50.0039 153.888 50.0612 153.429 50.1758C153 50.2617 152.556 50.2904 152.097 50.2617C151.668 50.2331 151.281 49.9609 150.937 49.4453C150.966 49.3307 151.08 49.1875 151.281 49.0156C151.453 48.8151 151.582 48.7005 151.668 48.6719C154.246 48.2995 156.394 48.5716 158.113 49.4883C159.86 50.3763 161.25 51.651 162.281 53.3125C163.312 54.9453 164.014 56.8216 164.386 58.9414C164.787 61.0612 164.931 63.1667 164.816 65.2578C164.702 67.349 164.372 69.2969 163.828 71.1016C163.284 72.8776 162.596 74.2526 161.765 75.2266C160.935 76.2005 159.989 76.6302 158.929 76.5156C157.869 76.401 156.767 75.4844 155.621 73.7656ZM157.855 72.2617C157.884 72.3477 157.97 72.4622 158.113 72.6055C158.256 72.7487 158.399 72.9062 158.543 73.0781C158.715 73.25 158.872 73.4076 159.015 73.5508C159.159 73.6654 159.259 73.737 159.316 73.7656C160.376 73.1641 161.164 72.3477 161.679 71.3164C162.195 70.2852 162.496 69.1393 162.582 67.8789C162.696 66.6185 162.639 65.3008 162.41 63.9258C162.209 62.5221 161.909 61.1758 161.508 59.8867C161.106 58.5977 160.634 57.4089 160.09 56.3203C159.574 55.2318 159.073 54.3438 158.586 53.6562C158.557 54.0286 158.5 54.6016 158.414 55.375C158.328 56.1484 158.242 57.0221 158.156 57.9961C158.07 58.9701 157.97 60.0013 157.855 61.0898C157.741 62.1784 157.626 63.224 157.511 64.2266C157.425 65.2005 157.34 66.0742 157.254 66.8477C157.168 67.6211 157.11 68.194 157.082 68.5664C157.053 68.8529 157.053 69.1823 157.082 69.5547C157.139 69.8984 157.211 70.2422 157.297 70.5859C157.383 70.9297 157.468 71.2591 157.554 71.5742C157.669 71.8607 157.769 72.0898 157.855 72.2617ZM170.39 75.2695C170.419 74.8971 170.433 74.2526 170.433 73.3359V67.4922C170.433 66.5755 170.419 65.931 170.39 65.5586C170.361 65.3867 170.304 65.0143 170.218 64.4414C170.161 63.8685 170.075 63.1953 169.96 62.4219C169.874 61.6484 169.774 60.832 169.66 59.9727C169.545 59.1133 169.43 58.2969 169.316 57.5234C169.201 56.75 169.101 56.0768 169.015 55.5039C168.958 54.931 168.915 54.5443 168.886 54.3438C168.829 53.9427 168.8 53.5273 168.8 53.0977C168.829 52.668 168.915 52.2956 169.058 51.9805C169.201 51.6654 169.43 51.4505 169.745 51.3359C170.061 51.1927 170.519 51.2214 171.12 51.4219C171.149 52.0234 171.192 52.7396 171.249 53.5703C171.335 54.3724 171.436 55.2174 171.55 56.1055C171.665 56.9935 171.808 57.8672 171.98 58.7266C172.152 59.5859 172.367 60.3737 172.624 61.0898C172.997 60.0299 173.355 59.099 173.699 58.2969C174.071 57.4661 174.486 56.707 174.945 56.0195C175.403 55.332 175.919 54.6875 176.492 54.0859C177.064 53.4557 177.752 52.8112 178.554 52.1523C179.557 51.3216 180.387 50.9922 181.046 51.1641C181.734 51.3073 182.292 51.7943 182.722 52.625C183.18 53.4271 183.553 54.4727 183.839 55.7617C184.126 57.0508 184.383 58.4258 184.613 59.8867C184.842 61.319 185.071 62.737 185.3 64.1406C185.558 65.5156 185.873 66.7188 186.245 67.75C186.618 68.7526 187.076 69.4974 187.62 69.9844C188.193 70.4427 188.91 70.457 189.769 70.0273C190.027 70.8008 190.055 71.3737 189.855 71.7461C189.683 72.0898 189.368 72.2904 188.91 72.3477C188.48 72.3763 187.964 72.2617 187.363 72.0039C186.761 71.7174 186.16 71.3451 185.558 70.8867C184.985 70.3997 184.469 69.8268 184.011 69.168C183.553 68.5091 183.238 67.8073 183.066 67.0625C182.951 66.5469 182.851 65.7018 182.765 64.5273C182.679 63.3529 182.55 62.0924 182.378 60.7461C182.206 59.3997 181.934 58.082 181.562 56.793C181.218 55.4753 180.717 54.4297 180.058 53.6562L177.05 56.5781C176.964 56.6927 176.749 57.2083 176.406 58.125C176.091 59.0417 175.732 60.1016 175.331 61.3047C174.93 62.4792 174.544 63.6823 174.171 64.9141C173.799 66.1172 173.527 67.0911 173.355 67.8359C173.298 68.0938 173.226 68.5807 173.14 69.2969C173.054 69.9844 172.968 70.7292 172.882 71.5312C172.796 72.3333 172.725 73.0924 172.667 73.8086C172.639 74.4961 172.624 74.9831 172.624 75.2695C172.367 75.7852 171.994 76.043 171.507 76.043C171.02 76.043 170.648 75.7852 170.39 75.2695ZM191.991 73.7656C191.934 73.651 191.862 73.4362 191.776 73.1211C191.69 72.7773 191.605 72.4049 191.519 72.0039C191.433 71.6029 191.361 71.2161 191.304 70.8438C191.246 70.4714 191.218 70.1992 191.218 70.0273V49.1445C191.218 48.8581 191.347 48.6576 191.605 48.543C191.862 48.4284 192.149 48.3711 192.464 48.3711C192.808 48.3424 193.108 48.3424 193.366 48.3711C193.653 48.3997 193.81 48.4141 193.839 48.4141V71.5312C193.839 72.0182 193.996 72.4193 194.312 72.7344C194.627 73.0495 194.999 73.3073 195.429 73.5078C195.858 73.6797 196.302 73.7943 196.761 73.8516C197.219 73.8802 197.606 73.8516 197.921 73.7656C198.322 74.3672 198.308 74.8542 197.878 75.2266C197.477 75.5703 196.89 75.7708 196.116 75.8281C195.371 75.8568 194.584 75.7135 193.753 75.3984C192.951 75.0547 192.364 74.5104 191.991 73.7656ZM190.487 41.668C190.487 40.8372 190.817 40.3073 191.476 40.0781C192.134 39.8203 192.808 39.849 193.495 40.1641V42.4414C193.409 42.4701 193.252 42.4987 193.023 42.5273C192.822 42.5273 192.593 42.5273 192.335 42.5273C192.106 42.5273 191.877 42.5273 191.648 42.5273C191.447 42.4987 191.304 42.4701 191.218 42.4414C191.103 42.4128 190.946 42.2982 190.745 42.0977C190.573 41.8971 190.487 41.7539 190.487 41.668ZM204.139 74.4961C203.079 73.694 202.306 72.7344 201.819 71.6172C201.361 70.4714 201.103 69.2396 201.046 67.9219C201.017 66.5755 201.16 65.2005 201.475 63.7969C201.819 62.3932 202.263 61.0326 202.807 59.7148C203.352 58.3971 203.953 57.1797 204.612 56.0625C205.3 54.9167 205.987 53.957 206.675 53.1836C207.362 52.3815 208.007 51.8229 208.608 51.5078C209.21 51.1641 209.697 51.1354 210.069 51.4219C210.126 51.737 210.227 52.3242 210.37 53.1836C210.542 54.0143 210.699 54.9167 210.842 55.8906C211.014 56.8359 211.158 57.7383 211.272 58.5977C211.415 59.4284 211.516 60.0013 211.573 60.3164C211.63 60.6888 211.645 61.0898 211.616 61.5195C211.587 61.9206 211.501 62.293 211.358 62.6367C211.215 62.9518 210.971 63.1953 210.628 63.3672C210.313 63.5104 209.883 63.4961 209.339 63.3242C209.31 63.1237 209.224 62.7799 209.081 62.293C208.966 61.806 208.823 61.2904 208.651 60.7461C208.508 60.1732 208.35 59.6432 208.178 59.1562C208.035 58.6406 207.935 58.2826 207.878 58.082L207.147 57.3516C206.259 57.9531 205.514 58.8125 204.913 59.9297C204.34 61.0469 203.925 62.2643 203.667 63.582C203.409 64.8711 203.337 66.1745 203.452 67.4922C203.595 68.7812 203.925 69.9271 204.44 70.9297C204.984 71.9036 205.729 72.6484 206.675 73.1641C207.648 73.651 208.852 73.7227 210.284 73.3789C211.745 73.0352 213.449 72.2044 215.397 70.8867C217.345 69.5404 219.565 67.5208 222.057 64.8281V66.332C222.057 66.418 221.885 66.6758 221.542 67.1055C221.198 67.5352 220.783 68.0365 220.296 68.6094C219.809 69.1536 219.307 69.6979 218.792 70.2422C218.305 70.7865 217.889 71.2161 217.546 71.5312C216.6 72.4193 215.583 73.2357 214.495 73.9805C213.435 74.7253 212.332 75.2839 211.186 75.6562C210.04 76.0286 208.866 76.1432 207.663 76C206.488 75.8854 205.314 75.3841 204.139 74.4961ZM228.405 73.7656C227.689 72.7057 227.259 71.5312 227.116 70.2422C226.972 68.9245 226.972 67.5495 227.116 66.1172C227.259 64.6849 227.488 63.2383 227.803 61.7773C228.118 60.3164 228.39 58.9128 228.62 57.5664C228.849 56.1914 228.978 54.9167 229.006 53.7422C229.035 52.5391 228.834 51.5078 228.405 50.6484C228.176 50.1901 227.86 49.9753 227.459 50.0039C227.087 50.0039 226.672 50.0612 226.213 50.1758C225.784 50.2617 225.34 50.2904 224.881 50.2617C224.452 50.2331 224.065 49.9609 223.721 49.4453C223.75 49.3307 223.864 49.1875 224.065 49.0156C224.237 48.8151 224.366 48.7005 224.452 48.6719C227.03 48.2995 229.178 48.5716 230.897 49.4883C232.644 50.3763 234.034 51.651 235.065 53.3125C236.096 54.9453 236.798 56.8216 237.17 58.9414C237.571 61.0612 237.715 63.1667 237.6 65.2578C237.485 67.349 237.156 69.2969 236.612 71.1016C236.067 72.8776 235.38 74.2526 234.549 75.2266C233.718 76.2005 232.773 76.6302 231.713 76.5156C230.653 76.401 229.551 75.4844 228.405 73.7656ZM230.639 72.2617C230.668 72.3477 230.754 72.4622 230.897 72.6055C231.04 72.7487 231.183 72.9062 231.327 73.0781C231.498 73.25 231.656 73.4076 231.799 73.5508C231.942 73.6654 232.043 73.737 232.1 73.7656C233.16 73.1641 233.948 72.3477 234.463 71.3164C234.979 70.2852 235.28 69.1393 235.366 67.8789C235.48 66.6185 235.423 65.3008 235.194 63.9258C234.993 62.5221 234.692 61.1758 234.291 59.8867C233.89 58.5977 233.418 57.4089 232.873 56.3203C232.358 55.2318 231.857 54.3438 231.37 53.6562C231.341 54.0286 231.284 54.6016 231.198 55.375C231.112 56.1484 231.026 57.0221 230.94 57.9961C230.854 58.9701 230.754 60.0013 230.639 61.0898C230.524 62.1784 230.41 63.224 230.295 64.2266C230.209 65.2005 230.123 66.0742 230.038 66.8477C229.952 67.6211 229.894 68.194 229.866 68.5664C229.837 68.8529 229.837 69.1823 229.866 69.5547C229.923 69.8984 229.995 70.2422 230.08 70.5859C230.166 70.9297 230.252 71.2591 230.338 71.5742C230.453 71.8607 230.553 72.0898 230.639 72.2617Z" fill="#E5E5E5"/>
<path d="M312.813 20.1795C307.767 18.6227 302.985 19.4212 298.214 22.6138C295.112 24.6933 292.525 27.5586 289.828 31.9007C288.965 33.2915 287.4 34.0419 285.814 33.8251C284.277 33.5962 282.908 32.465 282.423 30.8884L281.931 29.3035C281.613 28.2819 281.354 27.4485 281.115 26.6087C280.261 23.6158 278.848 20.5298 276.671 16.9021C275.323 14.6562 273.361 13.7671 271.739 13.4393C270.818 13.253 270.006 13.2487 269.478 13.2779C266.175 13.4658 263.323 15.3181 262.032 18.1118C260.765 20.8543 260.131 23.9651 260.091 27.6229C260.036 32.6159 261.444 37.4963 262.973 42.0249C266.535 52.58 272.026 63.1005 279.734 74.1306C283.235 69.7027 287.475 65.6576 292.661 61.7984C294.449 60.4664 296.266 59.1734 298.086 57.8818C300.08 56.4647 302.074 55.0484 304.026 53.575C309.379 49.5366 313.383 45.308 316.262 40.6443C318.913 36.3491 319.69 31.8871 318.635 27.0045C317.852 23.3781 315.948 21.1457 312.813 20.1795Z" fill="#FC658A" stroke="#F0F0F3" stroke-width="2"/>
<path d="M326.688 25.1441C325.257 18.5188 321.166 13.8514 315.172 12.0027C307.763 9.72807 300.55 10.8828 293.727 15.4531C291.58 16.8924 289.645 18.5673 287.811 20.6051C286.791 18.0101 285.441 15.334 283.682 12.4024C280.6 7.26969 275.119 4.41383 269.023 4.75785C262.707 5.11687 257.174 8.8261 254.583 14.4345C252.79 18.3192 251.891 22.6021 251.837 27.5269C251.769 33.8351 253.404 39.5742 255.18 44.8362C259.21 56.7787 265.482 68.6011 274.356 80.9821C275.68 82.8294 277.224 83.5247 278.412 83.7648C278.568 83.7964 278.718 83.8196 278.861 83.8388C280.095 83.9878 281.971 83.8131 283.906 82.1356C284.584 81.5496 285.063 80.9141 285.411 80.4512L285.542 80.279C288.689 76.1398 292.596 72.3592 297.483 68.72C299.222 67.4245 300.991 66.1686 302.759 64.9125C304.817 63.4507 306.875 61.9881 308.889 60.466C315.087 55.7925 319.776 50.8095 323.217 45.2346C327.056 39.0177 328.225 32.2575 326.688 25.1441ZM316.261 40.6447C313.382 45.3084 309.379 49.538 304.025 53.5753C302.072 55.0488 300.079 56.4642 298.085 57.8822C296.266 59.174 294.448 60.467 292.66 61.7988C287.474 65.6579 283.233 69.7038 279.733 74.131C272.024 63.1009 266.534 52.5804 262.972 42.0253C261.443 37.4966 260.035 32.6171 260.09 27.6233C260.129 23.9653 260.764 20.8547 262.031 18.1121C263.321 15.3184 266.174 13.4662 269.477 13.2782C270.005 13.2492 270.817 13.2536 271.738 13.4397C273.36 13.7675 275.322 14.6565 276.67 16.9025C278.847 20.53 280.259 23.6151 281.114 26.6091C281.353 27.4489 281.612 28.2822 281.93 29.3039L282.421 30.8888C282.907 32.4662 284.276 33.5966 285.813 33.8255C287.399 34.0423 288.964 33.2919 289.827 31.901C292.523 27.559 295.11 24.6937 298.213 22.6141C302.983 19.4216 307.766 18.623 312.812 20.1798C315.947 21.1461 317.851 23.3785 318.633 27.0047C319.689 31.8875 318.912 36.3495 316.261 40.6447Z" fill="#FC658A" stroke="#F0F0F3" stroke-width="2"/>
</svg>
